<?xml version="1.0" encoding="UTF-8" standalone="no"?>
<!-- Created with Inkscape (http://www.inkscape.org/) -->

<svg
   width="69.59848mm"
   height="100.46245mm"
   viewBox="0 0 69.59848 100.46245"
   version="1.1"
   id="svg522"
   inkscape:version="1.1.2 (0a00cf5339, 2022-02-04)"
   sodipodi:docname="ghana.svg"
   xmlns:inkscape="http://www.inkscape.org/namespaces/inkscape"
   xmlns:sodipodi="http://sodipodi.sourceforge.net/DTD/sodipodi-0.dtd"
   xmlns="http://www.w3.org/2000/svg"
   xmlns:svg="http://www.w3.org/2000/svg">
  <sodipodi:namedview
     id="namedview524"
     pagecolor="#ffffff"
     bordercolor="#666666"
     borderopacity="1.0"
     inkscape:pageshadow="2"
     inkscape:pageopacity="0.0"
     inkscape:pagecheckerboard="0"
     inkscape:document-units="mm"
     showgrid="false"
     inkscape:zoom="2.0426072"
     inkscape:cx="97.179721"
     inkscape:cy="161.06866"
     inkscape:window-width="1920"
     inkscape:window-height="1048"
     inkscape:window-x="0"
     inkscape:window-y="0"
     inkscape:window-maximized="1"
     inkscape:current-layer="layer1"
     fit-margin-top="0"
     fit-margin-left="0"
     fit-margin-right="0"
     fit-margin-bottom="0" />
  <defs
     id="defs519" />
  <g
     inkscape:label="Layer 1"
     inkscape:groupmode="layer"
     id="layer1"
     transform="translate(-52.599753,-90.015211)">
    <g
       id="g712"
       transform="translate(-8.6930319,12.716407)"
       style="fill:#009a44;fill-opacity:1">
      <path
         style="fill:#009a44;fill-opacity:1;stroke-width:0.264583"
         d="m 78.307533,177.67285 c -0.475748,-0.34603 -1.269273,-0.98411 -1.76339,-1.41795 -0.952616,-0.83641 -0.994857,-0.84808 -8.880991,-2.45233 -2.255573,-0.45885 -4.24987,-0.95423 -4.431771,-1.10086 -0.387962,-0.31272 -0.439158,-1.16189 -0.08331,-1.38181 0.136081,-0.0841 1.387732,-0.17996 2.781447,-0.21302 2.137629,-0.0507 2.508241,-0.12235 2.369184,-0.45801 -0.411702,-0.9938 -0.42061,-2.54088 -0.01656,-2.87621 0.311359,-0.2584 0.35015,-0.49997 0.16042,-0.999 -0.137634,-0.36201 -0.250243,-0.99489 -0.250243,-1.40641 0,-0.85568 -0.459991,-1.12294 -1.555573,-0.90382 -0.473576,0.0947 -0.86943,0.0179 -1.059549,-0.20563 -0.166932,-0.19626 -0.609383,-0.70126 -0.983224,-1.12221 -0.54357,-0.61206 -0.647357,-0.93782 -0.518179,-1.6264 0.104534,-0.55722 -0.01517,-1.31411 -0.339261,-2.14505 -0.275435,-0.70621 -0.582225,-1.84118 -0.681755,-2.52217 -0.09953,-0.68098 -0.391738,-1.51441 -0.649349,-1.85208 -0.6788,-0.88973 -1.984485,-6.43558 -1.722949,-7.31816 0.114757,-0.38726 0.222446,-1.18036 0.239309,-1.76244 0.02992,-1.03296 0.30026,-1.5214 3.282194,-5.93016 0.35303,-0.52196 0.660749,-1.30619 0.68382,-1.74276 0.105503,-1.99636 0.785003,-5.18991 1.463702,-6.87916 0.409266,-1.01865 0.822851,-2.32615 0.919077,-2.90555 0.254029,-1.52958 0.558141,-1.95391 1.738942,-2.42638 0.747739,-0.29918 1.161323,-0.67623 1.419485,-1.2941 0.239548,-0.57332 0.575857,-0.90188 0.982038,-0.9594 0.508341,-0.072 0.632669,-0.26983 0.702085,-1.11721 0.04639,-0.56634 -0.09722,-1.87603 -0.319138,-2.91041 -0.221919,-1.03439 -0.481978,-2.44771 -0.577906,-3.14073 -0.09593,-0.69301 -0.279736,-1.32512 -0.408466,-1.40467 -0.128725,-0.0796 -0.23405,-0.49078 -0.23405,-0.91382 0,-1.17509 -0.742657,-2.46274 -1.67476,-2.90377 -0.780306,-0.36921 -0.833353,-0.47957 -0.76091,-1.58293 0.04727,-0.71996 0.278315,-1.39942 0.587923,-1.72898 0.387241,-0.4122 0.472953,-0.7715 0.355986,-1.49229 -0.09074,-0.5592 -0.0369,-1.02177 0.131017,-1.12555 0.402891,-0.249 0.04874,-1.80557 -0.499769,-2.19659 -0.516602,-0.36826 -0.981311,-3.868304 -0.583253,-4.392864 0.300839,-0.396446 0.245734,-2.582643 -0.0781,-3.098766 -0.134355,-0.214129 -0.261112,-1.18587 -0.281678,-2.159426 -0.0269,-1.27313 -0.163245,-1.895951 -0.485643,-2.218348 -0.269418,-0.269417 -0.422202,-0.777129 -0.38296,-1.272609 0.03666,-0.46292 -0.246058,-1.4947 -0.644822,-2.353257 -0.790467,-1.701914 -0.944519,-3.635724 -0.330242,-4.145529 0.208928,-0.173394 0.460801,-0.693989 0.559719,-1.156877 0.09892,-0.462886 0.27463,-0.960676 0.39047,-1.106197 0.115841,-0.14552 0.250921,-0.613904 0.300176,-1.040855 0.06961,-0.603379 0.26634,-0.825394 0.883309,-0.996831 0.436562,-0.121308 4.067969,-0.207645 8.069792,-0.191857 4.099367,0.01617 8.123049,-0.09825 9.216077,-0.262075 1.06702,-0.15993 2.049608,-0.223062 2.18353,-0.140295 0.568375,0.351276 3.197302,0.651589 5.533726,0.632137 1.382448,-0.01151 2.692135,-0.01855 2.910417,-0.01564 0.218281,0.0029 1.510186,0.01331 2.870896,0.0231 1.360717,0.0098 2.697447,0.13739 2.970527,0.283536 0.6677,0.357343 2.21119,-0.292561 2.64356,-1.113097 0.41432,-0.786294 0.75017,-1.005488 1.54835,-1.010537 0.35235,-0.0021 0.85092,-0.194365 1.10795,-0.426974 0.57171,-0.517392 2.43679,-0.286504 3.10806,0.384763 0.25958,0.25958 0.75598,0.403526 1.23081,0.35691 0.64251,-0.06308 0.88455,0.07217 1.25677,0.70228 0.55789,0.944439 0.57768,1.845154 0.0557,2.53527 -0.21366,0.282479 -0.38846,0.825269 -0.38846,1.206206 0,0.380937 -0.17481,0.923727 -0.38847,1.206201 -0.607,0.802537 -0.49388,1.578912 0.28155,1.932218 1.13813,0.51857 2.52561,1.68811 2.77224,2.336802 0.15637,0.411295 0.44634,0.610196 0.88957,0.610196 0.36167,0 0.8111,0.187126 0.99874,0.41584 0.79307,0.966666 1.22185,1.377029 1.55481,1.488014 0.28867,0.09622 0.29475,0.314825 0.0331,1.188249 -0.42451,1.416884 -0.40446,2.065237 0.0762,2.464147 0.43349,0.359764 0.54222,1.731028 0.15617,1.969619 -0.45101,0.278741 -0.91652,3.701208 -0.58714,4.316676 0.16428,0.30695 0.29868,0.97098 0.29868,1.47564 0,0.78194 0.1175,0.95851 0.79497,1.19468 1.26127,0.43968 2.09736,1.57765 2.10709,2.86787 0.005,0.60988 -0.1107,1.18245 -0.25622,1.27239 -0.14553,0.0899 -0.26459,0.48987 -0.26459,0.88874 0,0.39887 -0.0964,0.83833 -0.21433,0.97657 -0.69148,0.81094 -0.78205,1.62199 -0.29591,2.64996 0.27076,0.57254 0.49633,1.24374 0.50126,1.49155 0.0163,0.81922 -0.60129,1.80866 -1.227,1.96571 -0.33886,0.085 -0.6161,0.27217 -0.6161,0.41583 0,0.57612 1.13736,1.80133 2.38455,2.56874 0.72579,0.44658 1.31962,0.92684 1.31962,1.06725 0,0.1404 0.29765,0.6939 0.66145,1.22999 0.96407,1.42063 0.88571,2.38999 -0.23645,2.92512 -0.72374,0.34512 -0.92909,0.6231 -1.0586,1.43301 -0.0884,0.55266 -0.0415,1.3183 0.10417,1.70142 0.14566,0.38313 0.26484,1.71338 0.26484,2.95611 0,2.08168 -0.0636,2.35374 -0.808,3.45675 -0.97807,1.44921 -0.97262,2.487 0.0143,2.71668 0.37043,0.0862 0.81955,0.48215 1.02078,0.8999 0.30751,0.63839 0.29787,0.99921 -0.0668,2.50235 -0.23439,0.96602 -0.42585,2.05733 -0.42547,2.42514 2.7e-4,0.3678 -0.16156,0.90358 -0.35986,1.19062 -0.19831,0.28704 -0.41728,0.91884 -0.4866,1.404 -0.10176,0.71214 0.0187,1.02685 0.62513,1.6333 0.49381,0.4938 0.75119,1.02518 0.75119,1.55085 0,0.61137 0.17132,0.88183 0.7276,1.14862 0.57283,0.27473 0.72948,0.53491 0.73639,1.22308 0.0117,1.16089 1.68527,2.66549 2.98128,2.68023 0.72701,0.008 0.93692,0.15406 1.25238,0.86983 0.60628,1.37566 1.04747,1.78594 1.92046,1.78594 1.4586,0 1.48099,1.79051 0.0299,2.39157 -0.97483,0.40379 -1.97033,1.67453 -2.21453,2.8268 -0.41729,1.96906 -2.76255,2.70001 -7.15757,2.23081 -3.14763,-0.33603 -5.86476,0.17026 -7.56745,1.41007 -1.31263,0.95579 -3.93151,2.16606 -5.66875,2.61972 -0.95085,0.2483 -1.82719,0.69404 -2.3416,1.19101 -0.45214,0.43681 -1.53644,1.05879 -2.40957,1.38217 -0.87312,0.32338 -1.88515,0.85824 -2.24896,1.18857 -0.945603,0.85862 -1.92553,1.16345 -3.740119,1.16345 -1.241017,0 -1.918065,0.1703 -3.09163,0.77764 -0.826447,0.42771 -2.661777,1.04861 -4.078509,1.3798 -2.23841,0.52326 -2.723703,0.74027 -3.704167,1.65642 -0.620559,0.57986 -1.714064,1.26689 -2.430016,1.52674 -0.715951,0.25986 -1.550725,0.70638 -1.855054,0.99229 -0.892503,0.83846 -2.498384,0.91262 -3.529044,0.16296 z m 2.87937,-1.37263 c 0.19766,-0.23816 0.878769,-0.65566 1.513578,-0.92777 0.63481,-0.27211 1.767589,-1.01332 2.517288,-1.64714 1.220529,-1.03187 1.653649,-1.21573 4.141216,-1.75793 1.530959,-0.3337 3.372014,-0.93306 4.101042,-1.33511 0.98125,-0.54115 1.869583,-0.77757 3.439583,-0.91539 1.68909,-0.14827 2.250284,-0.31008 2.778125,-0.80102 0.363805,-0.33837 1.524665,-0.93433 2.579685,-1.32436 1.05503,-0.39003 1.91823,-0.79859 1.91823,-0.90791 0,-0.416 2.05255,-1.50568 3.66237,-1.94431 1.74233,-0.47474 3.51681,-1.33026 5.01466,-2.41768 0.4795,-0.34812 1.6969,-0.88829 2.70533,-1.2004 1.666,-0.51562 2.19066,-0.55111 5.74276,-0.38849 4.36256,0.19973 5.36447,0.013 5.36447,-0.99967 0,-0.68918 0.50433,-1.52325 1.67938,-2.7774 0.44312,-0.47294 0.6833,-0.85989 0.53374,-0.85989 -0.14955,0 -0.65767,-0.59531 -1.12914,-1.32292 -0.56252,-0.86811 -1.041,-1.32291 -1.39178,-1.32291 -1.00598,0 -3.54467,-2.21796 -3.82246,-3.33954 -0.10374,-0.41883 -0.40749,-0.91709 -0.67501,-1.10724 -0.28312,-0.20124 -0.4864,-0.67025 -0.4864,-1.12224 0,-0.48996 -0.19527,-0.89845 -0.52917,-1.10697 -0.29104,-0.18176 -0.52916,-0.45661 -0.52916,-0.61078 0,-0.15418 -0.14687,-0.42718 -0.32637,-0.60668 -0.1795,-0.1795 -0.35266,-0.97594 -0.38479,-1.76987 -0.0485,-1.19716 0.0298,-1.49073 0.45866,-1.72024 0.31603,-0.16913 0.51863,-0.55601 0.52106,-0.99502 0.002,-0.39507 0.17556,-1.19455 0.38526,-1.77663 0.42671,-1.18442 0.52911,-2.62178 0.17102,-2.40047 -0.12841,0.0794 -0.54513,-0.10085 -0.92604,-0.40047 -0.60645,-0.47704 -0.69255,-0.73779 -0.69255,-2.09744 0,-0.85398 0.12086,-1.62739 0.26859,-1.71868 0.81548,-0.504 1.47105,-4.00071 1.02605,-5.47282 -0.66891,-2.21283 -0.11079,-4.6914 1.15275,-5.11922 0.61213,-0.20726 0.5862,-0.72137 -0.0661,-1.31174 -0.29105,-0.26339 -0.52917,-0.62217 -0.52917,-0.79729 0,-0.17513 -0.63345,-0.739 -1.40766,-1.25304 -1.03772,-0.68901 -1.61137,-1.32393 -2.18281,-2.41596 -0.88922,-1.6993 -0.75566,-2.24717 0.63569,-2.6077 0.95907,-0.24852 1.0599,-0.73449 0.41896,-2.01929 -0.43238,-0.86671 -0.32232,-2.78282 0.17759,-3.09178 0.13286,-0.0821 0.24156,-0.4898 0.24156,-0.90598 0,-0.41619 0.20459,-1.11317 0.45464,-1.54885 0.44524,-0.7758 0.44115,-0.80338 -0.19844,-1.33556 -0.82123,-0.68332 -1.09435,-0.68745 -2.16803,-0.0328 -1.04615,0.63784 -1.36324,0.65687 -1.90573,0.11438 -0.49504,-0.49504 -0.56161,-2.50754 -0.0983,-2.97089 0.17462,-0.17462 0.65087,-0.3175 1.05833,-0.3175 0.83349,0 0.89597,-0.16952 0.33555,-0.91046 -0.45411,-0.60039 -0.5022,-1.55765 -0.11463,-2.281831 0.15061,-0.281419 0.27504,-1.828771 0.2765,-3.438562 0.003,-3.624493 -0.44291,-4.93885 -1.71904,-5.063551 -0.61145,-0.05975 -0.91311,-0.285459 -1.21177,-0.906679 -0.4424,-0.92021 -1.57339,-1.941203 -2.7789,-2.508644 -1.0578,-0.497912 -1.43069,-1.875489 -0.85673,-3.16502 0.38915,-0.874287 1.25361,-3.495747 1.25361,-3.801528 0,-0.0818 -0.34113,-0.148723 -0.75807,-0.148723 -0.41694,0 -1.0608,-0.238125 -1.4308,-0.529166 -0.83244,-0.654802 -0.86085,-0.654413 -1.81473,0.02482 -0.4279,0.304688 -0.92253,0.57809 -1.09918,0.607562 -0.17665,0.02947 -0.82483,0.375492 -1.4404,0.768938 -0.61558,0.393443 -1.21201,0.715354 -1.32542,0.715354 -0.11341,0 -0.35491,0.238125 -0.53667,0.529166 -0.43171,0.691288 -0.75612,0.667507 -1.80471,-0.132291 -0.88468,-0.674778 -2.063358,-0.873184 -2.357733,-0.396875 -0.190566,0.308342 -1.276324,0.355274 -1.563994,0.0676 -0.108339,-0.108339 -2.253007,-0.197636 -4.765932,-0.198437 -3.456366,-0.0011 -4.674285,-0.08888 -5.001514,-0.360453 -0.30765,-0.255328 -0.758717,-0.302858 -1.562021,-0.164597 -0.621199,0.106918 -4.714663,0.174747 -9.096584,0.150731 l -7.967128,-0.04367 -0.674595,1.398889 c -0.769919,1.596567 -0.963559,2.109472 -1.25438,3.322555 -0.264404,1.102889 0.477648,2.740404 1.440671,3.179186 0.753054,0.343114 0.928081,1.300792 0.282977,1.548342 -0.571751,0.219403 -0.48818,0.824793 0.141446,1.024628 0.499777,0.158623 0.525608,0.311134 0.360783,2.130046 -0.107756,1.189136 -0.07345,2.090928 0.08729,2.294369 0.145654,0.184349 0.334653,1.046626 0.420005,1.916168 0.121904,1.241973 0.06356,1.682224 -0.272065,2.053093 -0.362749,0.400833 -0.375418,0.568944 -0.08393,1.11361 0.188828,0.35283 0.277818,0.89199 0.197755,1.19815 -0.09812,0.37523 0.06895,0.77118 0.512627,1.21485 0.563187,0.56319 0.648536,0.8667 0.591286,2.10262 -0.0368,0.79444 0.01423,1.52558 0.113427,1.62476 0.399042,0.39904 0.137144,1.23437 -0.626396,1.99791 -0.916861,0.91686 -0.929849,1.62529 -0.03214,1.75305 0.4381,0.0624 0.757984,0.43002 1.130758,1.29966 0.556115,1.29737 2.353948,9.95324 2.353948,11.33336 0,0.90432 -1.01455,2.22899 -1.707158,2.22899 -0.225229,0 -0.409509,0.21967 -0.409509,0.48816 0,0.57906 -0.576133,1.09481 -1.879124,1.68218 -0.842938,0.37998 -0.972317,0.56998 -1.119534,1.64404 -0.09155,0.66791 -0.415808,1.70318 -0.720579,2.30058 -0.670423,1.31413 -1.649616,6.16046 -1.43872,7.12066 0.100295,0.45664 -0.01718,0.90739 -0.347639,1.33382 -0.27452,0.35426 -0.577091,0.96359 -0.672381,1.35407 -0.09529,0.39048 -0.38269,0.77644 -0.638668,0.85769 -0.743172,0.23587 -2.272894,3.03744 -2.394073,4.38455 -0.28216,3.1367 0.187752,5.90367 1.413944,8.32571 0.359163,0.70944 0.653024,1.57034 0.653024,1.91311 0,0.34278 0.238125,1.30074 0.529167,2.12881 0.291041,0.82806 0.529166,1.83293 0.529166,2.23304 0,0.45667 0.196976,0.83288 0.529167,1.01066 0.291042,0.15576 0.529167,0.46563 0.529167,0.6886 0,0.26116 0.164739,0.35734 0.463021,0.27032 0.254661,-0.0743 0.873783,0.0665 1.375828,0.3129 0.834416,0.4095 0.939855,0.59566 1.227791,2.16777 0.173241,0.94588 0.3968,1.96993 0.4968,2.27566 0.116491,0.35615 0.03193,0.70575 -0.235363,0.97304 -0.356653,0.35666 -0.372364,0.61133 -0.108297,1.75533 0.268301,1.16234 0.250587,1.40257 -0.134802,1.82843 -0.424749,0.46934 -0.3843,0.50304 0.947647,0.78955 0.765234,0.16461 1.82847,0.36611 2.362745,0.44777 1.863151,0.28478 3.723955,0.96909 4.286875,1.57649 0.752567,0.81204 2.277216,1.68868 2.977547,1.71204 0.309602,0.0103 0.724635,-0.17609 0.922292,-0.41426 z"
         id="path726" />
      <path
         style="fill:#009a44;fill-opacity:1;stroke-width:0.264583"
         d="m 78.775652,177.65929 c -0.181158,-0.21828 -0.458608,-0.39687 -0.616553,-0.39687 -0.157949,0 -0.708917,-0.41096 -1.224375,-0.91323 -0.932538,-0.90869 -3.199308,-1.73307 -4.763098,-1.73226 -0.609272,2.7e-4 -2.565689,-0.41502 -7.022016,-1.49075 -0.873125,-0.21077 -1.766093,-0.56424 -1.984375,-0.7855 -0.353117,-0.35792 -0.338654,-0.44541 0.131178,-0.79355 0.29043,-0.21521 0.945273,-0.36568 1.455209,-0.3344 0.509935,0.0313 1.608817,0.0361 2.441961,0.0106 1.510599,-0.0462 1.514088,-0.0482 1.256771,-0.725 -0.338556,-0.89046 -0.329592,-2.31892 0.01672,-2.66524 0.18996,-0.18996 0.168101,-0.7575 -0.07083,-1.83886 -0.32107,-1.45311 -0.401582,-1.56924 -1.134658,-1.63664 -1.433382,-0.1318 -1.979684,-0.32964 -1.979684,-0.71694 0,-0.21039 -0.238125,-0.50996 -0.529167,-0.66572 -0.414263,-0.22171 -0.529195,-0.55408 -0.5293,-1.53067 -7.3e-5,-0.6861 -0.238198,-1.87382 -0.529166,-2.63936 -0.290969,-0.76555 -0.529034,-1.69047 -0.529034,-2.05539 0,-0.36492 -0.293765,-1.22685 -0.652812,-1.91539 -0.359047,-0.68855 -0.937372,-2.4588 -1.285166,-3.9339 -0.538714,-2.28485 -0.5835,-2.79819 -0.302444,-3.46663 0.18145,-0.43154 0.269697,-1.0996 0.196105,-1.48457 -0.09734,-0.5092 0.168878,-1.2009 0.976883,-2.5382 0.610877,-1.01103 1.271754,-1.97192 1.468615,-2.1353 0.580247,-0.48156 1.450903,-2.33749 1.450903,-3.09281 0,-1.41204 0.851675,-5.29285 1.585008,-7.22237 0.4148,-1.0914 0.852942,-2.46062 0.97365,-3.04271 0.186539,-0.89955 0.40132,-1.1544 1.431578,-1.69866 0.697604,-0.36853 1.348756,-0.94904 1.534028,-1.3676 0.180705,-0.40824 0.664552,-0.84671 1.102995,-0.99955 0.58088,-0.20249 0.781074,-0.43987 0.781074,-0.92614 0,-0.99352 -1.28986,-7.36493 -1.622303,-8.01355 -0.160708,-0.31354 -0.212442,-0.69912 -0.114967,-0.85684 0.301342,-0.48758 -0.818809,-2.67411 -1.369936,-2.67411 -1.308118,0 -1.570334,-2.02094 -0.418243,-3.22346 0.646875,-0.6752 0.676982,-0.79662 0.349306,-1.40889 -0.275484,-0.51475 -0.286245,-0.74235 -0.04643,-0.98217 0.529653,-0.52965 0.353353,-1.80076 -0.368798,-2.65898 -0.417142,-0.49575 -0.629047,-1.00775 -0.546973,-1.3216 0.07369,-0.28178 0.0024,-0.80116 -0.158462,-1.15417 -0.22715,-0.49854 -0.20202,-0.832248 0.112565,-1.494722 0.323903,-0.682099 0.35297,-1.144291 0.145158,-2.308096 -0.142915,-0.800364 -0.284655,-2.25721 -0.314978,-3.237436 -0.03971,-1.283719 -0.187677,-1.928688 -0.528987,-2.305833 -0.300916,-0.33251 -0.426301,-0.772377 -0.343554,-1.205241 0.08715,-0.455903 -0.1628,-1.225648 -0.754773,-2.324375 -0.940955,-1.746451 -0.98884,-2.59701 -0.241441,-4.288573 0.821799,-1.859949 1.011825,-2.417374 1.036905,-3.041669 0.04806,-1.196377 1.063246,-1.325737 9.407011,-1.198697 4.991513,0.076 7.64018,0.02185 7.86012,-0.160684 0.341403,-0.283337 3.004198,-0.178102 4.455234,0.176075 0.436563,0.106558 3.426937,0.209748 6.645275,0.229309 4.352147,0.02646 5.957139,0.123214 6.263699,0.377632 0.34231,0.284093 0.59676,0.247896 1.50132,-0.213577 0.59904,-0.305605 1.1943,-0.832197 1.32281,-1.170205 0.26361,-0.693353 0.86833,-1.011298 1.47828,-0.77724 0.23168,0.08891 0.66831,-0.08489 1.00285,-0.399171 0.52427,-0.492535 0.71315,-0.52383 1.64018,-0.271762 0.57622,0.156681 1.24203,0.457417 1.47958,0.668303 0.26565,0.235829 0.68224,0.320599 1.08221,0.220213 1.25116,-0.314023 1.94604,1.657855 1.13335,3.216124 -0.21739,0.416817 -0.39598,1.002983 -0.39688,1.302592 -7.9e-4,0.299609 -0.17644,0.775859 -0.39009,1.058333 -0.62176,0.822042 -0.50262,1.680308 0.27425,1.975673 1.05355,0.400558 2.48611,1.588828 2.91473,2.417675 0.29119,0.563107 0.58008,0.750451 1.1572,0.750451 0.54012,0 0.81979,0.159655 0.93931,0.536215 0.0936,0.294918 0.46833,0.731565 0.83272,0.970322 0.57902,0.379387 0.63834,0.553593 0.47059,1.382014 -0.27084,1.337554 -0.17875,2.158627 0.30164,2.689448 0.37697,0.416557 0.37465,0.575275 -0.0255,1.73967 -0.24217,0.704709 -0.49344,1.578946 -0.55838,1.942748 -0.0649,0.363802 -0.17817,0.861078 -0.25163,1.105058 -0.0735,0.243978 0.0503,0.883598 0.27497,1.421376 0.51334,1.22859 0.51217,1.56547 -0.007,2.08487 -0.37799,0.37798 -0.33476,0.41578 0.47546,0.41578 0.68301,0 1.12015,0.23442 1.87098,1.00334 1.07012,1.0959 1.23708,1.9511 0.56754,2.907 -0.22672,0.32368 -0.34901,0.69076 -0.27177,0.81574 0.0772,0.12498 -0.11734,0.83739 -0.43241,1.58314 -0.55023,1.30237 -0.55517,1.39296 -0.12511,2.29481 0.24626,0.51641 0.44774,1.23795 0.44774,1.60343 0,0.65167 -0.87867,1.77119 -1.57136,2.00209 -0.6271,0.20903 0.43817,1.77784 1.78439,2.62785 1.52414,0.96236 2.95234,2.96113 2.95792,4.13966 0.003,0.68139 -0.15494,0.93532 -0.78587,1.26158 -1.00722,0.52086 -1.20191,1.32771 -0.85224,3.53196 0.44758,2.82157 -0.0328,5.92413 -1.01075,6.52857 -0.14163,0.0875 -0.25751,0.62837 -0.25751,1.20186 0,0.86228 0.0905,1.04272 0.52307,1.04272 0.28769,0 0.72526,0.30859 0.97239,0.68576 0.39629,0.60481 0.41115,0.8781 0.12592,2.3151 -0.17788,0.89614 -0.39023,2.1056 -0.47189,2.68768 -0.0817,0.58208 -0.298,1.23693 -0.48074,1.45521 -0.18275,0.21828 -0.34481,0.84298 -0.36013,1.38821 -0.0215,0.76466 0.15179,1.17512 0.7578,1.79506 0.49341,0.50476 0.78567,1.07979 0.78567,1.54588 0,0.53488 0.18474,0.82633 0.66145,1.04354 0.51418,0.23428 0.66146,0.49898 0.66146,1.18881 0,0.715 0.20263,1.05027 1.04282,1.72547 0.57355,0.46092 1.29575,0.83803 1.60489,0.83803 0.83446,0 1.58563,0.48393 1.58563,1.02152 0,0.57634 1.06394,1.62431 1.64905,1.62431 0.87656,0 1.26136,0.32986 1.26136,1.08126 0,0.6171 -0.19406,0.85907 -1.03167,1.28639 -1.03442,0.52772 -2.14333,1.95187 -2.14333,2.75264 0,0.23519 -0.34772,0.81645 -0.77272,1.29168 l -0.77273,0.86407 h -5.11425 c -4.82908,0 -5.1954,0.0356 -6.56946,0.63896 -0.80037,0.35143 -1.71389,0.86954 -2.03005,1.15137 -0.77454,0.69042 -2.88577,1.64721 -5.07013,2.29774 -1.07928,0.32142 -2.05143,0.80614 -2.43442,1.21381 -0.62677,0.66717 -2.64277,1.70958 -3.3063,1.70958 -0.18601,0 -0.82173,0.40398 -1.4127,0.89772 -0.966456,0.80745 -1.294902,0.91638 -3.266188,1.08325 -1.553012,0.13147 -2.501739,0.36395 -3.255693,0.79779 -0.985853,0.56729 -5.130334,1.71916 -6.185585,1.71916 -0.253516,0 -1.035032,0.55007 -1.736696,1.22239 -0.701665,0.67231 -1.659192,1.32826 -2.127835,1.45766 -0.468643,0.1294 -1.37437,0.58919 -2.012725,1.02175 -1.270227,0.86074 -2.619822,1.03207 -3.14502,0.39924 z m 3.055855,-1.57934 c 0.524098,-0.35566 1.211792,-0.72834 1.528213,-0.82817 0.316418,-0.0998 1.186301,-0.70275 1.933072,-1.3398 1.203137,-1.02638 1.685242,-1.23655 4.233333,-1.84553 1.581563,-0.37799 3.547079,-1.0304 4.367813,-1.44981 1.194237,-0.61027 1.83745,-0.76256 3.220845,-0.76256 1.467302,0 1.849924,-0.10208 2.531197,-0.67534 0.44143,-0.37143 1.52261,-0.96791 2.40264,-1.32549 0.88002,-0.35759 2.14014,-1.06242 2.80025,-1.5663 0.66011,-0.50387 1.70142,-1.04262 2.31402,-1.19721 1.69715,-0.42828 4.39919,-1.60227 5.17917,-2.25026 0.38342,-0.31855 1.48499,-0.89209 2.44792,-1.27455 1.67505,-0.66529 1.95702,-0.69414 6.51822,-0.66673 2.62208,0.0157 4.89685,-0.0514 5.05504,-0.14912 0.15819,-0.0978 0.42197,-0.6767 0.58617,-1.28652 0.18669,-0.6933 0.71968,-1.52988 1.42244,-2.23264 0.92891,-0.9289 1.04489,-1.14895 0.66857,-1.26839 -0.25042,-0.0795 -0.79196,-0.6771 -1.20342,-1.32806 -0.41147,-0.65096 -0.92041,-1.18355 -1.131,-1.18355 -0.53833,0 -3.11435,-1.75014 -3.60311,-2.44795 -0.22352,-0.31912 -0.4064,-0.80448 -0.4064,-1.07858 0,-0.27409 -0.29766,-0.73249 -0.66146,-1.01866 -0.43179,-0.33964 -0.66146,-0.78468 -0.66146,-1.2817 0,-0.41877 -0.15985,-0.85662 -0.35523,-0.97299 -0.59618,-0.3551 -1.23593,-1.53967 -1.19725,-2.21685 0.0201,-0.35231 -0.0501,-0.84441 -0.15597,-1.09355 -0.13267,-0.31213 0.0207,-0.65067 0.49337,-1.08868 0.46292,-0.42902 0.68591,-0.91103 0.68591,-1.48263 0,-0.46582 0.10339,-1.04748 0.22976,-1.29258 0.12637,-0.24509 0.31051,-0.89295 0.40921,-1.43967 0.16064,-0.8898 0.11159,-1.01985 -0.46764,-1.24007 -1.42702,-0.54256 -1.98353,-2.73112 -1.02069,-4.01406 0.26046,-0.34704 0.61765,-0.96402 0.79375,-1.37105 0.39525,-0.91351 0.41897,-3.86049 0.0391,-4.85957 -0.60778,-1.59857 0.108,-3.75489 1.50613,-4.53732 0.47129,-0.26375 0.46717,-0.30704 -0.10244,-1.07748 -0.32639,-0.44148 -0.59345,-0.91499 -0.59345,-1.05226 0,-0.13726 -0.64243,-0.67599 -1.42762,-1.19717 -1.54955,-1.02853 -2.897,-2.95568 -2.75664,-3.94261 0.0567,-0.39878 0.35698,-0.6658 0.94261,-0.83821 1.12723,-0.33186 1.2672,-0.89533 0.57586,-2.31831 l -0.56798,-1.16906 0.55855,-1.15607 c 0.30721,-0.63584 0.55856,-1.48387 0.55856,-1.88451 0,-0.40064 0.11906,-0.80202 0.26458,-0.89196 0.48884,-0.30212 0.27044,-1.35746 -0.41398,-2.00044 l -0.67856,-0.63748 -1.0275,0.59136 c -0.56513,0.32525 -1.19383,0.59136 -1.3971,0.59136 -0.66978,0 -1.2395,-0.90603 -1.12728,-1.79272 0.14336,-1.13276 0.28703,-1.31299 1.20787,-1.51524 0.8923,-0.19598 0.93516,-0.32188 0.43674,-1.2826 -0.29404,-0.56675 -0.29522,-0.963914 -0.007,-2.345346 0.50525,-2.421524 0.29854,-6.303793 -0.39854,-7.485266 -0.39277,-0.665694 -0.73142,-0.924666 -1.20916,-0.924666 -0.48361,0 -0.78081,-0.233219 -1.09582,-0.859895 -0.50743,-1.009502 -1.23754,-1.673665 -2.4193,-2.200776 -0.46946,-0.209401 -1.04197,-0.745061 -1.27225,-1.190357 -0.38985,-0.753891 -0.38277,-0.885889 0.10288,-1.917322 0.28685,-0.60923 0.60522,-1.52441 0.70749,-2.033733 0.10226,-0.509323 0.30457,-1.073354 0.44956,-1.253403 0.40985,-0.508913 0.0275,-1.129175 -0.6609,-1.0722 -0.34048,0.02818 -1.05633,-0.219014 -1.59078,-0.54932 l -0.97172,-0.600554 -0.89074,0.679405 c -0.48991,0.373674 -1.02305,0.679405 -1.18475,0.679405 -0.31047,0 -1.82478,0.926153 -3.00519,1.837973 -0.88497,0.683607 -1.33552,0.684845 -1.95045,0.0053 -0.4065,-0.449173 -0.77339,-0.529442 -2.22382,-0.486537 -0.955355,0.02826 -2.391852,0.02977 -3.192217,0.0034 -0.800364,-0.02641 -1.802635,-2.41e-4 -2.227265,0.05816 -0.424632,0.0584 -2.329632,-0.07337 -4.233333,-0.292822 -2.524493,-0.291015 -3.747712,-0.325874 -4.51961,-0.128797 -0.666679,0.170212 -3.871124,0.2178 -8.659082,0.128593 -7.286019,-0.13575 -7.607866,-0.120893 -7.77262,0.358741 -0.09453,0.275193 -0.438724,1.095663 -0.764884,1.823267 -0.911394,2.033159 -1.033087,3.385738 -0.413832,4.599581 0.28648,0.561543 0.764379,1.084667 1.061998,1.162497 0.637289,0.166653 0.741288,1.18918 0.144253,1.418283 -0.579247,0.222279 -0.489659,0.569629 0.33073,1.28229 0.636061,0.552537 0.685993,0.700286 0.396875,1.174342 -0.410885,0.673714 -0.429004,2.252708 -0.03431,2.990197 0.399854,0.74713 0.557019,3.576568 0.21056,3.79069 -0.418607,0.258715 0.0038,3.07132 0.554215,3.69046 0.558303,0.62797 0.898488,2.48924 0.552162,3.02104 -0.161041,0.24728 -0.11063,0.57929 0.147865,0.9738 0.35434,0.54079 0.344175,0.64664 -0.105251,1.09607 -0.629524,0.62952 -1.391383,1.71142 -1.391383,1.97587 0,0.11119 0.416718,0.37627 0.926041,0.58908 0.585454,0.24462 0.926042,0.56705 0.926042,0.87668 0,0.26936 0.10024,0.60286 0.222755,0.7411 0.395312,0.44606 1.418686,5.13813 2.244789,10.29213 0.18057,1.12657 -0.215408,1.93569 -1.244444,2.54283 -0.495935,0.29261 -0.96339,0.76792 -1.038791,1.05624 -0.07839,0.29978 -0.643602,0.74829 -1.320088,1.04753 -1.181045,0.52243 -1.498611,1.01169 -1.506443,2.3209 -0.0021,0.33226 -0.308755,1.20628 -0.681709,1.94227 -0.656129,1.29481 -1.422665,4.95016 -1.435693,6.84633 -0.0035,0.50932 -0.242919,1.28323 -0.532043,1.71979 -0.289124,0.43657 -0.526464,0.98842 -0.527423,1.22634 -9.52e-4,0.23793 -0.287933,0.62011 -0.637721,0.8493 -0.895613,0.58683 -2.390927,3.29675 -2.321546,4.20728 0.03123,0.40989 -0.06665,0.97589 -0.217516,1.25778 -0.352792,0.6592 0.625571,5.59513 1.341287,6.76692 0.273407,0.44763 0.686624,1.63107 0.918262,2.62987 0.231637,0.99881 0.591915,2.22468 0.800616,2.72417 0.208707,0.49951 0.379463,1.25083 0.379463,1.66962 0,0.4188 0.121615,0.76144 0.270256,0.76144 0.148641,0 0.401584,0.28824 0.562095,0.64052 0.173975,0.38183 0.440747,0.58338 0.660539,0.49904 0.518867,-0.19911 1.917367,0.42793 2.221389,0.996 0.13996,0.26152 0.254471,0.77926 0.254471,1.15054 0,0.37128 0.143931,1.21319 0.319845,1.87092 0.271393,1.01471 0.258577,1.25712 -0.08461,1.60031 -0.334722,0.33472 -0.357,0.6361 -0.129217,1.74806 0.252785,1.23402 0.228759,1.38123 -0.294622,1.80504 -0.562882,0.45579 -0.551455,0.46522 0.933855,0.76992 4.383567,0.89926 5.991186,1.38662 6.864506,2.08102 2.662201,2.11679 2.967879,2.18187 4.706514,1.002 z"
         id="path724" />
      <path
         style="fill:#009a44;fill-opacity:1;stroke-width:0.264583"
         d="m 77.717319,176.86687 c -1.841244,-1.51292 -2.646918,-1.88327 -4.91762,-2.2605 -5.966958,-0.99127 -9.634464,-1.95027 -9.634464,-2.51925 0,-0.57712 1.138964,-1.02719 1.759302,-0.69519 0.342087,0.18308 0.658659,0.18244 0.988235,-0.002 0.266702,-0.14925 0.941051,-0.19843 1.498552,-0.10928 0.557501,0.0891 1.070925,0.0694 1.140939,-0.0439 0.07001,-0.11329 -0.0093,-0.71759 -0.176165,-1.3429 -0.253616,-0.95017 -0.233487,-1.25885 0.122542,-1.87919 0.267279,-0.46571 0.340379,-0.87745 0.196186,-1.10507 -0.126402,-0.19943 -0.233468,-0.71988 -0.237924,-1.15644 -0.01262,-1.23733 -0.375309,-1.5875 -1.644205,-1.5875 -0.922142,0 -1.182699,-0.11118 -1.395098,-0.59531 -0.143647,-0.32742 -0.40927,-0.59531 -0.590271,-0.59531 -0.356978,0 -0.516127,-0.53811 -0.704269,-2.38125 -0.169094,-1.65654 -0.892421,-4.427 -1.485195,-5.68855 -1.268917,-2.70052 -2.094002,-6.59757 -1.594459,-7.53097 0.167736,-0.31342 0.234056,-0.89275 0.147376,-1.2874 -0.118918,-0.54143 0.08782,-1.12131 0.842281,-2.36259 0.549935,-0.90477 1.180403,-1.85481 1.401041,-2.11121 0.815832,-0.94803 1.842056,-2.95139 1.700637,-3.31992 -0.08027,-0.20919 0.03906,-1.17811 0.265188,-2.15315 0.226128,-0.97504 0.411141,-2.04825 0.411141,-2.38492 0,-0.33666 0.315146,-1.31154 0.700325,-2.16639 0.385179,-0.85486 0.796465,-2.13085 0.913969,-2.83554 0.252965,-1.51708 0.526777,-1.89275 1.884397,-2.58535 0.5613,-0.28636 1.129697,-0.80773 1.263102,-1.15862 0.133406,-0.35088 0.604859,-0.82532 1.047674,-1.05431 0.647006,-0.33458 0.804079,-0.58387 0.799835,-1.26944 -0.0046,-0.74364 -0.703739,-4.64022 -1.573956,-8.77236 -0.31451,-1.49342 -0.909479,-2.53178 -1.450671,-2.53178 -0.204533,0 -0.563994,-0.19212 -0.798803,-0.42693 -0.566299,-0.5663 -0.367083,-1.739 0.485246,-2.85646 0.504859,-0.6619 0.592706,-0.94904 0.361177,-1.18057 -0.223234,-0.22323 -0.229767,-0.50773 -0.02416,-1.05242 0.372052,-0.98568 0.16242,-2.27904 -0.460814,-2.84306 -0.275812,-0.24961 -0.509847,-0.82233 -0.520075,-1.27272 -0.01024,-0.45038 -0.114075,-1.05701 -0.230773,-1.34805 -0.127957,-0.31913 -0.0797,-0.791715 0.121571,-1.190628 0.402569,-0.797864 0.347393,-2.667677 -0.119933,-4.064219 -0.206153,-0.616067 -0.27709,-1.50953 -0.178721,-2.251073 0.14051,-1.059214 0.08684,-1.277191 -0.387371,-1.573342 -0.460941,-0.287864 -0.52256,-0.50904 -0.378825,-1.359794 0.110548,-0.654336 0.06303,-1.083151 -0.133495,-1.204608 -0.471866,-0.291621 -1.319702,-2.46053 -1.319702,-3.375988 0,-0.714995 0.533006,-2.183099 1.341871,-3.696031 0.135096,-0.252688 0.245629,-0.754515 0.245629,-1.115171 0,-1.217324 0.586846,-1.304737 9.128125,-1.359652 4.365625,-0.02807 8.610594,-0.133836 9.433266,-0.23504 1.044972,-0.12855 1.682893,-0.07937 2.116667,0.163195 0.584901,0.32707 3.692969,0.46431 11.09091,0.489726 1.469176,0.0051 2.439056,0.132921 2.753816,0.363082 0.41798,0.305636 0.63173,0.272455 1.52935,-0.237403 0.5739,-0.325982 1.18287,-0.873932 1.35326,-1.217668 0.21776,-0.439293 0.57895,-0.650758 1.21574,-0.711766 0.49826,-0.04774 1.04324,-0.274571 1.21106,-0.504076 0.39986,-0.546833 2.09389,-0.294833 2.86981,0.426905 0.37006,0.344212 0.78678,0.473639 1.23997,0.385112 0.53083,-0.103691 0.78647,0.02519 1.14974,0.579599 0.25692,0.392112 0.4083,0.967668 0.3364,1.279011 -0.19703,0.853128 -0.72715,2.326241 -1.13977,3.167206 -0.68152,1.389046 -0.49282,1.850813 1.21504,2.973313 0.87497,0.575088 1.71466,1.358826 1.87804,1.752918 0.21804,0.525957 0.51359,0.733999 1.12759,0.79375 0.60415,0.05879 0.92716,0.280294 1.17911,0.808577 0.19085,0.400182 0.51207,0.727604 0.71383,0.727604 0.60258,0 0.68852,0.424791 0.34543,1.707576 -0.28705,1.073235 -0.26692,1.324237 0.17147,2.138283 0.39812,0.739267 0.43768,1.039897 0.19933,1.51479 -0.16355,0.325861 -0.43576,1.332322 -0.6049,2.236581 -0.26184,1.399812 -0.24333,1.804593 0.12464,2.724221 0.46647,1.16582 0.23831,2.11397 -0.50869,2.11397 -0.21316,0 -0.38756,0.10997 -0.38756,0.24438 0,0.1344 0.5449,0.2237 1.21088,0.19843 1.08795,-0.0413 1.30334,0.0549 2.12139,0.94752 0.74073,0.80821 0.87815,1.12889 0.73701,1.71979 -0.0954,0.39948 -0.26119,0.8454 -0.36836,0.99092 -0.10717,0.14552 -0.26075,0.62177 -0.34129,1.05833 -0.0805,0.43656 -0.29627,1.29069 -0.4794,1.89806 -0.28973,0.96096 -0.27118,1.24132 0.14295,2.15969 0.58679,1.30125 0.31256,2.39494 -0.72762,2.902 -0.38943,0.18984 -0.70806,0.51312 -0.70806,0.7184 0,0.55974 1.42588,2.07336 2.49614,2.64973 0.51889,0.27945 0.94344,0.58215 0.94344,0.67268 0,0.0905 0.35502,0.68853 0.78893,1.3289 1.05157,1.55188 1.0292,2.23669 -0.0947,2.89983 -0.69753,0.41156 -0.92954,0.7536 -1.05859,1.56067 -0.0909,0.56847 -0.0461,1.34706 0.0996,1.73018 0.47643,1.2531 0.32399,4.67368 -0.26237,5.8873 -0.28996,0.60017 -0.64715,1.16534 -0.79375,1.25594 -0.29603,0.18296 -0.354,1.1852 -0.10593,1.83165 0.0883,0.23018 0.44846,0.41851 0.8003,0.41851 1.01827,0 1.28387,1.08477 0.77737,3.175 -0.22921,0.94589 -0.41643,2.04722 -0.41605,2.4474 2.7e-4,0.40018 -0.2082,0.9365 -0.46352,1.19181 -0.40069,0.4007 -0.50044,1.11385 -0.3499,2.50165 0.0112,0.10325 0.30954,0.46044 0.66298,0.79375 0.35343,0.33331 0.68085,0.96233 0.7276,1.39781 0.0603,0.56195 0.30089,0.89481 0.82875,1.14666 0.61326,0.2926 0.71855,0.47863 0.60011,1.06029 -0.079,0.38798 0.004,0.88402 0.1853,1.1023 0.59122,0.7133 2.12108,1.67036 2.93672,1.83718 0.58192,0.11901 0.94596,0.44575 1.34139,1.20392 0.40039,0.76768 0.75695,1.08409 1.35957,1.20647 0.44926,0.0913 0.95528,0.25146 1.12448,0.35603 0.54502,0.33684 0.32808,1.19235 -0.41997,1.6562 -1.34459,0.83374 -2.18951,1.7783 -2.4474,2.73603 -0.14088,0.52319 -0.62341,1.30276 -1.07229,1.7324 l -0.81614,0.78114 -4.71781,-0.0724 c -5.12736,-0.0786 -6.45922,0.17946 -8.51661,1.65037 -1.27314,0.91022 -3.50643,1.93659 -5.14482,2.36443 -0.77951,0.20356 -1.92061,0.769 -2.53578,1.25654 -1.10475,0.87555 -2.89924,1.81005 -3.48534,1.81504 -0.16601,0.001 -0.8246,0.41813 -1.46355,0.92604 -1.077997,0.85693 -1.295588,0.92348 -3.019462,0.92348 -1.536816,0 -2.066467,0.12231 -3.065928,0.70804 -0.664499,0.38942 -1.627458,0.79913 -2.139913,0.91046 -3.576296,0.77696 -4.98947,1.22331 -5.556232,1.75493 -0.349059,0.32743 -0.723246,0.59532 -0.831519,0.59532 -0.108275,0 -0.264623,0.21348 -0.347438,0.47441 -0.09022,0.28427 -0.614944,0.59861 -1.309216,0.7843 -0.637254,0.17044 -1.512427,0.60758 -1.944828,0.97142 -0.432398,0.36384 -1.250259,0.72672 -1.817465,0.80641 -0.929426,0.13058 -1.175017,0.0268 -2.486493,-1.05084 z m 3.73463,-0.36184 c 0.347046,-0.27104 1.149462,-0.75606 1.783147,-1.07783 0.633682,-0.32176 1.799174,-1.11203 2.589982,-1.75615 0.790808,-0.64413 1.681252,-1.17113 1.978766,-1.17113 1.040588,0 4.693216,-1.06335 6.358043,-1.85094 1.301306,-0.61562 2.047108,-0.79453 3.312734,-0.79469 1.364996,-1.7e-4 1.76521,-0.11116 2.435942,-0.67555 0.441427,-0.37143 1.522617,-0.96791 2.402637,-1.32549 0.88003,-0.35759 2.1445,-1.06575 2.80994,-1.57369 0.66544,-0.50794 1.52815,-0.99372 1.91714,-1.07952 2.13989,-0.47196 4.25362,-1.37737 5.20516,-2.22962 0.29105,-0.26068 1.30308,-0.81279 2.24896,-1.22692 1.67802,-0.73467 1.81941,-0.75126 5.82084,-0.68318 5.47146,0.0931 6.3001,-0.0272 6.51258,-0.94574 0.25498,-1.10225 1.37947,-2.91852 2.09868,-3.38976 0.72021,-0.47191 0.8499,-0.89365 0.27481,-0.89365 -0.20589,0 -0.81134,-0.59532 -1.34545,-1.32292 -0.69067,-0.94088 -1.15182,-1.32292 -1.59689,-1.32292 -0.34418,0 -0.72099,-0.16246 -0.83736,-0.36103 -0.11637,-0.19856 -0.59652,-0.55777 -1.067,-0.79823 -0.82615,-0.42224 -1.65812,-1.60305 -1.65812,-2.35335 0,-0.20015 -0.29877,-0.64457 -0.66392,-0.98761 -0.38358,-0.36036 -0.60658,-0.80439 -0.52811,-1.0516 0.0802,-0.25283 -0.22268,-0.81925 -0.74043,-1.3845 -0.73949,-0.80734 -0.87936,-1.1645 -0.89632,-2.28866 -0.0149,-0.98649 0.10919,-1.44904 0.4783,-1.78307 0.27412,-0.24808 0.50019,-0.76001 0.50238,-1.13764 0.002,-0.37763 0.17556,-1.16285 0.38526,-1.74493 0.60226,-1.67172 0.52342,-2.42633 -0.27439,-2.62657 -0.87006,-0.21837 -1.54178,-1.72153 -1.28723,-2.88049 0.0993,-0.45212 0.43348,-1.16384 0.74261,-1.5816 0.57436,-0.77619 0.63647,-1.81003 0.44039,-7.33113 -0.0486,-1.36689 0.006,-1.50509 0.89489,-2.277 1.0919,-0.94797 1.14226,-1.16805 0.4174,-1.82405 -0.29104,-0.26339 -0.52917,-0.63922 -0.52917,-0.83519 0,-0.19597 -0.59919,-0.78679 -1.33155,-1.31293 -1.54632,-1.11092 -2.97367,-3.03991 -2.85313,-3.85585 0.0557,-0.37717 0.39271,-0.66926 1.00968,-0.87519 1.06851,-0.35664 1.32292,-1.12031 0.67933,-2.03916 -0.53122,-0.75843 -0.52497,-1.56586 0.0217,-2.79799 0.24004,-0.54102 0.41224,-1.1856 0.38267,-1.43238 -0.0296,-0.24678 0.13123,-0.80642 0.35733,-1.24363 0.51427,-0.99449 0.5302,-0.88 -0.23775,-1.70862 -0.78978,-0.85219 -1.19848,-0.87092 -2.5117,-0.11513 -1.37973,0.79408 -1.92631,0.38545 -1.81315,-1.35554 0.0736,-1.13208 0.13232,-1.21963 0.87263,-1.30031 1.14037,-0.12428 1.34108,-0.43821 0.80413,-1.25771 -0.45888,-0.70034 -0.45867,-0.807943 0.006,-3.285991 0.0683,-0.363802 0.12555,-1.813922 0.12729,-3.222487 0.004,-2.96227 -0.50094,-4.215019 -1.79348,-4.452721 -0.49096,-0.09029 -0.89552,-0.438616 -1.22919,-1.058333 -0.29191,-0.54215 -1.13698,-1.333966 -2.04569,-1.916769 -1.78235,-1.143119 -2.09651,-1.848128 -1.48066,-3.322844 0.48486,-1.161039 1.24559,-3.605278 1.24559,-4.002082 0,-0.154556 -0.40214,-0.281014 -0.89365,-0.281014 -0.4915,0 -1.03803,-0.173982 -1.21451,-0.386628 -0.58647,-0.706644 -1.26896,-0.717775 -2.3454,-0.03825 -0.5745,0.362672 -1.1269,0.577059 -1.22755,0.476414 -0.10064,-0.100648 -0.32249,0.0078 -0.49298,0.240945 -0.1705,0.233167 -0.81561,0.681885 -1.43358,0.997151 -0.61797,0.315265 -1.12358,0.69359 -1.12358,0.840719 0,0.538554 -0.77684,0.54392 -1.5032,0.01037 -0.41508,-0.304895 -1.15638,-0.549264 -1.671801,-0.551117 -0.509323,-0.0019 -1.223698,-0.0013 -1.5875,0.0011 -5.094843,0.03354 -10.280076,-0.206941 -10.811894,-0.501425 -0.420367,-0.23277 -0.940879,-0.279186 -1.5875,-0.14156 -0.529135,0.11262 -4.474408,0.215775 -8.767273,0.229232 -8.728427,0.02736 -8.73125,0.02751 -8.73125,0.45039 0,0.167396 -0.314846,0.94788 -0.699656,1.734404 -1.050535,2.147213 -1.211838,3.422113 -0.587751,4.645425 0.283366,0.555442 0.808016,1.143307 1.165892,1.306364 0.741087,0.337664 0.831569,0.790366 0.253807,1.269865 -0.529135,0.439142 -0.501775,0.973288 0.06614,1.29136 0.375259,0.210169 0.46821,0.651468 0.4904,2.328251 0.01505,1.137912 0.155851,2.769995 0.31287,3.62685 0.239686,1.307963 0.218657,1.659919 -0.131056,2.193653 -0.338002,0.515853 -0.358037,0.764146 -0.106251,1.316748 0.170661,0.37456 0.235511,0.91664 0.14411,1.20462 -0.114821,0.36177 0.05705,0.7566 0.556094,1.27749 0.648483,0.67687 0.70858,0.89641 0.588237,2.14884 -0.07431,0.7734 -0.0094,1.59459 0.14577,1.843 0.222533,0.35633 0.107389,0.64441 -0.562528,1.4074 -1.054113,1.20057 -1.071692,1.7967 -0.0642,2.17699 0.912591,0.34446 1.349053,1.25028 1.962055,4.07199 1.815296,8.35601 1.852322,8.89479 0.679093,9.882 -0.447725,0.37673 -0.915697,0.68497 -1.039929,0.68497 -0.124235,0 -0.26393,0.26678 -0.31043,0.59284 -0.05695,0.39931 -0.456116,0.76854 -1.22273,1.13104 -1.283155,0.60675 -1.628889,1.02461 -1.638477,1.98029 -0.0037,0.3638 -0.310796,1.31491 -0.682548,2.11357 -0.707712,1.52043 -1.522897,5.20655 -1.551269,7.01455 -0.0091,0.58209 -0.224967,1.35272 -0.479628,1.71252 -0.254662,0.3598 -0.463021,0.86307 -0.463021,1.11838 0,0.25531 -0.291884,0.65545 -0.648632,0.8892 -0.94851,0.62148 -2.338558,3.2214 -2.467032,4.61428 -0.269489,2.92172 0.288607,6.42127 1.290071,8.08939 0.268563,0.44734 0.618656,1.45937 0.777986,2.24895 0.159329,0.78959 0.460221,1.88451 0.668649,2.43316 0.208427,0.54865 0.378958,1.40383 0.378958,1.9004 0,0.67049 0.136194,0.94608 0.529167,1.07081 0.301464,0.0957 0.529166,0.40032 0.529166,0.70797 0,0.43073 0.122646,0.50924 0.606041,0.38791 0.770618,-0.19343 2.304376,0.71055 2.304376,1.35816 0,0.2626 0.181544,1.17446 0.403429,2.02633 0.366098,1.40555 0.364328,1.59207 -0.0191,2.01578 -0.347776,0.38429 -0.372608,0.64674 -0.140319,1.48328 0.440534,1.58651 0.360129,1.93645 -0.531024,2.31115 l -0.816198,0.34318 1.676093,0.32761 c 5.689466,1.11205 6.360049,1.3238 7.496927,2.36737 1.843408,1.69211 3.003195,2.00859 4.131506,1.12739 z"
         id="path722" />
      <path
         style="fill:#009a44;fill-opacity:1;stroke-width:0.264583"
         d="m 78.511069,177.34361 c -0.509323,-0.35367 -1.225386,-0.92872 -1.591249,-1.27788 -0.80476,-0.76802 -2.449714,-1.37752 -4.307647,-1.59609 -1.927403,-0.22675 -8.305986,-1.64231 -8.947588,-1.98568 -1.320006,-0.70645 0.01817,-1.07167 3.800129,-1.03716 1.379699,0.0126 1.420951,-0.0573 0.9539,-1.61618 -0.253352,-0.84561 -0.231553,-1.11973 0.13334,-1.67663 0.369025,-0.5632 0.390511,-0.86049 0.139509,-1.93022 -0.454231,-1.93585 -0.561938,-2.0573 -1.832786,-2.06646 -0.683458,-0.005 -1.186399,-0.14356 -1.253738,-0.34558 -0.06185,-0.18553 -0.362647,-0.57043 -0.668447,-0.85533 -0.398236,-0.37101 -0.53791,-0.78661 -0.492247,-1.46465 0.03507,-0.52066 -0.1633,-1.5608 -0.440812,-2.31143 -0.277512,-0.75063 -0.585672,-1.92195 -0.684802,-2.60293 -0.09913,-0.68098 -0.394624,-1.51442 -0.656655,-1.85208 -0.262031,-0.33767 -0.548838,-0.91159 -0.637348,-1.27539 -1.068752,-4.39287 -1.229543,-5.3472 -0.979608,-5.81421 0.147472,-0.27555 0.268132,-1.01612 0.268132,-1.6457 0,-0.93422 0.231089,-1.47878 1.256771,-2.96157 2.318369,-3.35159 2.641637,-3.98196 2.671562,-5.20958 0.01569,-0.64349 0.150259,-1.58592 0.299052,-2.09428 0.148792,-0.50836 0.270626,-1.28227 0.27074,-1.71979 1.15e-4,-0.43753 0.357303,-1.55033 0.79375,-2.4729 0.436448,-0.92257 0.794206,-1.87507 0.795018,-2.11667 7.94e-4,-0.24159 0.126831,-0.89067 0.280043,-1.4424 0.224266,-0.8076 0.503021,-1.11219 1.430041,-1.56257 0.633309,-0.30768 1.275773,-0.83224 1.4277,-1.16568 0.151923,-0.33344 0.609071,-0.81816 1.015878,-1.07715 1.239163,-0.78892 1.242917,-0.82663 0.469588,-4.71646 -0.202515,-1.01865 -0.446696,-2.4191 -0.542624,-3.11211 -0.09593,-0.69301 -0.279736,-1.32512 -0.408466,-1.40468 -0.128728,-0.0796 -0.234053,-0.47705 -0.234053,-0.8833 0,-1.39192 -0.535152,-2.40052 -1.484056,-2.797 -0.793501,-0.33154 -0.897194,-0.48943 -0.897194,-1.36608 0,-0.71413 0.197882,-1.19775 0.707885,-1.73008 0.646874,-0.6752 0.676981,-0.79662 0.349305,-1.40889 -0.275484,-0.51475 -0.286244,-0.74235 -0.04643,-0.98217 0.571349,-0.57135 0.367771,-1.98541 -0.386525,-2.68484 -0.483089,-0.44794 -0.653788,-0.81949 -0.553204,-1.20413 0.08001,-0.30595 0.0136,-0.90565 -0.147582,-1.33266 -0.219223,-0.580787 -0.213095,-0.930029 0.02432,-1.386263 0.333044,-0.640003 0.267096,-2.533417 -0.168688,-4.843216 -0.160219,-0.849207 -0.156861,-1.498354 0.0094,-1.812854 0.20251,-0.383122 0.107545,-0.647988 -0.435581,-1.214887 -0.589502,-0.61531 -0.65464,-0.829911 -0.430696,-1.418926 0.181692,-0.477893 0.175413,-0.748631 -0.02016,-0.869506 -0.156207,-0.09654 -0.558325,-0.795795 -0.893594,-1.553898 -0.608275,-1.375418 -0.692011,-2.99906 -0.188968,-3.664082 0.326941,-0.432215 1.072558,-2.555475 1.172428,-3.338661 0.05816,-0.456128 0.313325,-0.709072 0.875824,-0.868211 0.436562,-0.12351 4.1275,-0.212831 8.202083,-0.198491 4.074583,0.01434 8.122708,-0.07209 8.995833,-0.192063 1.137812,-0.156348 2.037189,-0.109406 3.175,0.165716 1.168874,0.282633 3.010718,0.369118 6.984569,0.327964 4.405489,-0.04562 5.507649,0.01656 5.998909,0.338447 0.55081,0.360905 0.70341,0.337566 1.79988,-0.275259 0.65893,-0.368281 1.26949,-0.894712 1.35682,-1.169847 0.17519,-0.551977 1.02354,-0.926031 1.47184,-0.648967 0.15759,0.0974 0.562,-0.0817 0.89869,-0.397997 0.54569,-0.512652 0.72693,-0.544182 1.66938,-0.290404 0.58148,0.156575 1.20055,0.457366 1.37571,0.668427 0.19868,0.239392 0.58351,0.331097 1.02301,0.243782 0.58019,-0.115263 0.78996,0.0053 1.18858,0.682974 0.51748,0.879753 0.45553,1.159579 -1.04362,4.713949 -0.53586,1.270487 -0.46187,1.581745 0.49342,2.075741 1.39629,0.722037 2.34188,1.505543 2.73843,2.26904 0.25583,0.492559 0.6603,0.769872 1.29713,0.889342 0.50896,0.09548 0.92538,0.286128 0.92538,0.423656 0,0.13753 0.36871,0.586819 0.81936,0.998423 0.69488,0.634667 0.77527,0.83076 0.52917,1.290609 -0.41763,0.780346 -0.3571,2.308791 0.10668,2.693691 0.42128,0.349634 0.53954,1.219176 0.18591,1.367015 -0.11603,0.04851 -0.3902,0.934752 -0.60927,1.969434 -0.35056,1.655741 -0.35198,2.008312 -0.0118,2.941322 0.43968,1.2059 0.27518,1.9119 -0.49223,2.11258 -0.97226,0.25425 -0.54115,0.60548 0.74319,0.60548 1.09037,0 1.3912,0.124 2.11666,0.87249 0.90985,0.93873 1.07968,1.88133 0.48539,2.69407 -0.19815,0.27099 -0.30316,0.7111 -0.23336,0.97802 0.0698,0.26693 0.0111,0.63352 -0.13051,0.81465 -0.14158,0.18112 -0.39129,0.72695 -0.55491,1.21296 -0.23967,0.71191 -0.21786,1.03762 0.11224,1.67595 0.22534,0.43577 0.4196,1.13982 0.43168,1.56455 0.0229,0.80663 -0.68956,1.82898 -1.27464,1.82898 -1.22183,0 -0.13889,1.96599 1.75094,3.17869 0.7225,0.46363 1.46326,1.11373 1.64613,1.44466 0.18287,0.33094 0.54698,0.97983 0.80914,1.44198 0.58125,1.02467 0.42683,1.6034 -0.58021,2.17449 -0.93064,0.52777 -1.24871,1.91541 -0.8428,3.67688 0.44711,1.94022 0.34767,4.12092 -0.24049,5.2738 -0.28896,0.56642 -0.64615,1.10448 -0.79375,1.1957 -0.14758,0.0912 -0.26834,0.63882 -0.26834,1.21688 0,0.77008 0.12377,1.08927 0.46302,1.19411 1.35143,0.4176 1.71394,1.16381 1.33631,2.75073 -0.12121,0.50932 -0.34851,1.58088 -0.50513,2.38125 -0.15662,0.80036 -0.41719,1.61583 -0.57905,1.81215 -0.16186,0.19632 -0.31773,0.81307 -0.34639,1.37057 -0.0406,0.78902 0.11802,1.20418 0.71561,1.87353 0.45484,0.50945 0.76771,1.15806 0.76771,1.59154 0,0.53383 0.19674,0.82977 0.72761,1.09449 0.40018,0.19956 0.69047,0.5258 0.64509,0.72499 -0.27505,1.20727 1.69795,3.17439 3.18389,3.17439 0.57298,0 0.81273,0.17038 1.02383,0.72761 0.42143,1.11234 1.308,1.91823 2.11031,1.91823 1.42659,0 1.2533,1.33321 -0.27461,2.11269 -1.10328,0.56285 -1.79526,1.46687 -2.03311,2.65612 -0.0878,0.43879 -0.53116,1.11058 -0.98535,1.49287 l -0.82578,0.69507 -4.30229,-0.16161 c -3.81045,-0.14314 -4.49364,-0.10251 -5.97616,0.35539 -0.92063,0.28436 -2.08022,0.81283 -2.57688,1.17439 -1.53534,1.1177 -5.38172,2.78758 -6.42088,2.78758 -0.187,0 -0.82665,0.41655 -1.42144,0.92566 -0.59478,0.50912 -1.77707,1.18377 -2.62731,1.49922 -0.85023,0.31546 -1.86001,0.86095 -2.24394,1.21221 -0.795791,0.72804 -2.166597,1.10994 -4.017019,1.11909 -0.886624,0.004 -1.733614,0.24404 -2.778125,0.78605 -0.826447,0.42886 -2.654014,1.03417 -4.061259,1.34514 -2.327169,0.51425 -2.662674,0.66797 -3.708739,1.69925 -0.632558,0.62363 -1.528109,1.21689 -1.990108,1.31836 -0.462002,0.10147 -1.293384,0.51291 -1.847514,0.91431 -1.457076,1.05546 -2.396421,1.15534 -3.521051,0.3744 z m 3.042708,-0.8861 c 0.291042,-0.25701 0.96379,-0.64627 1.494996,-0.86501 0.531204,-0.21875 1.613845,-0.92554 2.405865,-1.57065 1.264057,-1.02959 1.760365,-1.243 4.061256,-1.74634 1.441669,-0.31538 3.335591,-0.92198 4.208716,-1.348 1.148385,-0.56033 2.121067,-0.81191 3.516456,-0.90951 1.523182,-0.10655 2.087078,-0.26798 2.680644,-0.76743 0.41343,-0.34788 1.4504,-0.91508 2.30438,-1.26044 0.85398,-0.34536 2.06283,-1.01594 2.68633,-1.49018 0.6235,-0.47424 1.99272,-1.11771 3.04271,-1.42994 2.02596,-0.60245 4.27148,-1.63651 4.557,-2.0985 0.16665,-0.26964 1.40315,-0.87529 3.30519,-1.61892 0.69017,-0.26983 2.08402,-0.34042 5.47243,-0.27713 2.81962,0.0527 4.74239,-0.02 5.06244,-0.19127 0.29165,-0.15609 0.59352,-0.68917 0.69422,-1.22593 0.11841,-0.6312 0.61683,-1.40484 1.486,-2.30659 0.7193,-0.74627 1.30783,-1.39367 1.30783,-1.43868 0,-0.045 -0.22572,-0.0818 -0.50159,-0.0818 -0.31232,0 -0.8219,-0.49917 -1.3505,-1.32292 -0.60405,-0.94134 -1.01991,-1.32292 -1.44178,-1.32292 -0.32608,0 -0.80837,-0.23812 -1.07176,-0.52916 -0.26339,-0.29105 -0.60275,-0.52917 -0.75413,-0.52917 -0.5794,0 -1.75941,-1.43241 -1.75941,-2.13574 0,-0.46944 -0.22645,-0.86219 -0.66146,-1.14722 -0.42427,-0.278 -0.66146,-0.6796 -0.66146,-1.11998 0,-0.38558 -0.34798,-1.08291 -0.79375,-1.59061 -0.4894,-0.5574 -0.79375,-1.19655 -0.79375,-1.66693 0,-0.4196 -0.0638,-0.92922 -0.14182,-1.1325 -0.078,-0.20328 0.1697,-0.70573 0.55045,-1.11657 0.43256,-0.46675 0.64233,-0.938 0.55913,-1.25614 -0.0732,-0.28004 0.0363,-0.91459 0.2433,-1.41011 0.20704,-0.49553 0.37644,-1.32444 0.37644,-1.84204 0,-0.75412 -0.12822,-0.98984 -0.64537,-1.18646 -0.35495,-0.13495 -0.77167,-0.48137 -0.92604,-0.76981 -0.40558,-0.75782 -0.34595,-2.55692 0.0969,-2.92447 1.00983,-0.83809 1.26798,-3.12458 0.81118,-7.18494 -0.21353,-1.89807 0.17924,-2.96052 1.21615,-3.28962 0.27802,-0.0882 0.5055,-0.33957 0.5055,-0.55851 0,-0.82101 -1.34583,-2.63492 -2.48411,-3.34811 -1.46794,-0.91972 -3.0317,-3.21201 -2.62789,-3.85218 0.1498,-0.23748 0.64117,-0.53756 1.09195,-0.66684 1.01836,-0.29206 1.15236,-0.81299 0.53336,-2.07349 -0.61262,-1.2475 -0.60493,-1.72401 0.045,-2.79001 0.2888,-0.47368 0.51357,-1.12852 0.49948,-1.45521 -0.0141,-0.32668 0.13092,-0.97686 0.32226,-1.44484 0.31997,-0.78262 0.29735,-0.90465 -0.28201,-1.52135 -0.73937,-0.78703 -1.50765,-0.84768 -2.62781,-0.20747 -1.03182,0.58973 -1.71175,0.22942 -1.83049,-0.97 -0.10606,-1.07129 0.33117,-1.60968 1.30721,-1.60968 0.87508,0 0.92975,-0.22981 0.33041,-1.38882 -0.37075,-0.716945 -0.38267,-0.964595 -0.0853,-1.772794 0.21801,-0.592563 0.33544,-2.070965 0.31804,-4.003976 -0.0319,-3.539221 -0.47774,-4.807112 -1.7432,-4.956908 -0.48635,-0.05757 -0.84311,-0.348578 -1.13527,-0.926042 -0.50794,-1.003961 -1.49845,-1.898616 -2.67966,-2.420329 -1.26171,-0.557268 -1.5258,-1.488456 -0.89568,-3.158188 0.75989,-2.013609 1.0958,-3.175085 1.0958,-3.788982 0,-0.456165 -0.15637,-0.545907 -0.9138,-0.524438 -0.52013,0.01474 -1.12751,-0.167511 -1.40989,-0.423061 -0.65481,-0.592593 -1.26592,-0.566571 -2.19271,0.09336 -0.4189,0.298284 -0.91419,0.507299 -1.10064,0.464482 -0.18645,-0.04282 -0.57647,0.134204 -0.86671,0.393382 -0.29024,0.259175 -1.08896,0.879528 -1.77493,1.378561 l -1.24721,0.907331 -0.80787,-0.679773 c -0.68645,-0.577612 -0.97617,-0.655455 -1.927779,-0.517954 -0.615956,0.089 -1.298514,0.158573 -1.516796,0.154602 -0.218281,-0.004 -2.480468,-0.03963 -5.027083,-0.07923 -3.183919,-0.04952 -4.824968,-0.17953 -5.253717,-0.416226 -0.419357,-0.231516 -1.025772,-0.284137 -1.852084,-0.160714 -0.675717,0.100931 -4.709297,0.166259 -8.963514,0.145177 -7.757398,-0.03844 -8.801518,0.06816 -8.801518,0.898607 0,0.201369 -0.167579,0.703197 -0.372401,1.115171 -1.227587,2.469169 -1.39696,3.720942 -0.690767,5.105197 0.299615,0.587293 0.638641,1.067808 0.753391,1.067808 0.11475,0 0.439753,0.168997 0.722228,0.375552 0.502798,0.36766 0.499893,0.390133 -0.13828,1.069443 l -0.651869,0.693891 0.778544,0.620789 c 0.733875,0.585171 0.757013,0.661022 0.40327,1.321996 -0.312375,0.583676 -0.32004,0.932323 -0.04574,2.08008 0.181242,0.758381 0.355727,1.818519 0.387741,2.355864 0.03202,0.537344 0.141288,1.060066 0.242827,1.161605 0.101537,0.101536 -0.01281,0.518827 -0.254108,0.927306 -0.349412,0.591508 -0.378548,0.87476 -0.143124,1.391461 0.162576,0.35681 0.228693,0.90458 0.146926,1.21726 -0.09733,0.3722 0.04947,0.77942 0.425159,1.17931 0.687485,0.7318 0.985951,2.25873 0.58716,3.00387 -0.222308,0.41539 -0.198752,0.61154 0.103561,0.86244 0.560514,0.46519 0.47852,0.8215 -0.383612,1.66696 -1.256527,1.23223 -1.216046,2.09168 0.11012,2.33783 0.396745,0.0736 0.694994,0.61644 1.215009,2.21128 0.90937,2.78897 2.209033,9.69564 1.989251,10.57132 -0.09482,0.3778 -0.539649,0.91025 -0.988507,1.18321 -0.448858,0.27297 -0.95513,0.77516 -1.125048,1.11598 -0.169918,0.34082 -0.856295,0.87955 -1.525286,1.19716 -1.122881,0.53311 -1.230336,0.67079 -1.398452,1.79188 -0.100161,0.66792 -0.455724,1.83694 -0.790139,2.59781 -0.640642,1.45763 -1.475969,5.48159 -1.475058,7.10571 2.91e-4,0.53095 -0.176786,1.10695 -0.396337,1.28916 -0.218281,0.18116 -0.396875,0.55201 -0.396875,0.82411 0,0.2721 -0.356668,0.81252 -0.792595,1.20093 -1.142467,1.01795 -2.382405,3.34472 -2.382405,4.47064 0,0.52109 -0.108006,1.14925 -0.240013,1.39591 -0.296239,0.55353 0.730821,5.3137 1.437076,6.6605 0.587216,1.11979 1.707478,4.99247 1.895784,6.5536 0.08942,0.74133 0.308862,1.22203 0.638373,1.39837 0.276162,0.1478 0.502113,0.42745 0.502113,0.62145 0,0.21204 0.426264,0.40991 1.068711,0.49608 0.58779,0.0788 1.220575,0.26938 1.406191,0.42343 0.185613,0.15404 0.492837,1.23672 0.682715,2.40595 0.274836,1.69237 0.278379,2.20643 0.01738,2.52092 -0.255569,0.30793 -0.260236,0.66359 -0.02117,1.613 0.390093,1.54921 0.120729,1.90536 -1.521259,2.01137 -1.316817,0.085 -0.998723,0.17513 5.965523,1.68987 1.050253,0.22843 2.300409,0.70241 2.778125,1.05329 3.154707,2.31711 3.660024,2.46613 4.837327,1.42651 z"
         id="path720" />
      <path
         style="fill:#009a44;fill-opacity:1;stroke-width:0.264583"
         d="m 78.246485,177.10616 c -0.509323,-0.36859 -1.223698,-0.9529 -1.5875,-1.29846 -0.884454,-0.8401 -1.764061,-1.14366 -4.185639,-1.44451 -2.278727,-0.28309 -7.445126,-1.39031 -8.623591,-1.84812 -1.300391,-0.50518 -0.404992,-0.91769 2.152254,-0.99154 2.909802,-0.084 3.050732,-0.13672 2.716516,-1.01577 -0.354584,-0.93263 -0.330116,-2.33143 0.04738,-2.70893 0.235622,-0.23563 0.235622,-0.55395 0,-1.34039 -0.169953,-0.56726 -0.309007,-1.27843 -0.309007,-1.58038 0,-0.70687 -0.391927,-0.93571 -1.529302,-0.89295 -1.335229,0.0502 -2.439448,-1.18358 -2.439448,-2.72565 0,-0.62169 -0.187799,-1.5798 -0.417331,-2.12915 -0.229532,-0.54935 -0.523624,-1.6519 -0.653538,-2.45012 -0.129913,-0.79822 -0.406488,-1.64322 -0.61461,-1.87777 -0.616007,-0.69424 -1.574131,-4.28066 -1.562961,-5.85042 0.02558,-3.59521 0.142137,-4.05852 1.531216,-6.08664 2.413037,-3.52315 2.725782,-4.05396 2.592767,-4.40059 -0.268269,-0.6991 0.787421,-5.77848 1.53805,-7.40021 0.418774,-0.90476 0.761407,-1.98623 0.761407,-2.40326 0,-1.01419 0.63286,-1.85997 1.736894,-2.32127 0.499266,-0.20861 1.045893,-0.68247 1.214729,-1.05302 0.168836,-0.37055 0.720828,-0.91791 1.226653,-1.21636 0.905539,-0.53428 0.917186,-0.56379 0.757727,-1.9197 -0.159787,-1.35871 -0.745702,-4.34202 -1.257763,-6.40416 -0.144539,-0.58208 -0.300469,-1.49313 -0.346509,-2.02455 -0.103335,-1.19273 -1.026371,-2.54192 -1.815795,-2.65411 -0.927492,-0.13182 -0.941981,-1.55077 -0.02807,-2.74897 0.623577,-0.81756 0.680246,-1.02819 0.398155,-1.47988 -0.262527,-0.42038 -0.261858,-0.60745 0.0033,-0.92697 0.528794,-0.63716 0.286401,-2.24573 -0.455022,-3.01961 -0.418126,-0.43643 -0.594977,-0.84749 -0.486378,-1.1305 0.09386,-0.24459 0.02387,-0.79905 -0.155517,-1.23214 -0.270799,-0.653769 -0.257448,-0.892314 0.07865,-1.405265 0.335836,-0.512551 0.358121,-0.907298 0.130786,-2.316665 -0.150717,-0.93436 -0.291145,-2.498982 -0.312063,-3.476932 -0.03003,-1.403876 -0.14233,-1.854353 -0.533601,-2.140458 -0.394332,-0.288343 -0.459245,-0.555972 -0.317764,-1.310129 0.11159,-0.594823 0.06809,-1.015566 -0.116798,-1.129835 -0.490526,-0.303165 -1.384447,-2.584484 -1.344441,-3.431069 0.02063,-0.436562 0.145353,-1.031875 0.277162,-1.322916 0.131809,-0.291042 0.491112,-1.078169 0.798452,-1.749171 0.30734,-0.671005 0.491238,-1.396069 0.408662,-1.611257 -0.08258,-0.215189 0.05271,-0.559155 0.300643,-0.764371 0.362437,-0.299995 2.011119,-0.38385 8.412562,-0.427881 4.378979,-0.03012 8.622922,-0.129075 9.430981,-0.219901 0.838467,-0.09425 2.087919,-0.02748 2.910416,0.155525 0.833628,0.185475 3.872699,0.343352 7.208748,0.374486 4.821453,0.045 5.835203,0.121494 6.180073,0.46636 0.37366,0.37366 0.51899,0.340696 1.54212,-0.349811 0.62127,-0.419291 1.32645,-1.062805 1.56707,-1.430031 0.33498,-0.511252 0.5852,-0.630613 1.06794,-0.50945 0.43479,0.109125 0.79735,-0.0087 1.1682,-0.379508 0.44467,-0.444672 0.68392,-0.495821 1.3823,-0.295526 0.46451,0.13322 1.06148,0.438528 1.32661,0.678463 0.31495,0.285031 0.70956,0.379145 1.1384,0.271513 1.2144,-0.304795 1.9642,1.690714 1.07635,2.864567 -0.21366,0.282474 -0.38846,0.792678 -0.38846,1.133787 0,0.341109 -0.18778,0.906783 -0.41729,1.257051 -0.52841,0.806461 -0.39971,1.763919 0.28499,2.120093 1.26811,0.65966 2.77813,1.820376 2.77813,2.13549 0,0.55481 0.78068,1.174363 1.47978,1.174363 0.43335,0 0.74736,0.21758 0.94729,0.656373 0.16449,0.361006 0.51912,0.726215 0.78808,0.811581 0.57722,0.1832 0.58609,0.278177 0.17091,1.830456 -0.29277,1.094671 -0.2699,1.254524 0.28739,2.008293 0.57033,0.771414 0.57961,0.847543 0.15989,1.311331 -0.24508,0.270804 -0.36415,0.624152 -0.26461,0.785217 0.0996,0.161065 0.0667,0.436459 -0.073,0.611984 -0.52426,0.658757 -0.634,2.764816 -0.1889,3.625533 0.48973,0.94704 0.30876,1.85298 -0.37015,1.85298 -0.64166,0 -0.86909,0.28353 -0.54279,0.6767 0.17072,0.20569 0.64858,0.27808 1.27822,0.19363 0.8568,-0.11492 1.14886,-0.009 1.97403,0.71543 1.05704,0.9281 1.21027,1.65541 0.54797,2.60097 -0.23126,0.33018 -0.35543,0.76981 -0.27594,0.97696 0.0795,0.20716 -0.10396,0.93839 -0.40766,1.62497 -0.53673,1.21335 -0.53933,1.28407 -0.0931,2.52495 0.56754,1.57828 0.37394,2.45749 -0.65873,2.9915 -0.43445,0.22466 -0.78991,0.50688 -0.78991,0.62714 0,0.55822 1.32018,2.09173 2.40339,2.79176 1.22805,0.79363 2.62369,2.84079 2.62369,3.8485 0,0.30506 -0.3098,0.68244 -0.74495,0.90747 -0.86986,0.44982 -1.44186,2.28864 -1.04496,3.35925 0.12942,0.3491 0.24096,1.65724 0.24786,2.90699 0.012,2.17523 -0.15784,2.83677 -1.01304,3.94545 -0.3193,0.41393 -0.43742,1.04176 -0.38579,2.05052 0.0231,0.45191 0.19117,0.59531 0.6976,0.59531 1.02671,0 1.33844,0.95005 0.93031,2.83522 -0.18223,0.84172 -0.42249,2.06115 -0.53391,2.70983 -0.11141,0.64868 -0.33676,1.22415 -0.50076,1.27882 -0.38839,0.12946 -0.38494,2.0414 0.005,2.78467 0.16676,0.31786 0.46442,0.67313 0.66145,0.78951 0.19704,0.11637 0.35826,0.56839 0.35826,1.00449 0,0.60715 0.18778,0.8985 0.80155,1.24362 0.64331,0.36173 0.77118,0.57512 0.64768,1.08085 -0.12375,0.50676 0.0859,0.85344 1.07089,1.77069 0.79169,0.73726 1.51602,1.16934 2.04844,1.22195 0.65615,0.0648 0.93451,0.29542 1.3687,1.13373 0.5082,0.98123 0.81542,1.18344 2.46326,1.6213 0.69821,0.18553 0.32229,1.16151 -0.69465,1.80347 -1.27487,0.80479 -2.14962,1.89128 -2.14962,2.66993 0,0.32636 -0.17852,0.74154 -0.39672,0.92262 -0.34364,0.2852 -0.37335,0.2099 -0.22209,-0.56291 0.23839,-1.21804 0.76039,-2.03686 2.04417,-3.20655 0.94205,-0.85833 1.01126,-0.99157 0.5154,-0.99219 -0.38102,-5.3e-4 -0.8979,-0.44361 -1.54389,-1.32363 -0.55632,-0.75787 -1.17943,-1.32292 -1.45884,-1.32292 -0.26826,0 -0.65089,-0.16315 -0.8503,-0.36256 -0.19941,-0.19941 -0.73647,-0.55592 -1.19346,-0.79224 -0.98181,-0.50771 -1.65677,-1.38982 -1.65677,-2.16524 0,-0.30606 -0.30445,-0.84248 -0.67655,-1.19205 -0.40607,-0.38149 -0.62692,-0.82536 -0.55242,-1.11027 0.0774,-0.29591 -0.22331,-0.84308 -0.79842,-1.45287 -0.6934,-0.73522 -0.89089,-1.14383 -0.79508,-1.64502 0.0701,-0.36675 0.0241,-0.86002 -0.1023,-1.09615 -0.16528,-0.30883 -0.047,-0.60105 0.42146,-1.04112 0.4152,-0.39007 0.65267,-0.90674 0.65521,-1.42558 0.002,-0.44757 0.17556,-1.29002 0.38526,-1.87211 0.51834,-1.43877 0.49923,-2.23213 -0.0585,-2.42898 -0.25466,-0.0899 -0.73091,-0.40455 -1.05833,-0.69927 -0.74863,-0.67387 -0.80064,-2.22488 -0.10462,-3.11992 0.87176,-1.12103 1.16825,-2.5153 0.96921,-4.55776 -0.10152,-1.04173 -0.18309,-2.54849 -0.18127,-3.34833 0.003,-1.35823 0.0698,-1.51013 1.01073,-2.30005 l 1.00742,-0.84578 -0.54178,-0.74266 c -0.29798,-0.40846 -0.61755,-0.94648 -0.71017,-1.19559 -0.0926,-0.24912 -0.75593,-0.84172 -1.47404,-1.31691 -1.35958,-0.89966 -2.68746,-2.66637 -2.68746,-3.57558 0,-0.36967 0.31658,-0.65179 1.05834,-0.94316 1.21455,-0.47709 1.27917,-0.78334 0.50255,-2.38186 l -0.55578,-1.14396 0.53136,-1.17822 c 0.29225,-0.64802 0.6091,-1.5354 0.70411,-1.97197 0.48552,-2.23098 0.48844,-2.20227 -0.29403,-2.89038 -0.93246,-0.82001 -1.0201,-0.82331 -2.40369,-0.0905 -0.99366,0.52631 -1.16287,0.54821 -1.51496,0.19612 -0.27972,-0.27971 -0.34912,-0.68744 -0.23584,-1.38549 0.1388,-0.85531 0.25606,-0.98913 0.86673,-0.98913 1.09171,0 1.39095,-0.45927 0.90787,-1.39343 -0.34878,-0.67447 -0.36154,-1.100311 -0.0902,-3.011648 0.17379,-1.224354 0.31089,-2.490256 0.30465,-2.813114 -0.073,-3.777535 -0.53204,-5.01288 -2.01579,-5.424241 -0.43942,-0.121827 -0.9613,-0.544129 -1.19621,-0.967967 -0.2292,-0.413523 -1.1151,-1.241492 -1.96868,-1.839929 -1.88602,-1.322268 -2.12825,-1.852168 -1.47693,-3.230946 0.71292,-1.509197 1.3733,-3.817649 1.21221,-4.237448 -0.0809,-0.210732 -0.51918,-0.364611 -1.03858,-0.364611 -0.49803,0 -1.19857,-0.235905 -1.57139,-0.529167 -0.85088,-0.669303 -0.8885,-0.666443 -1.95739,0.148839 -0.56582,0.431572 -1.07202,0.619889 -1.3927,0.518109 -0.34383,-0.10913 -0.55277,-0.0094 -0.65809,0.314183 -0.0849,0.260741 -0.64388,0.708223 -1.24225,0.994399 -0.59838,0.286176 -1.1466,0.673129 -1.21826,0.859896 -0.18033,0.46994 -0.53267,0.425585 -1.37311,-0.17286 -0.56566,-0.402784 -1.19716,-0.518031 -2.951265,-0.538597 -1.227389,-0.01439 -2.529272,-0.03124 -2.893074,-0.03744 -0.363802,-0.0062 -1.256771,0.02029 -1.984375,0.0589 -0.727604,0.0386 -2.886871,-0.08469 -4.798375,-0.273966 -2.376775,-0.235346 -3.626617,-0.259543 -3.953621,-0.07654 -0.309366,0.173131 -3.306416,0.216334 -8.489894,0.122386 -7.708299,-0.13971 -8.017817,-0.126161 -8.172418,0.357807 -0.08838,0.276659 -0.388591,0.991076 -0.667137,1.587595 -0.278548,0.596519 -0.583365,1.489488 -0.677373,1.984375 -0.09401,0.494887 -0.264735,1.084479 -0.379394,1.310206 -0.294236,0.57926 0.620522,2.494526 1.45146,3.038975 0.764026,0.50061 0.886613,1.046313 0.286752,1.276504 -0.611843,0.234786 -0.471868,0.863888 0.320667,1.441209 0.61069,0.444857 0.666068,0.584718 0.371872,0.939202 -0.365106,0.439925 -0.307742,1.844953 0.19476,4.770369 0.218305,1.270907 0.194318,1.669774 -0.130212,2.165072 -0.304128,0.464156 -0.329941,0.733986 -0.109593,1.145708 0.158525,0.29621 0.261067,0.895 0.22787,1.33066 -0.03797,0.49837 0.143949,1.01656 0.490593,1.39741 0.664144,0.72968 0.93272,2.00242 0.566825,2.6861 -0.187423,0.3502 -0.16872,0.68256 0.06274,1.11505 0.294381,0.55006 0.238916,0.71959 -0.51712,1.58067 -0.966587,1.10088 -1.014034,2.05576 -0.108556,2.18469 0.316854,0.0451 0.692914,0.22371 0.835686,0.39688 0.705586,0.85577 2.574743,8.78067 2.738872,11.61234 0.06184,1.0669 -0.531019,1.95464 -1.570969,2.35236 -0.343781,0.13148 -0.595313,0.45187 -0.595313,0.75828 0,0.37236 -0.37484,0.7097 -1.256771,1.13103 -1.092591,0.52198 -1.286303,0.73867 -1.482838,1.65875 -0.124336,0.58208 -0.529656,1.81417 -0.900708,2.73796 -0.647211,1.61134 -1.370376,5.15036 -1.381476,6.76067 -0.0063,0.91169 -1.261214,3.58915 -1.774575,3.78614 -0.197952,0.076 -0.836509,0.95416 -1.419015,1.95155 -0.770081,1.31856 -1.01494,1.98937 -0.897278,2.45818 0.089,0.35462 0.02399,0.90229 -0.144461,1.21705 -0.389562,0.72791 0.557226,5.36134 1.463985,7.16452 0.333341,0.66288 0.693137,1.67491 0.799547,2.24896 0.106411,0.57405 0.413813,1.68744 0.683115,2.4742 0.269303,0.78677 0.489642,1.70531 0.489642,2.04122 0,0.33994 0.234626,0.73629 0.529167,0.89393 0.291041,0.15576 0.529166,0.5194 0.529166,0.8081 0,0.42235 0.124405,0.49367 0.636815,0.36506 0.640935,-0.16086 1.71028,0.24427 2.071114,0.78467 0.106913,0.16012 0.196209,0.6345 0.198437,1.05418 0.0021,0.41968 0.141862,1.22302 0.310298,1.78521 0.256723,0.85686 0.238657,1.09715 -0.111717,1.4859 -0.348245,0.38639 -0.37084,0.66896 -0.135456,1.69396 0.416353,1.81307 0.190417,2.17402 -1.258576,2.0107 -0.65456,-0.0738 -1.249488,-0.0381 -1.322062,0.0794 -0.15874,0.25685 0.146199,0.34814 3.050731,0.91333 3.644844,0.70925 6.094555,1.39665 6.78947,1.90516 2.034027,1.48842 3.172693,2.19562 3.535177,2.19562 0.224851,0 1.055635,-0.41672 1.846186,-0.92605 0.790551,-0.50932 1.567757,-0.92604 1.727126,-0.92604 0.159366,0 0.520668,-0.20836 0.802886,-0.46302 1.664494,-1.50196 2.628609,-1.97627 5.471681,-2.69189 1.638184,-0.41235 3.514297,-1.06037 4.16914,-1.44005 0.981279,-0.56895 1.526286,-0.69089 3.099647,-0.69352 1.707983,-0.003 2.000549,-0.0815 2.778125,-0.74723 0.478,-0.40922 1.56475,-1.0047 2.41498,-1.32329 0.85023,-0.31859 2.00906,-0.97571 2.57516,-1.46028 0.63403,-0.5427 1.66605,-1.05673 2.68746,-1.33857 1.83317,-0.50582 3.84006,-1.43819 5.17796,-2.40559 1.92837,-1.39436 3.71034,-1.72312 8.96832,-1.65455 3.21133,0.0419 4.72657,0.15091 4.54912,0.32737 -0.16254,0.16163 -2.07142,0.23803 -4.90607,0.19634 -3.58869,-0.0528 -4.90714,0.0225 -5.81901,0.33204 -1.49607,0.50793 -3.18148,1.3642 -3.40864,1.73175 -0.24561,0.3974 -2.6047,1.44059 -4.49101,1.98594 -0.88875,0.25694 -2.06988,0.85382 -2.68342,1.35605 -0.60275,0.49341 -1.82701,1.18362 -2.72056,1.5338 -0.89356,0.35018 -1.96955,0.9269 -2.391084,1.28161 -0.610674,0.51385 -1.186971,0.68022 -2.835688,0.81866 -1.490975,0.12519 -2.512891,0.38999 -3.656748,0.94752 -0.873125,0.42558 -2.651056,0.98725 -3.950962,1.24816 -2.123959,0.42631 -2.481022,0.58684 -3.523591,1.58423 -0.638069,0.61042 -1.598576,1.25024 -2.134455,1.42181 -0.535879,0.17157 -1.369663,0.60733 -1.852853,0.96834 -1.268055,0.94742 -2.602937,1.01154 -3.751681,0.1802 z"
         id="path718" />
      <path
         style="fill:#009a44;fill-opacity:1;stroke-width:0.264583"
         d="m 78.511069,177.09439 c -0.509323,-0.35853 -1.223698,-0.96471 -1.5875,-1.34706 l -0.661459,-0.69519 0.661459,0.45323 c 0.363802,0.24927 1.163711,0.77635 1.777574,1.17128 0.613865,0.39493 1.11988,0.80735 1.124479,0.91649 0.01363,0.3236 -0.333373,0.19194 -1.314553,-0.49875 z m 2.067057,0.25187 c 0.190995,-0.0764 0.419198,-0.067 0.507119,0.0209 0.08792,0.0879 -0.06835,0.15045 -0.347266,0.13896 -0.308226,-0.0127 -0.370919,-0.0754 -0.159853,-0.15985 z m 4.515408,-2.74053 c 1.513951,-1.36886 2.00532,-1.35987 0.592886,0.0109 -0.599797,0.58208 -1.239231,1.05345 -1.420965,1.04748 -0.181737,-0.006 0.190899,-0.48222 0.828079,-1.05833 z m -16.901215,-1.13154 c -1.819011,-0.41433 -3.634714,-0.81656 -4.034896,-0.89383 -0.743043,-0.14349 -0.993397,-0.73879 -0.396875,-0.94371 0.181901,-0.0625 0.675102,-0.0163 1.096002,0.10258 0.420901,0.1189 0.897151,0.13034 1.058334,0.0254 0.161183,-0.10493 0.888372,-0.19078 1.615976,-0.19078 1.457402,0 1.403223,0.10752 1.066612,-2.11666 -0.12433,-0.82151 -0.04324,-1.20597 0.362379,-1.71807 0.471795,-0.59565 0.540115,-0.61396 0.70335,-0.18858 0.109498,0.28535 0.0081,0.66201 -0.257207,0.95513 -0.370493,0.4094 -0.394631,0.67751 -0.156609,1.73961 0.378891,1.69069 0.05067,2.0972 -1.504927,1.86392 -0.698757,-0.10478 -1.139639,-0.0683 -1.139639,0.0943 0,0.40449 0.180962,0.46448 3.307291,1.09635 1.600729,0.32352 3.077562,0.67783 3.281852,0.78734 0.802693,0.43028 -1.847209,0.10551 -5.001643,-0.61301 z m 19.00039,-0.36126 c 0.190995,-0.0764 0.419198,-0.067 0.507119,0.0209 0.08792,0.0879 -0.06835,0.15045 -0.347265,0.13897 -0.308227,-0.0127 -0.37092,-0.0754 -0.159854,-0.15985 z m 4.354124,-1.06095 c 0.257431,-0.0671 0.614619,-0.0627 0.79375,0.01 0.179131,0.0725 -0.03149,0.12737 -0.468056,0.12198 -0.436563,-0.005 -0.583126,-0.0647 -0.325694,-0.13178 z m 1.516319,-0.4498 c 0,-0.0572 0.184777,-0.17489 0.410617,-0.26155 0.235458,-0.0904 0.341662,-0.046 0.248968,0.10398 -0.155379,0.25141 -0.659585,0.37186 -0.659585,0.15757 z m 2.189155,-1.11503 c 0.08838,-0.0884 1.090485,-0.20373 2.22691,-0.25634 1.3931,-0.0645 1.850739,-0.0207 1.404768,0.13431 -0.753324,0.2619 -3.876492,0.36684 -3.631678,0.12203 z m 6.938973,-2.20154 c 0.58208,-0.27992 1.23692,-0.50807 1.45521,-0.50699 0.45257,0.002 -0.85633,0.60403 -1.85209,0.85154 -0.3638,0.0904 -0.18521,-0.0646 0.39688,-0.34455 z m 2.51354,-1.31364 c 0,-0.12995 0.19543,-0.31127 0.4343,-0.40293 0.36313,-0.13935 0.3795,-0.10063 0.0999,0.23628 -0.38103,0.45911 -0.53419,0.5069 -0.53419,0.16665 z m -35.818356,-0.43541 c -0.09074,-0.23646 -0.164979,-0.75892 -0.164979,-1.16103 0,-0.78283 -0.596508,-1.47195 -1.455208,-1.68115 -0.467232,-0.11383 -0.457454,-0.1325 0.08354,-0.15961 1.126876,-0.0564 1.573982,0.40676 1.770282,1.83404 0.18719,1.36104 0.06839,1.95482 -0.233635,1.16775 z m 37.935026,-0.91581 c 0.21828,-0.14107 0.635,-0.24994 0.92604,-0.24194 l 0.52916,0.0146 -0.52916,0.22739 c -0.29104,0.12506 -0.70776,0.23393 -0.92604,0.24193 -0.35278,0.0129 -0.35278,-0.0139 0,-0.24193 z m -40.944275,-1.76273 c -0.181902,-0.0734 -0.33073,-0.29793 -0.33073,-0.49897 0,-0.20103 -0.238125,-0.49296 -0.529166,-0.64872 -0.417333,-0.22335 -0.529167,-0.55399 -0.529167,-1.56449 0,-0.70472 -0.167263,-1.68279 -0.371695,-2.17351 -0.204433,-0.49071 -0.453231,-1.48752 -0.552884,-2.21512 -0.09965,-0.72761 -0.408641,-1.64552 -0.686638,-2.03981 -0.277997,-0.39429 -0.499723,-0.93007 -0.492723,-1.19063 0.0208,-0.77412 1.493965,2.33694 1.704865,3.60036 0.106837,0.64003 0.359398,1.55894 0.561246,2.04203 0.201847,0.48309 0.366996,1.30262 0.366996,1.82119 0,0.58703 0.147321,0.99937 0.390373,1.09264 0.315122,0.12092 1.197127,1.49029 1.197127,1.85862 0,0.1196 -0.313214,0.0836 -0.727604,-0.0836 z m 47.029685,-0.98709 c 0,-0.0572 0.18478,-0.17489 0.41062,-0.26155 0.23546,-0.0904 0.34166,-0.046 0.24897,0.10398 -0.15538,0.25141 -0.65959,0.37186 -0.65959,0.15757 z m 7.80521,-1.26228 c -1.16417,-0.13065 -2.59292,-0.17875 -3.175,-0.10689 -0.8624,0.10647 -0.94267,0.0831 -0.43354,-0.12652 0.76065,-0.31309 8.168,-0.009 7.65813,0.31416 -0.40546,0.25716 -1.17544,0.2418 -4.04959,-0.0807 z m 6.48634,-1.59468 c -0.002,-0.24607 0.11501,-0.52099 0.26054,-0.61093 0.33485,-0.20695 0.33485,0.14331 0,0.66146 -0.22104,0.34202 -0.25704,0.33504 -0.26054,-0.0505 z m 2.3772,-3.38065 c 0.69888,-0.5378 0.56359,-0.9373 -0.37495,-1.1072 -0.27898,-0.0505 -0.55852,-0.24585 -0.62121,-0.4341 -0.11039,-0.33153 0.28441,-0.30598 1.85606,0.12011 0.73306,0.19874 0.54902,1.09014 -0.31759,1.53828 -1.07199,0.55435 -1.33974,0.49654 -0.54231,-0.11709 z m -2.83144,-3.55492 c -0.46589,-0.16961 -0.94214,-0.4125 -1.05833,-0.53976 -0.11818,-0.12942 0.002,-0.15451 0.27339,-0.0569 0.26656,0.0959 0.75984,0.17445 1.09617,0.17445 0.33633,0 0.68005,0.17859 0.76381,0.39687 0.1729,0.45058 0.0978,0.45235 -1.07504,0.0254 z m -65.02887,-1.55543 c -0.453089,-1.55857 -0.536089,-3.04526 -0.276477,-4.95222 0.279631,-2.05401 0.359906,-2.24714 1.657588,-3.98804 1.872586,-2.51216 2.50598,-3.69053 2.339741,-4.35289 -0.07987,-0.31821 0.03134,-1.2564 0.247123,-2.08486 0.215785,-0.82845 0.392337,-1.85824 0.392337,-2.28842 0,-0.43017 0.311573,-1.40663 0.692384,-2.1699 0.380811,-0.76327 0.793103,-1.97069 0.916203,-2.68316 0.212236,-1.22836 1.07196,-2.54106 1.664203,-2.54106 0.148571,0 0.616326,-0.32743 1.039453,-0.72761 0.671851,-0.63542 0.757092,-0.66087 0.672782,-0.20087 -0.0588,0.32083 -0.584065,0.75819 -1.343705,1.11884 -0.925343,0.43933 -1.289809,0.78132 -1.412438,1.32535 -0.437769,1.94211 -0.728192,2.91057 -1.072872,3.57768 -0.329967,0.63864 -0.528751,1.41169 -1.071507,4.16702 -0.07166,0.3638 -0.171427,1.28462 -0.221697,2.04625 -0.05027,0.76164 -0.278092,1.65133 -0.50627,1.9771 -0.228178,0.32577 -0.414869,0.78155 -0.414869,1.01285 0,0.2313 -0.345492,0.67597 -0.767761,0.98817 -1.009401,0.74628 -2.407239,3.35415 -2.407239,4.49105 0,0.49305 -0.121784,1.12401 -0.270631,1.40213 -0.170401,0.3184 -0.179933,0.67942 -0.02574,0.9748 0.329512,0.6312 0.926162,4.02855 0.740168,4.21455 -0.08134,0.0813 -0.338195,-0.5067 -0.570779,-1.30676 z m 62.32436,-0.0809 c -0.56298,-0.47372 -0.81405,-0.92065 -0.81405,-1.44911 0,-0.52311 -0.20864,-0.90083 -0.66146,-1.19753 -0.3787,-0.24814 -0.65428,-0.67488 -0.64468,-0.99829 0.0164,-0.55409 0.0214,-0.55344 0.25748,0.0343 0.13239,0.32954 0.54431,0.71459 0.91537,0.85566 0.54209,0.20611 0.64344,0.38091 0.51578,0.88956 -0.12459,0.49639 0.0542,0.84001 0.82823,1.59173 1.12916,1.09662 0.82815,1.30431 -0.39667,0.2737 z m -2.92799,-5.26534 c -1.13991,-1.17608 -1.28098,-2.7759 -0.34619,-3.92571 0.42499,-0.52274 0.60805,-0.61981 0.60805,-0.32243 0,0.23402 -0.16688,0.48952 -0.37084,0.56779 -0.32208,0.12359 -0.38878,1.04683 -0.183,2.53276 0.0136,0.098 0.33714,0.54949 0.71905,1.00337 0.9669,1.14909 0.65046,1.25595 -0.42707,0.14422 z m 0.18673,-5.24312 c -0.10131,-0.26279 -0.007,-0.90241 0.21005,-1.42137 0.21683,-0.51896 0.39425,-1.39535 0.39425,-1.94754 0,-0.85443 -0.10838,-1.04355 -0.72761,-1.26971 l -0.7276,-0.26575 0.73415,-0.0209 c 0.95622,-0.0272 1.28526,0.78702 0.96087,2.37781 -0.57279,2.80902 -0.65159,3.04684 -0.84411,2.54744 z m -1.0714,-5.38712 c -0.3202,-0.3202 -0.18334,-2.39887 0.17766,-2.69849 0.82314,-0.68313 1.43235,-4.31972 0.96226,-5.74408 -0.17892,-0.54215 -0.31198,-1.57746 -0.29569,-2.30069 0.0245,-1.08814 0.15583,-1.42349 0.76128,-1.9442 0.4024,-0.34609 0.82094,-0.6294 0.93008,-0.62957 0.37785,-5.3e-4 0.18443,-0.92924 -0.33073,-1.58783 -0.28457,-0.3638 -0.52004,-0.80907 -0.52328,-0.98948 -0.003,-0.18042 -0.6524,-0.75729 -1.4426,-1.28195 -1.42535,-0.94638 -2.79662,-2.62574 -2.79662,-3.42494 0,-0.22882 0.4219,-0.59233 0.93756,-0.80778 0.51565,-0.21545 1.00464,-0.56657 1.08664,-0.78025 0.082,-0.21368 0.25541,-0.38851 0.38536,-0.38851 0.50555,0 0.1932,0.6396 -0.74402,1.52351 l -0.98029,0.92453 0.55578,0.95879 c 0.30568,0.52733 1.11376,1.34351 1.79573,1.81372 1.37397,0.94734 2.46488,2.37774 2.69645,3.53558 0.12565,0.62827 0.0426,0.7991 -0.48661,1.00029 -1.37325,0.5221 -1.50939,1.21629 -1.13778,5.80137 0.2099,2.58984 0.0645,3.22814 -1.01739,4.46668 -0.36895,0.42236 -0.47697,0.86681 -0.40194,1.65365 0.0564,0.59182 0.0896,1.07604 0.0736,1.07604 -0.016,0 -0.10842,-0.0794 -0.20543,-0.17639 z M 71.102735,124.76725 c 0,-0.0788 0.372404,-0.33591 0.827564,-0.57128 l 0.827564,-0.42795 -0.163277,-1.76166 c -0.143322,-1.54633 -0.844037,-5.38185 -1.373169,-7.51634 -0.110281,-0.44487 -0.07286,-0.7276 0.0963,-0.7276 0.152167,0 0.409096,0.68461 0.570953,1.52135 0.161856,0.83674 0.527486,2.62603 0.812508,3.9762 0.632852,2.99784 0.643205,3.99008 0.04932,4.72687 -0.423733,0.52569 -1.647762,1.10541 -1.647763,0.78041 z m -0.61365,-12.84724 c -0.24945,-0.42228 -0.710116,-0.80557 -1.023702,-0.85175 -0.313587,-0.0462 -0.616165,-0.22378 -0.672394,-0.39465 -0.07709,-0.23426 0.12645,-0.24049 0.827519,-0.0253 0.671711,0.20616 1.006747,0.50622 1.207182,1.08119 0.368078,1.05586 0.221332,1.13844 -0.338605,0.19054 z m 48.881155,-0.31091 c -0.48647,-0.94074 -0.3513,-2.17228 0.31981,-2.91385 0.24197,-0.26737 0.36527,-0.70722 0.28467,-1.01546 -0.0782,-0.29907 0.0325,-0.89392 0.24597,-1.32188 0.45122,-0.9045 0.23311,-1.50039 -0.86551,-2.36456 -0.4205,-0.33077 -0.54721,-0.54968 -0.31815,-0.54968 0.20936,0 0.75223,0.38695 1.20638,0.85989 0.6405,0.66701 0.79395,1.0213 0.68406,1.57942 -0.0779,0.39574 -0.29478,0.8466 -0.48193,1.00192 -0.18714,0.15531 -0.28615,0.48929 -0.22002,0.74217 0.0661,0.25288 -0.0645,0.81405 -0.29027,1.24704 -0.47177,0.90475 -0.52613,1.91248 -0.15573,2.88671 0.35831,0.94242 0.10867,0.84989 -0.40928,-0.15172 z m -50.648755,-2.32899 c 0,-0.13693 0.1177,-0.32171 0.261554,-0.41061 0.149982,-0.0927 0.194337,0.0135 0.103984,0.24896 -0.175892,0.45837 -0.365538,0.54224 -0.365538,0.16165 z m 0.928368,-1.3411 c 0.419594,-0.46364 0.436089,-0.61606 0.128804,-1.19022 -0.193828,-0.36217 -0.268137,-0.74277 -0.165132,-0.84577 0.103005,-0.10301 0.255977,0.0754 0.339937,0.39647 0.08396,0.32107 0.257834,0.58376 0.386382,0.58376 0.398954,0 0.258013,0.50488 -0.295442,1.05833 -0.690023,0.69003 -1.019397,0.68788 -0.394549,-0.003 z m 0.455932,-3.17243 c 0,-0.50932 0.05445,-0.71768 0.121002,-0.46302 0.06655,0.25466 0.06655,0.67138 0,0.92604 -0.06655,0.25466 -0.121002,0.0463 -0.121002,-0.46302 z m 45.551205,-0.63911 c -0.23074,-0.60131 -0.002,-1.82385 0.36421,-1.94403 0.1889,-0.062 0.45508,0.23067 0.60759,0.66816 0.22779,0.65345 0.38637,0.75982 0.98674,0.66189 l 0.71533,-0.1167 -0.79375,0.55086 c -0.92288,0.64048 -1.67572,0.71248 -1.88012,0.17982 z m 1.78786,-2.23709 c 0.29282,-0.46888 0.27213,-0.67597 -0.13666,-1.36801 -0.3395,-0.574723 -0.4222,-1.025483 -0.28011,-1.526781 0.18877,-0.666033 0.21651,-0.63553 0.43582,0.479327 0.3721,1.891514 0.36828,2.717324 -0.0131,2.847874 -0.28997,0.0992 -0.29099,0.0241 -0.006,-0.43241 z m -48.701928,-1.05249 c -0.157311,-0.29394 -0.281361,-0.75062 -0.275664,-1.014851 0.0062,-0.287563 0.167145,-0.119158 0.400936,0.419521 0.428892,0.9882 0.331835,1.44944 -0.125272,0.59533 z m 0.243147,-2.421308 c 0,-0.14552 0.12609,-0.264583 0.280199,-0.264583 0.154109,0 0.206613,0.119063 0.116676,0.264583 -0.08994,0.145521 -0.216027,0.264584 -0.280199,0.264584 -0.06417,0 -0.116676,-0.119063 -0.116676,-0.264584 z m 48.502051,-1.719791 c 0.004,-0.727605 0.10644,-1.524051 0.22739,-1.76988 0.12858,-0.261335 0.10973,-0.515059 -0.0454,-0.610928 -0.14592,-0.09018 -0.2653,-0.29845 -0.2653,-0.462823 0,-0.164372 0.23812,-0.04326 0.52917,0.269137 0.53435,0.573561 0.71524,1.383869 0.30892,1.383869 -0.12113,0 -0.34219,0.565547 -0.49125,1.25677 l -0.27101,1.256771 0.007,-1.322916 z m -0.0727,-4.701612 c -0.006,-0.257553 -0.30974,-0.942163 -0.67537,-1.521354 -0.49033,-0.77674 -0.84109,-1.053076 -1.33668,-1.053076 -0.50563,0 -0.73901,-0.192492 -0.94307,-0.777864 -0.28077,-0.805416 -1.32179,-1.730434 -2.81016,-2.497008 -0.47294,-0.243586 -0.85989,-0.552736 -0.85989,-0.686999 0,-0.539213 3.00566,1.493652 3.60839,2.440517 0.40239,0.632142 0.83363,0.992187 1.18839,0.992187 0.30624,0 1.02155,0.478883 1.58956,1.064184 0.99659,1.026916 1.01904,1.089461 0.64109,1.785937 -0.28511,0.525391 -0.39455,0.594352 -0.40226,0.253476 z M 68.633292,91.890193 c -0.09701,-0.09701 -0.17639,-0.299419 -0.17639,-0.449792 0,-0.165788 0.123235,-0.150167 0.313089,0.03969 0.172202,0.172202 0.251577,0.374608 0.17639,0.449792 -0.07519,0.07519 -0.216077,0.05733 -0.313089,-0.03969 z m -0.97014,-2.419118 c 0,-0.406032 -0.14837,-0.886613 -0.329711,-1.067953 -0.182284,-0.182285 0.05433,-0.138129 0.529167,0.09875 1.00325,0.500488 1.041265,0.645107 0.329711,1.254358 -0.51099,0.437523 -0.529167,0.427728 -0.529167,-0.285158 z m -1.446948,-4.6258 c -0.113259,-0.260937 -0.131684,-0.548672 -0.04095,-0.639408 0.268683,-0.268684 0.485269,0.108728 0.361605,0.630111 -0.10963,0.462213 -0.123894,0.462626 -0.320658,0.0093 z m 44.309446,-0.419214 c 0,-0.273222 0.17703,-0.643691 0.3934,-0.823261 0.34269,-0.284406 0.35641,-0.220369 0.10641,0.496771 -0.32652,0.936646 -0.49981,1.049845 -0.49981,0.32649 z m 0.81464,-1.774235 c 0.0127,-0.308226 0.0754,-0.370919 0.15985,-0.159853 0.0764,0.190995 0.067,0.419198 -0.0209,0.507119 -0.0879,0.08792 -0.15046,-0.06835 -0.13897,-0.347266 z M 67.389099,81.791317 c 0.174308,-0.339884 0.389491,-0.54541 0.478179,-0.456721 0.08869,0.08869 -0.05393,0.366776 -0.316928,0.617974 -0.457135,0.43662 -0.464231,0.429524 -0.161251,-0.161253 z M 101.44892,80.81343 c -0.79943,-0.703305 -2.231628,-0.880571 -2.769423,-0.342776 -0.235376,0.235376 -0.47189,0.23671 -0.979297,0.0055 -0.44455,-0.202552 -1.800561,-0.262258 -4.042074,-0.177977 -2.15043,0.08086 -3.118191,0.04156 -2.66986,-0.108411 0.58026,-0.194103 2.519878,-0.309557 5.18374,-0.308562 4.696614,0.0019 5.355194,0.0497 5.722084,0.416597 0.43332,0.433313 0.95865,0.520552 0.95865,0.159194 0,-0.127865 0.36027,-0.381714 0.80061,-0.56411 0.44034,-0.182393 1.04862,-0.67991 1.35173,-1.10559 0.38414,-0.539478 0.73497,-0.749874 1.15795,-0.694444 0.33376,0.04373 0.8569,-0.146783 1.16254,-0.423381 0.49025,-0.443669 0.67895,-0.465971 1.6022,-0.18936 1.0392,0.311354 1.53042,0.719191 1.22912,1.02049 -0.0864,0.08644 -0.37562,-0.04054 -0.64264,-0.282186 -0.65878,-0.596191 -1.07769,-0.554408 -2.21932,0.221353 -0.57498,0.390708 -1.03895,0.552889 -1.13537,0.396875 -0.26217,-0.424196 -0.61214,-0.30539 -0.79469,0.269775 -0.0931,0.293481 -0.61515,0.761029 -1.16001,1.038995 -0.54486,0.277966 -1.14609,0.692687 -1.33608,0.921604 -0.44767,0.539412 -0.53649,0.523547 -1.41986,-0.253606 z m 10.28015,0.272944 c 0.10689,-0.291042 0.25037,-0.855374 0.31884,-1.254072 0.0685,-0.398695 0.23024,-0.659561 0.35946,-0.579697 0.39641,0.244994 0.25111,1.006306 -0.32473,1.701477 -0.4396,0.530696 -0.50949,0.556848 -0.35357,0.132292 z m -44.065918,-0.77592 c 0,-0.208476 0.267891,-0.472387 0.595313,-0.586473 0.327421,-0.114085 4.107656,-0.234198 8.40052,-0.266916 4.292865,-0.03272 8.579115,-0.07879 9.525,-0.102381 2.007997,-0.05008 3.704167,0.223131 3.704167,0.596654 0,0.160613 -0.487161,0.195699 -1.256771,0.09052 -0.691224,-0.09447 -1.733021,-0.157295 -2.315104,-0.139608 -0.582083,0.01767 -4.772872,0.05322 -9.312865,0.07898 -6.198317,0.03516 -8.337031,0.129204 -8.585729,0.377547 -0.439521,0.438899 -0.754531,0.418727 -0.754531,-0.04832 z"
         id="path716" />
      <path
         style="fill:#009a44;fill-opacity:1;stroke-width:0.265;stroke-miterlimit:4;stroke-dasharray:none"
         d="m 71.317709,173.90668 c 0.190995,-0.0764 0.419198,-0.067 0.507119,0.0209 0.08792,0.0879 -0.06835,0.15045 -0.347265,0.13897 -0.308227,-0.0127 -0.37092,-0.0754 -0.159854,-0.15985 z m -6.549129,-1.26149 c -1.771225,-0.47461 -1.6659,-0.90877 0.207022,-0.85337 0.867282,0.0256 1.510932,0.154 1.430333,0.28521 -0.0806,0.13122 0.073,0.39911 0.341323,0.59531 0.456985,0.33416 0.446984,0.35455 -0.158015,0.32219 -0.355236,-0.019 -1.174534,-0.17621 -1.820663,-0.34934 z m 3.159155,-0.77589 c 0,-0.0558 0.294053,-0.15766 0.653452,-0.22636 0.359397,-0.0687 0.590497,-0.0231 0.513551,0.10145 -0.135488,0.21922 -1.167003,0.32963 -1.167003,0.12491 z m 0.814639,-2.16956 c 0.0127,-0.30822 0.07539,-0.37092 0.159851,-0.15985 0.07643,0.19099 0.06703,0.4192 -0.02088,0.50712 -0.08792,0.0879 -0.150452,-0.0684 -0.138964,-0.34727 z m -0.02089,-1.22856 c 0,-0.48231 0.469059,-0.88207 0.729459,-0.62167 0.0908,0.0908 -0.03619,0.36636 -0.282186,0.61236 -0.412472,0.41247 -0.447273,0.4132 -0.447273,0.009 z m -3.373437,-5.48133 c -0.825779,-0.68889 -0.785787,-1.14871 0.06615,-0.76054 0.363802,0.16576 0.661458,0.52039 0.661458,0.78808 0,0.58899 0.01198,0.58944 -0.727604,-0.0275 z m 64.921893,-7.10557 c -0.108,-0.17473 -0.42042,-0.3177 -0.69429,-0.3177 -0.27386,0 -0.57041,-0.11727 -0.65899,-0.2606 -0.10064,-0.16283 0.16648,-0.1982 0.71199,-0.0943 1.04823,0.19968 1.09125,0.22942 0.94905,0.65604 -0.0855,0.25639 -0.15715,0.26024 -0.30776,0.0165 z m -3.07554,-2.97915 c 0,-0.15411 0.11906,-0.20661 0.26459,-0.11667 0.14552,0.0899 0.26458,0.21602 0.26458,0.2802 0,0.0642 -0.11906,0.11667 -0.26458,0.11667 -0.14553,0 -0.26459,-0.12609 -0.26459,-0.2802 z m -6.61989,-7.5314 c -0.18407,-0.2218 -0.28344,-0.45451 -0.22082,-0.51713 0.0626,-0.0626 0.2592,0.11884 0.43682,0.40327 0.38413,0.61508 0.25602,0.68261 -0.216,0.11386 z m -2.71704,-30.10618 c -0.20536,-0.53514 0.11028,-0.87251 1.00256,-1.07158 0.75631,-0.16874 0.76879,-0.15791 0.26458,0.22958 -0.29104,0.22366 -0.66391,0.58617 -0.8286,0.80558 -0.24632,0.32816 -0.32412,0.33462 -0.43854,0.0364 z m -46.585834,-0.57909 c -0.08376,-0.21828 -0.03697,-0.39688 0.103984,-0.39688 0.140954,0 0.256281,0.1786 0.256281,0.39688 0,0.21828 -0.04679,0.39687 -0.103984,0.39687 -0.05719,0 -0.172516,-0.17859 -0.256281,-0.39687 z M 115.65672,103.8189 c 0.0883,-0.23018 0.1606,-0.67339 0.1606,-0.98491 v -0.5664 l 0.39682,0.56654 c 0.44905,0.64112 0.27463,1.40329 -0.32115,1.40329 -0.25319,0 -0.33873,-0.15152 -0.23627,-0.41852 z m 2.1731,-8.687501 c 0.0884,-0.230441 0.27703,-0.418983 0.4191,-0.418983 0.34777,0 0.13,0.601339 -0.26551,0.733176 -0.19334,0.06445 -0.25247,-0.05651 -0.15359,-0.314193 z m -0.69489,-4.261837 c -0.18408,-0.221797 -0.26106,-0.476887 -0.17108,-0.566869 0.19216,-0.192165 0.97014,0.399616 0.97014,0.737952 0,0.36445 -0.43124,0.272121 -0.79906,-0.171083 z m -0.92074,-1.448813 c -0.0899,-0.145521 -0.0374,-0.264583 0.11668,-0.264583 0.15411,0 0.2802,0.119062 0.2802,0.264583 0,0.145521 -0.0525,0.264583 -0.11668,0.264583 -0.0642,0 -0.19026,-0.119062 -0.2802,-0.264583 z M 67.927735,89.156166 c 0,-0.145521 0.119063,-0.264584 0.264584,-0.264584 0.14552,0 0.264583,0.119063 0.264583,0.264584 0,0.145521 -0.119063,0.264583 -0.264583,0.264583 -0.145521,0 -0.264584,-0.119062 -0.264584,-0.264583 z m 33.602085,-8.466667 c -0.45447,-0.355494 -0.53497,-0.519242 -0.25724,-0.523282 0.22232,-0.0032 0.60811,0.23224 0.85731,0.523282 0.57578,0.672462 0.25962,0.672462 -0.60007,0 z m -3.704168,-0.264583 c -0.339169,-0.219189 -0.329552,-0.257069 0.06615,-0.260533 0.254661,-0.0021 0.463021,0.115012 0.463021,0.260533 0,0.322688 -0.02984,0.322688 -0.529167,0 z M 82.61211,79.856562 c 3.215352,-0.42309 5.27852,-0.512729 5.68088,-0.246812 0.592116,0.391324 0.134495,0.63708 -0.52704,0.283036 -0.358238,-0.191723 -1.0498,-0.245245 -1.808599,-0.139976 -0.675717,0.09374 -2.121543,0.21027 -3.212949,0.258951 l -1.984375,0.08851 z m -9.988021,-0.147537 c 0.327422,-0.06307 0.863204,-0.06307 1.190626,0 0.327421,0.06306 0.05953,0.114662 -0.595313,0.114662 -0.654844,0 -0.922734,-0.0516 -0.595313,-0.114662 z m 33.271351,-1.136193 c -0.0899,-0.14552 0.0816,-0.264583 0.38126,-0.264583 0.29963,0 0.54479,0.119063 0.54479,0.264583 0,0.145521 -0.17157,0.264584 -0.38126,0.264584 -0.2097,0 -0.45485,-0.119063 -0.54479,-0.264584 z m 1.45521,-0.79375 c 0,-0.145521 0.18562,-0.264583 0.41249,-0.264583 0.22687,0 0.33891,0.119062 0.24897,0.264583 -0.0899,0.145521 -0.27556,0.264584 -0.41249,0.264584 -0.13693,0 -0.24897,-0.119063 -0.24897,-0.264584 z"
         id="path714" />
    </g>
    <rect
       style="fill:none;fill-opacity:1;stroke:none;stroke-width:0.272785;stroke-miterlimit:10;stroke-dasharray:none"
       id="rect2454"
       width="91.658859"
       height="114.88017"
       x="41.27364"
       y="80.942924"
       ry="2.0448205" />
    <rect
       style="fill:none;fill-opacity:1;stroke:none;stroke-width:0.272785;stroke-miterlimit:10;stroke-dasharray:none"
       id="rect2522"
       width="100.36046"
       height="96.204124"
       x="46.922283"
       y="84.979439"
       ry="2.0448217" />
    <rect
       style="fill:none;fill-opacity:1;stroke:none;stroke-width:0.272785;stroke-miterlimit:10;stroke-dasharray:none"
       id="rect2524"
       width="78.653847"
       height="108.1112"
       x="46.922279"
       y="84.979439"
       ry="2.0448217" />
  </g>
</svg>
