<?xml version="1.0" encoding="UTF-8" standalone="no"?>
<!-- Created with Inkscape (http://www.inkscape.org/) -->

<svg
   width="115.00393mm"
   height="116.91697mm"
   viewBox="0 0 115.00393 116.91697"
   version="1.1"
   id="svg5"
   inkscape:version="1.1.2 (0a00cf5339, 2022-02-04)"
   sodipodi:docname="guatemala.svg"
   xmlns:inkscape="http://www.inkscape.org/namespaces/inkscape"
   xmlns:sodipodi="http://sodipodi.sourceforge.net/DTD/sodipodi-0.dtd"
   xmlns="http://www.w3.org/2000/svg"
   xmlns:svg="http://www.w3.org/2000/svg">
  <sodipodi:namedview
     id="namedview7"
     pagecolor="#ffffff"
     bordercolor="#666666"
     borderopacity="1.0"
     inkscape:pageshadow="2"
     inkscape:pageopacity="0.0"
     inkscape:pagecheckerboard="0"
     inkscape:document-units="mm"
     showgrid="false"
     fit-margin-top="0"
     fit-margin-left="0"
     fit-margin-right="0"
     fit-margin-bottom="0"
     inkscape:zoom="1.3893664"
     inkscape:cx="180.29802"
     inkscape:cy="226.0023"
     inkscape:window-width="1920"
     inkscape:window-height="1048"
     inkscape:window-x="0"
     inkscape:window-y="0"
     inkscape:window-maximized="1"
     inkscape:current-layer="layer1" />
  <defs
     id="defs2" />
  <g
     inkscape:label="Layer 1"
     inkscape:groupmode="layer"
     id="layer1"
     transform="translate(-38.021568,-80.592152)">
    <g
       id="g67"
       style="fill:#ff7200;fill-opacity:1;stroke:#ff7200;stroke-width:1;stroke-miterlimit:4;stroke-dasharray:none;stroke-opacity:1"
       transform="translate(-1.3046908,21.156593)">
      <path
         style="fill:#ff7200;fill-opacity:1;stroke:#ff7200;stroke-width:1;stroke-miterlimit:4;stroke-dasharray:none;stroke-opacity:1"
         d="m 94.934787,173.86169 c -6.363697,-2.75869 -7.821506,-3.11339 -12.27765,-2.98723 -6.430917,0.18206 -11.952014,0.0282 -14.080463,-0.39254 -1.123055,-0.22198 -3.463112,-1.00538 -5.200128,-1.7409 -1.737014,-0.73552 -3.262368,-1.33731 -3.389678,-1.33731 -0.127309,0 -1.343691,-0.71927 -2.703074,-1.59837 -1.359382,-0.87911 -2.963287,-1.8492 -3.564234,-2.15577 -0.600946,-0.30657 -1.56888,-0.9553 -2.150963,-1.44161 -2.180695,-1.82192 -8.780113,-6.91594 -9.794415,-7.5602 -0.579426,-0.36804 -1.262026,-0.90253 -1.51689,-1.18774 -0.445299,-0.49834 -0.437468,-0.53245 0.200589,-0.87393 0.409722,-0.21928 0.765196,-0.73125 0.928308,-1.337 0.145382,-0.53991 0.428488,-1.1179 0.629123,-1.28441 0.394433,-0.32735 0.399015,-1.81291 0.0075,-2.42562 -0.132144,-0.20679 -0.266403,-0.6141 -0.298355,-0.90514 -0.03195,-0.29105 -0.136018,-0.91928 -0.231258,-1.39609 -0.14371,-0.71946 -0.05581,-0.97568 0.516806,-1.50635 0.379483,-0.3517 0.635257,-0.79502 0.568387,-0.98517 -0.06687,-0.19015 -0.177168,-0.84349 -0.245106,-1.45186 -0.135335,-1.21188 0.260767,-1.78046 1.251003,-1.79574 0.390597,-0.006 0.624626,-0.25399 0.793809,-0.84108 0.224929,-0.78053 0.114065,-0.989 -1.774889,-3.33753 -1.108141,-1.37774 -2.014803,-2.58171 -2.014803,-2.67549 0,-0.22461 4.473723,-7.88675 12.95761,-22.19246 l 0.588408,-0.99219 h 18.239424 c 18.202205,0 18.238842,-10e-4 17.954121,-0.5331 -0.225276,-0.42093 -0.197979,-0.5666 0.129736,-0.69235 0.307684,-0.11807 0.341059,-0.24841 0.12903,-0.50388 -0.213167,-0.25685 -0.164349,-0.41292 0.191685,-0.61277 0.449379,-0.25226 0.450424,-0.27866 0.01765,-0.4454 -0.341625,-0.13163 -0.449395,-0.44922 -0.418653,-1.23375 0.02278,-0.58107 0.182374,-1.11059 0.354682,-1.17671 0.174889,-0.0671 0.258545,-0.40657 0.18937,-0.76842 -0.09192,-0.48084 -0.0086,-0.64821 0.322744,-0.64821 0.316143,0 0.422735,-0.18252 0.364794,-0.62467 -0.04502,-0.34357 0.05519,-0.79006 0.222705,-0.99219 0.492572,-0.59437 -0.382913,-1.425844 -1.501322,-1.425844 -0.749239,0 -0.925791,-0.100886 -0.926042,-0.529167 -2.14e-4,-0.368435 -0.201223,-0.551397 -0.661768,-0.60235 -1.266399,-0.140115 -2.249815,-0.281096 -2.38125,-0.341371 -0.07276,-0.03337 -0.338346,-0.07281 -0.590187,-0.08764 -0.251844,-0.01484 -0.455329,-0.146034 -0.452189,-0.291555 0.0031,-0.145521 0.268724,-0.228357 0.590188,-0.184082 0.321463,0.04428 0.882136,0.100756 1.245938,0.125508 0.363802,0.02477 0.792113,0.214924 0.951802,0.422601 0.213079,0.277114 0.341156,0.295373 0.481303,0.06861 0.105027,-0.169939 0.33156,-0.219564 0.503407,-0.110278 0.171844,0.109283 0.431353,0.200525 0.576681,0.202753 0.14533,0.0021 0.264392,0.242175 0.264583,0.533217 2.51e-4,0.381818 0.184534,0.535575 0.661807,0.552177 1.082075,0.03764 1.828536,0.391952 1.674032,0.794581 -0.07779,0.20272 0.04951,0.44185 0.282893,0.53141 0.6522,0.25027 0.503055,0.6927 -0.170987,0.50722 -0.53961,-0.1485 -0.553265,-0.1298 -0.145931,0.1998 0.414195,0.33515 0.387591,0.41784 -0.33977,1.05609 -0.62915,0.55207 -0.754528,0.83042 -0.618387,1.37286 0.145839,0.58106 0.09888,0.65544 -0.321685,0.50951 -0.471776,-0.1637 -0.471454,-0.1545 0.0077,0.21904 0.449342,0.35032 0.45606,0.40684 0.06615,0.55646 -0.56161,0.21551 -0.553376,0.69898 0.01905,1.11753 0.383043,0.28009 0.398476,0.39701 0.0999,0.75678 -0.194228,0.23403 -0.245332,0.4255 -0.113567,0.4255 0.308068,0 0.263623,1.05931 -0.06941,1.65441 -0.239008,0.42709 -1.508392,0.46325 -18.483745,0.52657 l -18.227118,0.068 -4.061591,6.87917 c -5.687017,9.63217 -7.843733,13.30072 -8.656436,14.7245 l -0.702521,1.23076 2.101037,2.60397 c 2.019117,2.50244 2.088737,2.63411 1.785571,3.37709 -0.173506,0.42521 -0.519208,0.87248 -0.768226,0.99392 -0.249018,0.12144 -0.66112,0.32315 -0.915781,0.44825 -0.474926,0.23329 -0.542807,0.89497 -0.244719,2.38541 0.130895,0.65448 0.0345,0.90165 -0.522534,1.33981 -0.57468,0.45204 -0.655203,0.67432 -0.507571,1.40116 0.09651,0.47513 0.208187,1.102 0.248177,1.39305 0.03999,0.29104 0.21293,0.78923 0.384313,1.10708 0.42872,0.79513 0.3902,1.67482 -0.09691,2.21306 -0.224681,0.24828 -0.470349,0.79343 -0.545929,1.21146 -0.07558,0.41804 -0.368,1.00586 -0.649822,1.30628 -0.707512,0.7542 -0.653126,0.94579 0.481591,1.69651 0.869895,0.57552 4.953677,3.73886 9.297652,7.20206 0.785459,0.6262 1.913667,1.41075 2.507129,1.74344 0.593462,0.33269 2.219889,1.31902 3.614281,2.19183 3.37257,2.11106 8.887479,4.33874 12.008691,4.85077 2.887848,0.47374 8.159102,0.60991 12.336849,0.31868 2.433647,-0.16964 3.536166,-0.12292 5.417444,0.2296 2.667656,0.49987 7.607519,2.27642 9.978177,3.58849 0.252688,0.13985 0.636762,0.25428 0.853501,0.25428 0.216739,0 0.783902,0.23768 1.260361,0.52817 1.033606,0.63019 1.527748,0.6733 1.527748,0.13329 0,-0.21829 -0.12852,-0.39688 -0.28561,-0.39688 -0.454664,0 -0.002,-1.61268 0.72492,-2.57969 0.35528,-0.47294 0.80558,-0.85989 1.00068,-0.85989 0.1951,0 0.42247,-0.2699 0.50526,-0.59978 0.0895,-0.35648 0.69364,-0.91696 1.48937,-1.3817 0.73636,-0.43005 1.5923,-1.11266 1.90209,-1.51689 0.3098,-0.40423 0.78359,-0.73497 1.05286,-0.73497 0.26928,0 0.4896,-0.11906 0.4896,-0.26458 0,-0.40323 1.41927,-0.31532 1.99995,0.12388 0.82608,0.62482 1.05551,0.48135 1.40387,-0.87785 0.51118,-1.99452 2.53604,-3.74395 4.33342,-3.74395 0.49108,0 1.1224,-0.16784 1.40295,-0.37297 0.49526,-0.36215 0.49598,-0.38855 0.0246,-0.90937 -0.26698,-0.29502 -0.41554,-0.64947 -0.33012,-0.78767 0.20666,-0.33438 -0.53401,-0.93258 -0.88563,-0.71527 -0.16437,0.10158 -0.27618,-0.10344 -0.27618,-0.50639 0,-0.37239 0.0952,-0.67708 0.21146,-0.67708 0.1163,0 0.16294,-0.41551 0.10366,-0.92335 -0.12711,-1.08875 0.48578,-1.50831 1.22546,-0.83891 0.42309,0.3829 0.52783,0.37575 1.22856,-0.0839 0.59799,-0.39227 0.88227,-0.44031 1.29583,-0.21898 0.43373,0.23213 0.61886,0.17353 1.0211,-0.32321 0.37273,-0.46031 0.56538,-0.53267 0.79824,-0.2998 0.49302,0.49302 0.96032,0.36432 0.80694,-0.22223 -0.0761,-0.29104 -0.0128,-0.52917 0.14073,-0.52917 0.36705,0 1.63299,-1.21132 2.52659,-2.41758 0.67026,-0.90479 0.77089,-0.94929 1.68184,-0.74384 0.53291,0.12019 1.07017,0.15595 1.19392,0.0795 0.12375,-0.0765 0.20664,-0.69425 0.18419,-1.37283 -0.0224,-0.67857 0.0452,-1.5002 0.15036,-1.82586 0.13717,-0.42489 0.0706,-0.63836 -0.23574,-0.75591 -0.23479,-0.0901 -0.42689,-0.43614 -0.42689,-0.76898 0,-0.33285 -0.34335,-0.97273 -0.76299,-1.42196 -0.41965,-0.44923 -0.81679,-1.18327 -0.88253,-1.63119 -0.0986,-0.67153 0.001,-0.87681 0.56835,-1.17012 0.80884,-0.41827 1.58608,-2.20876 1.09149,-2.51443 -0.38975,-0.24088 -0.25702,-1.29379 0.25491,-2.02206 0.23071,-0.32823 1.40383,-0.92745 2.84888,-1.45521 1.92487,-0.703 2.8738,-1.24416 4.38377,-2.50001 1.05992,-0.88155 2.92346,-2.17749 4.14119,-2.87988 1.21773,-0.70239 2.76972,-1.79682 3.44887,-2.43209 0.67915,-0.63526 1.32918,-1.15502 1.44452,-1.15502 0.11534,0 0.76678,-0.50601 1.44765,-1.12448 0.68088,-0.61846 2.20455,-1.8843 3.38594,-2.81297 1.85453,-1.4578 2.43071,-2.0613 2.55594,-2.67713 0.0914,-0.44917 0.48792,-0.74942 0.82103,-0.6216 0.21362,0.082 0.3884,0.0173 0.3884,-0.14384 0,-0.1611 0.23812,-0.2929 0.52916,-0.2929 0.29104,0 0.52917,-0.10992 0.52917,-0.24428 0,-0.58505 -1.50686,-1.9473 -3.1327,-2.83207 -2.16043,-1.17568 -3.8277,-2.29686 -5.13629,-3.45397 -0.54612,-0.48291 -1.23073,-0.87801 -1.52135,-0.87801 -0.7308,0 -0.65796,0.31201 0.20087,0.86045 2.95257,1.8855 3.5411,2.70181 1.82417,2.53018 -0.74406,-0.0744 -0.83494,-0.008 -0.84558,0.61797 -0.007,0.38572 -0.15436,0.87293 -0.32844,1.08268 -0.17408,0.20975 -0.25513,0.44274 -0.18012,0.51776 0.075,0.075 -0.0451,0.28699 -0.26687,0.47107 -0.2218,0.18408 -0.40327,0.55823 -0.40327,0.83145 0,0.27323 -0.0893,0.50588 -0.19844,0.51702 -0.10914,0.0111 -0.41416,0.0612 -0.67783,0.11128 -0.60628,0.11514 -0.8757,-0.54059 -0.43855,-1.06733 0.3907,-0.47076 0.47396,-0.37491 -1.22799,-1.4138 -1.5579,-0.95097 -2.21394,-1.03685 -2.40283,-0.31454 -0.0828,0.31646 -0.28143,0.45413 -0.52211,0.36177 -0.24559,-0.0942 -0.87274,0.37485 -1.70473,1.27508 -1.0158,1.09913 -1.46465,1.40475 -1.96665,1.33909 -0.35775,-0.0468 -0.65046,0.0425 -0.65046,0.19843 0,0.15594 -0.31253,0.28352 -0.69453,0.28352 -0.6227,0 -0.67891,0.0781 -0.5435,0.75517 0.0831,0.41534 0.0178,0.88836 -0.14495,1.05116 -0.21827,0.21826 -0.21451,0.47484 0.0143,0.97707 0.51849,1.13796 0.36152,1.52937 -1.15894,2.88981 -1.77413,1.58743 -2.95769,2.04045 -4.77716,1.82851 -1.12696,-0.13127 -1.41336,-0.0752 -1.72301,0.33761 -0.62656,0.83518 -1.43141,1.17354 -1.92661,0.80995 -0.49576,-0.364 -0.76621,-1.42553 -0.418,-1.64073 0.49019,-0.30295 -0.0554,-0.83504 -0.81018,-0.79014 -0.43012,0.0256 -0.78203,-0.0604 -0.78203,-0.19114 0,-0.13071 -0.11906,-0.16408 -0.26458,-0.0741 -0.46588,0.28793 -0.26722,-0.24263 0.35531,-0.9489 0.71689,-0.81333 2.02271,-1.32055 2.84568,-1.10534 0.43472,0.11368 0.73864,-0.0302 1.148,-0.54363 0.48647,-0.61009 0.7975,-0.71408 2.46349,-0.8236 1.8725,-0.1231 2.9771,-0.46906 2.9771,-0.93244 0,-0.12884 0.35719,-0.31271 0.79375,-0.40859 0.56044,-0.12309 0.79375,-0.33045 0.79375,-0.70546 0,-0.34796 0.27557,-0.63515 0.79903,-0.83273 0.43947,-0.16588 0.74758,-0.43569 0.68469,-0.59957 -0.1235,-0.32186 0.7297,-1.16953 1.17716,-1.16953 0.15048,0 0.55394,-0.28036 0.8966,-0.62301 0.77444,-0.77444 1.32935,-0.99891 1.6577,-0.67056 0.30466,0.30466 1.19321,0.0146 0.98539,-0.32166 -0.0805,-0.13027 0.0322,-0.23686 0.25049,-0.23686 0.78058,0 0.70394,-0.53035 -0.15411,-1.06654 -0.63873,-0.39914 -1.13509,-0.50655 -1.84972,-0.4003 -0.75786,0.11269 -1.0543,0.0358 -1.32291,-0.34302 -0.23159,-0.32662 -0.69657,-0.49596 -1.40453,-0.51152 -1.85136,-0.0407 -2.09684,-0.0783 -2.26276,-0.34678 -0.10597,-0.17147 -0.39589,-0.17398 -0.83445,-0.007 -0.46831,0.17805 -0.7658,0.16178 -0.98125,-0.0537 -0.19915,-0.19914 -0.37591,-0.21581 -0.49662,-0.0468 -0.22581,0.31611 -1.38048,0.34642 -1.84106,0.0483 -0.20113,-0.13017 -0.33073,-0.087 -0.33073,0.11024 0,0.17836 -0.0784,0.24595 -0.1741,0.1502 -0.0957,-0.0957 -0.33675,-0.0391 -0.53556,0.1259 -0.1988,0.165 -0.44364,0.21782 -0.54407,0.11738 -0.10044,-0.10043 0.15172,-5.32639 0.56034,-11.61322 0.40863,-6.286845 0.89796,-13.832963 1.08741,-16.769158 0.23713,-3.675269 0.29939,-8.600657 0.19981,-15.808854 l -0.1446,-10.47066 H 101.27028 75.513387 v 8.069791 8.069792 h -6.349999 c -5.468056,0 -6.35,0.05512 -6.35,0.396875 0,0.262398 0.262451,0.396875 0.774547,0.396875 0.521618,0 0.953616,0.22765 1.322916,0.69714 0.301604,0.383426 0.54837,0.56202 0.54837,0.396875 0,-0.350562 1.290452,-0.396555 1.814251,-0.06466 0.214384,0.135839 0.291917,0.438991 0.192439,0.752424 -0.234482,0.738783 0.07737,1.393222 0.6639,1.393222 0.310947,0 0.632005,0.322239 0.85675,0.859896 0.420336,1.005575 0.941187,1.488498 1.874671,1.738151 0.370337,0.09904 0.680508,0.29914 0.689266,0.444661 0.0088,0.145521 0.451906,0.711068 0.984771,1.256771 0.532866,0.545703 0.855385,1.001017 0.716711,1.011809 -0.138673,0.0108 0.224116,0.230071 0.806199,0.487289 0.932556,0.412083 1.092869,0.420671 1.348925,0.07225 0.345789,-0.470527 0.999914,-0.162738 0.794084,0.373647 -0.08261,0.215273 0.02328,0.370112 0.253095,0.370112 0.217315,0 0.502634,0.28279 0.634044,0.62842 0.181997,0.47869 0.389158,0.599705 0.869437,0.507892 0.376433,-0.07196 0.770361,0.04797 0.977548,0.297622 0.190871,0.229981 0.689645,0.41815 1.108387,0.41815 0.50037,0 0.761355,0.136043 0.761355,0.396875 0,0.218281 0.1584,0.396875 0.351999,0.396875 0.532418,0 3.087584,2.450952 3.087584,2.961653 0,0.245687 0.119062,0.520284 0.264583,0.610222 0.145521,0.08994 0.264584,0.355478 0.264584,0.590095 0,0.234614 0.195027,0.642072 0.43339,0.905462 0.334298,0.369395 0.363503,0.563102 0.127727,0.847193 -0.395779,0.476885 -0.134731,1.140529 0.515517,1.310574 0.280977,0.07348 0.510865,0.27083 0.510865,0.438563 0,0.178017 -0.137673,0.218773 -0.330729,0.09791 -0.181901,-0.113882 -0.508246,-0.210206 -0.725209,-0.214053 -0.259821,-0.0046 -0.395296,-0.277945 -0.396875,-0.800743 -0.0013,-0.436563 -0.135287,-0.880044 -0.29771,-0.985515 -0.162422,-0.105471 -0.237929,-0.491953 -0.167793,-0.858848 0.252632,-1.321554 -1.810364,-4.170199 -3.288792,-4.541261 -0.337547,-0.08472 -0.613725,-0.31972 -0.613725,-0.522226 0,-0.229233 -0.287345,-0.368192 -0.761354,-0.368192 -0.418743,0 -0.908616,-0.177443 -1.088607,-0.394316 -0.204515,-0.246428 -0.559662,-0.335987 -0.946922,-0.238792 -0.508389,0.127598 -0.651156,0.03008 -0.794994,-0.543015 -0.116641,-0.464736 -0.327067,-0.672836 -0.628687,-0.621739 -0.249349,0.04224 -0.860245,-0.118735 -1.357545,-0.357728 -0.4973,-0.238992 -1.2221,-0.581162 -1.610664,-0.760378 -0.388565,-0.179212 -0.653392,-0.464193 -0.588502,-0.633288 0.06489,-0.169095 -0.238041,-0.648531 -0.673174,-1.065416 -0.435134,-0.416883 -0.728827,-0.858814 -0.652653,-0.982065 0.07618,-0.123253 -0.142828,-0.224096 -0.486672,-0.224096 -0.638181,0 -2.316475,-1.484276 -2.316475,-2.04868 0,-0.167034 -0.327422,-0.463798 -0.727604,-0.659479 -0.585973,-0.28653 -0.719974,-0.521438 -0.688404,-1.206786 0.03215,-0.69809 -0.07724,-0.880223 -0.608835,-1.013645 -0.459716,-0.115382 -0.753692,-0.01879 -1.011621,0.332449 -0.345398,0.470329 -0.377486,0.458698 -0.641387,-0.232505 -0.2178,-0.570452 -0.449337,-0.727604 -1.072002,-0.727604 -0.838197,0 -1.80839,-1.036503 -1.475046,-1.575864 0.11091,-0.179459 2.389692,-0.27622 6.505098,-0.27622 h 6.334384 v -7.9375 -7.9375 l 14.882812,-0.03648 c 18.354064,-0.04498 37.069314,0.05553 37.221384,0.199895 0.0625,0.0593 0.16323,4.898591 0.22392,10.753974 0.10399,10.033138 0.056,11.468828 -0.83368,24.933648 -0.51922,7.858124 -1.01762,15.269764 -1.10757,16.470314 -0.0899,1.20055 -0.0855,2.18281 0.01,2.18281 0.0954,0 0.41134,-0.12732 0.70212,-0.28294 0.37281,-0.19953 0.62839,-0.2002 0.86685,-0.002 0.18599,0.15435 0.39805,0.22075 0.47125,0.14756 0.21842,-0.21843 3.18859,-0.38374 3.49476,-0.19451 0.3737,0.23096 1.12941,0.34507 2.34096,0.35349 0.70696,0.005 1.06955,0.15472 1.26689,0.52346 0.22878,0.42748 0.45457,0.48811 1.30896,0.35149 0.80094,-0.12808 1.24367,-0.0346 1.97425,0.41694 0.51798,0.32013 0.94177,0.6914 0.94177,0.82505 0,0.13365 0.0893,0.21478 0.19844,0.18027 0.10914,-0.0345 0.75567,0.32268 1.43674,0.79375 0.68106,0.47107 1.36567,0.85649 1.52135,0.85649 0.38319,0 0.35943,0.87613 -0.0344,1.27 -0.24695,0.24694 -0.18557,0.3175 0.27618,0.3175 0.32652,0 0.57435,-0.14883 0.55073,-0.33073 -0.0822,-0.63325 0.0212,-1.02254 0.23628,-0.8896 0.2949,0.18226 0.96007,-1.67557 0.87132,-2.43363 -0.0664,-0.5674 0.001,-0.60003 0.94165,-0.45485 0.8822,0.13618 0.94852,0.11258 0.51288,-0.1825 -0.27518,-0.1864 -0.89827,-0.69609 -1.38465,-1.13265 -0.48638,-0.43656 -1.13634,-1.01402 -1.44436,-1.28323 -0.38922,-0.34018 -0.47575,-0.57376 -0.28371,-0.7658 0.4044,-0.40441 1.76526,0.23175 3.05993,1.43042 0.59526,0.55112 2.03022,1.51108 3.18881,2.13324 1.15858,0.62216 2.62434,1.57769 3.25723,2.12339 0.6329,0.5457 1.32208,0.99219 1.53151,0.99219 0.20943,0 0.38078,0.11906 0.38078,0.26458 0,0.14552 -0.11906,0.26458 -0.26458,0.26458 -0.14552,0 -0.26459,0.16415 -0.26459,0.36478 0,0.41616 -1.42607,1.08913 -1.80789,0.85316 -0.13878,-0.0858 -0.32658,0.13992 -0.41734,0.50153 -0.0996,0.3968 -1.13358,1.45387 -2.60791,2.66613 -1.34359,1.10476 -2.97284,2.47495 -3.62054,3.04486 -0.6477,0.56992 -1.30814,1.03621 -1.46765,1.03621 -0.15952,0 -0.76067,0.4844 -1.33591,1.07644 -0.57523,0.59204 -2.22357,1.78948 -3.66297,2.66099 -1.43939,0.8715 -3.35601,2.21143 -4.25915,2.97762 -1.23498,1.0477 -2.23047,1.60523 -4.01551,2.24888 -1.90906,0.68838 -2.46649,1.01335 -2.84902,1.66092 -0.40309,0.68238 -0.42415,0.90117 -0.13817,1.43552 0.284,0.53066 0.26318,0.79505 -0.1315,1.6703 -0.2579,0.57192 -0.69364,1.09862 -0.9683,1.17045 -0.80576,0.21071 -0.64612,1.52805 0.29436,2.42909 0.43657,0.41825 0.79375,1.02132 0.79375,1.34014 0,0.31883 0.25504,0.74903 0.56676,0.956 0.50889,0.33789 0.53053,0.44248 0.21194,1.02446 -0.19514,0.35648 -0.36089,1.24346 -0.36831,1.97106 l -0.0135,1.32292 h -1.30578 c -1.23691,0 -1.35361,0.0628 -2.21233,1.19063 -0.4986,0.65484 -1.19676,1.34632 -1.55147,1.53661 -0.45324,0.24314 -0.59855,0.49212 -0.48889,0.83762 0.20539,0.64713 -0.2448,0.89958 -0.94036,0.52733 -0.43474,-0.23266 -0.65323,-0.21292 -0.99766,0.0901 -0.26707,0.235 -0.75641,0.33931 -1.24071,0.26447 -0.58138,-0.0898 -0.93569,0.0267 -1.29778,0.42679 -0.54051,0.59725 -1.25033,0.74332 -1.14366,0.23534 0.0364,-0.17326 -0.15766,-0.36355 -0.4312,-0.42288 -0.43655,-0.0947 -0.47608,0.006 -0.32334,0.81967 0.1208,0.64392 0.0706,0.96451 -0.16411,1.04844 -0.22118,0.0791 -0.0809,0.32736 0.40556,0.71782 0.40903,0.32831 0.684,0.75248 0.61104,0.9426 -0.073,0.19013 0.0389,0.48803 0.2485,0.662 0.73308,0.6084 0.43499,1.17845 -0.80815,1.5455 -0.65412,0.19314 -1.35862,0.28619 -1.56555,0.20678 -0.20694,-0.0794 -0.90754,0.26955 -1.55689,0.77546 -1.23885,0.96517 -2.19887,2.81823 -1.88448,3.63749 0.21841,0.5692 -0.89204,0.6019 -1.62456,0.0479 -0.59386,-0.44918 -1.59831,-0.52613 -1.83651,-0.14071 -0.0899,0.14552 -0.33872,0.26458 -0.55286,0.26458 -0.21414,0 -0.74362,0.4035 -1.17663,0.89666 -0.433,0.49316 -1.20304,1.09396 -1.71121,1.3351 -0.50816,0.24114 -1.1058,0.79014 -1.3281,1.22001 -0.22229,0.42986 -0.52096,0.78157 -0.6637,0.78157 -0.43273,0 -1.43655,1.31203 -1.60376,2.09617 -0.0919,0.43087 -0.013,0.93374 0.18997,1.21133 0.43401,0.59354 0.24151,0.93297 -0.51151,0.90195 -0.318836,-0.0131 -2.615223,-0.90629 -5.10309,-1.9848 z m 29.199793,-45.31864 c -0.0543,-0.33265 0.13945,-0.42342 0.85589,-0.40106 0.50932,0.0159 1.25659,0.0979 1.6606,0.18218 1.07493,0.22429 2.48139,-0.35948 4.06337,-1.68654 1.17404,-0.98487 1.37948,-1.28791 1.29609,-1.91184 -0.0545,-0.4078 -0.22418,-0.89217 -0.37705,-1.07637 -0.19895,-0.23972 -0.15724,-0.50723 0.14675,-0.94123 0.41167,-0.58774 0.40535,-0.60057 -0.20597,-0.41852 -0.34687,0.1033 -1.0805,0.49207 -1.63029,0.86394 -0.9417,0.63694 -1.36995,0.72041 -4.29545,0.83717 -0.29291,0.0117 -0.6501,0.28915 -0.79375,0.61657 -0.19605,0.44688 -0.49208,0.60048 -1.18722,0.61602 -1.38066,0.0309 -2.36256,0.37603 -2.66212,0.93577 -0.22653,0.42328 -0.17219,0.49873 0.35915,0.49873 0.75608,0 1.38464,1.02357 1.15883,1.88708 -0.0862,0.32941 -0.0316,0.74954 0.12115,0.93363 0.37086,0.44687 1.59062,-0.31897 1.49002,-0.93553 z m 11.26885,-8.95765 c 0.31199,-0.39736 0.53748,-0.81408 0.5011,-0.92604 -0.0364,-0.11196 0.0402,-0.20357 0.17013,-0.20357 0.12995,0 0.30587,-0.18135 0.39092,-0.403 0.12617,-0.32878 0.0583,-0.35143 -0.36857,-0.12298 -0.28776,0.15401 -0.52321,0.43634 -0.52321,0.6274 0,0.19106 -0.48888,0.56783 -1.0864,0.83728 -0.90465,0.40794 -1.00424,0.52221 -0.59531,0.68304 0.7881,0.30997 0.91368,0.26908 1.51134,-0.49213 z M 76.042554,86.441208 c 0,-0.145521 -0.119063,-0.264584 -0.264583,-0.264584 -0.145521,0 -0.264584,0.119063 -0.264584,0.264584 0,0.145521 0.119063,0.264583 0.264584,0.264583 0.14552,0 0.264583,-0.119062 0.264583,-0.264583 z"
         id="path79" />
      <path
         style="fill:#ff7200;fill-opacity:1;stroke:#ff7200;stroke-width:1;stroke-miterlimit:4;stroke-dasharray:none;stroke-opacity:1"
         d="m 97.606094,174.94848 c -1.018645,-0.48728 -1.650751,-0.89591 -1.404678,-0.90808 0.246073,-0.0122 0.520991,0.0969 0.610929,0.24247 0.08994,0.14553 0.405606,0.26459 0.701487,0.26459 0.295881,0 0.840692,0.23812 1.210691,0.52916 0.369998,0.29105 0.894794,0.52917 1.166211,0.52917 0.520436,0 0.679696,-0.64744 0.227936,-0.92664 -0.621543,-0.38413 0.88587,-3.30669 1.70554,-3.30669 0.1951,0 0.42429,-0.27717 0.50932,-0.61594 0.0974,-0.38797 0.64922,-0.88514 1.49106,-1.34333 0.73506,-0.40007 1.59377,-1.0754 1.90823,-1.50073 0.31446,-0.42534 0.76367,-0.77334 0.99824,-0.77334 0.23457,0 0.55564,-0.12914 0.71348,-0.28698 0.15784,-0.15784 0.5686,-0.23359 0.91281,-0.16832 0.58604,0.11111 0.58056,0.12095 -0.0862,0.15469 -0.3916,0.0198 -0.78558,0.15509 -0.87551,0.30061 -0.0899,0.14553 -0.34278,0.26459 -0.56187,0.26459 -0.21908,0 -0.70328,0.36241 -1.076,0.80535 -0.37271,0.44294 -1.13647,1.03942 -1.69725,1.32551 -0.56078,0.28609 -1.19934,0.86775 -1.41903,1.29257 -0.21968,0.42482 -0.6282,0.84501 -0.90782,0.93376 -1.06306,0.3374 -1.825923,2.32714 -1.21012,3.15627 0.90905,1.22395 -0.39505,1.23795 -2.917496,0.0313 z m -4.233333,-1.86115 c -0.944128,-0.45239 -1.095644,-0.58644 -0.529166,-0.46815 0.774443,0.16171 2.642123,1.14758 2.116666,1.1173 -0.145521,-0.008 -0.859895,-0.3005 -1.5875,-0.64915 z m -3.653239,-1.32544 c -2.904702,-1.01521 -5.458603,-1.27949 -9.128246,-0.94462 -1.751518,0.15983 -3.630417,0.2906 -4.175331,0.2906 -1.701904,0 -0.802209,-0.28007 1.246449,-0.38802 1.073618,-0.0566 2.924886,-0.18163 4.113929,-0.27791 1.235218,-0.10002 2.993096,-0.0486 4.101042,0.11988 1.801071,0.27394 6.040188,1.50802 6.040188,1.75841 0,0.18063 -0.306329,0.10282 -2.198031,-0.55834 z m -16.058218,-0.75628 c 0,-0.0562 0.350898,-0.15376 0.779777,-0.21671 0.428877,-0.0629 0.719506,-0.0169 0.645843,0.10226 -0.131104,0.21214 -1.42562,0.31606 -1.42562,0.11445 z m -2.442657,-0.35407 c 0.475549,-0.0589 1.189924,-0.0577 1.5875,0.003 0.397576,0.0604 0.0085,0.10855 -0.864634,0.10706 -0.873125,-0.002 -1.198415,-0.0509 -0.722866,-0.10976 z m -2.981301,-0.2559 c -3.191573,-0.7339 -3.298132,-1.00117 -0.132292,-0.33182 1.236927,0.26152 1.891771,0.47055 1.455209,0.4645 -0.436563,-0.006 -1.031875,-0.0658 -1.322917,-0.13268 z m -4.7625,-1.65934 c -0.873125,-0.41691 -1.468437,-0.75911 -1.322916,-0.76045 0.352422,-0.003 3.51473,1.50194 3.175,1.51123 -0.145521,0.004 -0.978959,-0.33387 -1.852084,-0.75078 z m -2.910416,-1.13257 c -0.883563,-0.31988 -3.307292,-1.75925 -3.307292,-1.96409 0,-0.0722 0.411809,0.12334 0.91513,0.43441 0.865434,0.53487 1.522442,0.86491 3.05362,1.53398 0.853665,0.37302 0.372102,0.36989 -0.661458,-0.004 z m 48.79025,-0.40374 c -0.29379,-0.38869 -0.29003,-0.40785 0.0249,-0.12701 0.531,0.47351 1.05812,0.4079 1.06285,-0.13229 0.002,-0.25466 0.0975,-0.61011 0.21166,-0.78989 0.12465,-0.19624 0.20762,0.0204 0.20762,0.54198 0,0.70349 -0.11049,0.878 -0.58053,0.9169 -0.31929,0.0264 -0.73622,-0.15793 -0.92651,-0.40969 z m 1.62092,-1.83205 c -0.004,-0.17379 0.25984,-0.59634 0.58726,-0.93901 0.32743,-0.34267 0.46316,-0.4386 0.30162,-0.21319 -0.16153,0.22541 -0.42579,0.64797 -0.58726,0.93901 -0.16147,0.29104 -0.2972,0.38698 -0.30162,0.21319 z M 54.32877,164.01 c -0.955758,-0.53456 -2.324977,-1.49262 -3.042708,-2.12903 -0.71773,-0.63642 -0.937203,-0.90986 -0.487716,-0.60767 0.449487,0.3022 0.978144,0.74332 1.174794,0.98027 0.19665,0.23695 1.019513,0.76866 1.828585,1.18158 1.331477,0.67954 2.729252,1.58839 2.39708,1.55862 -0.07276,-0.007 -0.914276,-0.44922 -1.870035,-0.98377 z m 58.33728,-0.80517 c 0.0782,-0.12658 0.49322,-0.37552 0.9222,-0.55321 0.59295,-0.24561 0.89565,-0.24987 1.26245,-0.0178 0.42174,0.26688 0.39626,0.28728 -0.20235,0.16202 -0.39682,-0.083 -0.89753,0.0177 -1.19062,0.23947 -0.56467,0.42731 -1.00994,0.52262 -0.79168,0.16946 z m 3.39473,-0.90743 c 0.81702,-0.32284 0.92561,-0.74999 0.31869,-1.25369 -0.2249,-0.18665 -0.35327,-0.48438 -0.28526,-0.66161 0.068,-0.17723 -0.0159,-0.47984 -0.1864,-0.67245 -0.25568,-0.28881 -0.23162,-0.29107 0.13724,-0.0129 0.24602,0.18552 0.38943,0.48813 0.31869,0.67245 -0.0707,0.18433 0.0554,0.48786 0.28031,0.67451 0.60655,0.50339 0.49687,1.04799 -0.26976,1.33946 -0.37328,0.14192 -0.76023,0.24537 -0.8599,0.22989 -0.0997,-0.0155 0.14621,-0.15753 0.54639,-0.31566 z m -67.424663,-2.45343 -1.03627,-0.94516 1.124479,0.85715 c 1.027494,0.78322 1.278192,1.03316 1.03627,1.03316 -0.04852,0 -0.554531,-0.42532 -1.124479,-0.94515 z m 66.336213,-0.70849 c -0.0198,-0.40018 0.0591,-0.72761 0.17543,-0.72761 0.1163,0 0.1628,-0.41671 0.10334,-0.92604 -0.10204,-0.87403 -0.0656,-0.92401 0.64844,-0.89001 0.66218,0.0315 0.67913,0.0507 0.13587,0.15402 -0.55009,0.10457 -0.60139,0.22083 -0.45103,1.0223 0.0989,0.52742 0.062,0.90432 -0.0885,0.90432 -0.142,0 -0.30977,0.26789 -0.37283,0.59531 -0.0983,0.51042 -0.1198,0.49155 -0.1507,-0.13229 z m -68.827691,-1.29264 -1.190625,-1.07842 1.120808,0.84106 c 0.974818,0.73149 1.60058,1.34862 1.342203,1.32367 -0.04497,-0.004 -0.617542,-0.49318 -1.272386,-1.08631 z m 70.379161,-0.5374 c 0,-0.16977 0.0722,-0.23647 0.16046,-0.14822 0.0883,0.0883 0.40836,-0.0705 0.71135,-0.35278 0.30299,-0.28228 0.65664,-0.51323 0.78588,-0.51323 0.12925,0 -0.11875,0.29765 -0.5511,0.66146 -0.87353,0.73502 -1.10659,0.80932 -1.10659,0.35277 z m -73.470939,-1.76159 c -2.219127,-1.67735 -2.432518,-1.97732 -0.415341,-0.58387 1.399844,0.967 2.503143,1.91135 2.150453,1.84064 -0.0542,-0.0109 -0.834999,-0.57642 -1.735112,-1.25677 z m 75.852189,0.98293 c -0.32594,-0.23447 -0.30677,-0.25605 0.10728,-0.12076 0.32059,0.10475 0.71555,-0.0339 1.08477,-0.38073 0.5159,-0.48466 0.61814,-0.50024 0.9173,-0.13977 0.52108,0.62785 0.82597,0.48086 0.66773,-0.32192 -0.13625,-0.69125 -0.12987,-0.69664 0.12777,-0.10785 0.44021,1.00605 -0.12005,1.46579 -0.87107,0.71477 -0.3373,-0.3373 -0.44358,-0.32083 -0.85366,0.13229 -0.53823,0.59474 -0.63829,0.61373 -1.18012,0.22397 z m 3.84519,-2.02556 c 0.15032,-0.10691 0.71667,-0.80675 1.25856,-1.55518 0.96469,-1.33242 1.00559,-1.35621 1.96104,-1.14072 1.24168,0.28004 1.39393,0.17205 1.43791,-1.01983 0.0246,-0.66655 0.0736,-0.77904 0.15422,-0.35435 0.065,0.34222 0.048,0.90206 -0.0379,1.24409 -0.14319,0.57053 -0.25966,0.61022 -1.41099,0.48082 l -1.25491,-0.14104 -0.90131,1.34435 c -0.49572,0.73939 -1.0315,1.34252 -1.19062,1.3403 -0.19493,-0.003 -0.20015,-0.0675 -0.016,-0.19844 z M 40.232154,153.4257 c -0.411442,-0.45464 -0.399412,-0.50505 0.196668,-0.82406 0.349204,-0.18689 0.758031,-0.59405 0.908502,-0.9048 0.192719,-0.398 0.278877,-0.44225 0.291491,-0.1497 0.0098,0.22842 -0.288596,0.68181 -0.663212,1.00753 -0.548791,0.47717 -0.619602,0.66635 -0.364478,0.97376 0.460832,0.55527 0.14758,0.46805 -0.368971,-0.10273 z m 1.293484,-2.69074 c 0.110865,-0.21828 0.349765,-0.57547 0.530889,-0.79375 0.181124,-0.21828 0.387327,-0.635 0.45823,-0.92604 l 0.128915,-0.52917 0.02118,0.52917 c 0.01165,0.29104 -0.285265,0.88635 -0.659804,1.32291 -0.374539,0.43657 -0.590272,0.61516 -0.479407,0.39688 z m 86.177612,-2.13566 c 0.0821,-0.23559 -0.0589,-0.54311 -0.32524,-0.70942 -0.25853,-0.16146 -0.52276,-0.65265 -0.58718,-1.09152 -0.0644,-0.43888 -0.0196,-0.73768 0.0996,-0.66402 0.11919,0.0737 0.21671,0.41004 0.21671,0.7475 0,0.34023 0.26521,0.79352 0.59532,1.01749 0.50726,0.34418 0.54063,0.45657 0.22564,0.75988 -0.31118,0.29964 -0.34676,0.29016 -0.22484,-0.0599 z m -85.640219,-0.91453 c -0.241065,-0.36791 -0.368315,-0.78216 -0.282778,-0.92057 0.08554,-0.1384 0.01638,-0.52199 -0.153682,-0.85242 -0.257236,-0.49981 -0.249609,-0.5444 0.04538,-0.26535 0.195022,0.18448 0.36703,0.6012 0.38224,0.92604 0.01521,0.32484 0.172067,0.8585 0.34857,1.18593 0.434329,0.8057 0.203676,0.75572 -0.339729,-0.0736 z m 83.629899,-2.46075 c -0.62472,-0.69032 -0.57682,-2.08222 0.0788,-2.29032 0.8181,-0.25965 1.77468,-2.51749 1.06659,-2.51749 -0.39175,0 -0.21166,-1.54958 0.19837,-1.70693 0.27442,-0.1053 0.28481,-0.0166 0.0495,0.42304 -0.22442,0.41932 -0.21682,0.70745 0.0309,1.17025 0.27177,0.50781 0.25172,0.77593 -0.116,1.55085 -0.24453,0.51529 -0.67789,1.06175 -0.96304,1.21436 -0.64143,0.34328 -0.68424,1.48918 -0.0806,2.15624 0.24083,0.26612 0.37835,0.48385 0.30559,0.48385 -0.0728,0 -0.32934,-0.21773 -0.57018,-0.48385 z m -84.280099,-0.4779 c -0.01919,-0.35313 0.242064,-0.73096 0.696912,-1.00789 0.721274,-0.43916 0.722672,-0.43868 0.160692,0.0551 -0.311802,0.27398 -0.625412,0.72753 -0.696912,1.0079 -0.117777,0.46182 -0.132886,0.45664 -0.160692,-0.0551 z m 1.175154,-2.01481 c -0.277394,-0.91319 -0.32923,-1.49191 -0.158393,-1.76833 0.103865,-0.16806 0.204928,0.12228 0.224587,0.64519 0.01966,0.52291 0.105705,1.06395 0.191216,1.20231 0.08551,0.13836 0.08518,0.25156 -7.41e-4,0.25156 -0.08592,0 -0.201419,-0.14883 -0.256673,-0.33073 z m -0.147513,-2.56407 c 0,-0.13693 0.117699,-0.32171 0.261553,-0.41062 0.149982,-0.0927 0.194339,0.0135 0.103984,0.24897 -0.175892,0.45837 -0.365537,0.54223 -0.365537,0.16165 z m 1.156322,-0.51187 c 0.272174,-0.10696 0.6399,-0.54507 0.817169,-0.97359 0.311303,-0.75252 0.251506,-0.86593 -1.751634,-3.3223 -1.140667,-1.39875 -2.07394,-2.60388 -2.07394,-2.67806 0,-0.17596 2.616209,-4.79034 3.490163,-6.15584 0.372549,-0.58208 2.789185,-4.65997 5.370302,-9.06198 l 4.69294,-8.00364 h 18.18973 18.189733 L 90.39481,108.7985 c -0.07729,-0.4043 -0.0047,-0.66146 0.186812,-0.66146 0.192852,0 0.248703,-0.20339 0.145306,-0.52917 -0.105426,-0.33216 -0.04754,-0.52916 0.155469,-0.52916 0.217557,0 0.185296,-0.15263 -0.09855,-0.46628 -0.491403,-0.54299 -0.522656,-2.16974 -0.04521,-2.35295 0.179679,-0.069 0.266808,-0.35435 0.193619,-0.63423 -0.08252,-0.31555 0.0291,-0.57109 0.293823,-0.67268 0.234791,-0.0901 0.426892,-0.31693 0.426892,-0.50407 0,-0.18714 0.18833,-0.41253 0.418515,-0.50086 0.783368,-0.30061 0.758693,-0.16146 -0.112458,0.63421 -0.635792,0.58071 -0.825056,0.93708 -0.702596,1.32292 0.125322,0.39485 0.04629,0.52913 -0.313235,0.53216 -0.412155,0.003 -0.424151,0.0442 -0.08398,0.28472 0.298664,0.21122 0.315034,0.31388 0.06615,0.41487 -0.459042,0.18626 -0.413991,1.01454 0.07736,1.42233 0.255785,0.21228 0.314917,0.43185 0.158437,0.58833 -0.139602,0.1396 -0.159046,0.56556 -0.04411,0.96631 0.131223,0.45755 0.08731,0.87835 -0.121459,1.16386 -0.301509,0.41233 -1.740038,0.44719 -18.455536,0.44719 -14.185791,0 -18.185893,0.0719 -18.392256,0.33073 -0.469037,0.58822 -13.294824,22.39182 -13.294824,22.60095 0,0.0609 0.922734,1.24355 2.05052,2.62812 1.165513,1.43088 2.012951,2.71047 1.963473,2.96474 -0.154066,0.79174 -0.838069,1.6385 -1.308114,1.61936 -0.402925,-0.0164 -0.398441,-0.0416 0.03794,-0.21307 z m 83.775116,-1.58308 c 1.1e-4,-0.0933 1.14213,-0.58437 2.53783,-1.09129 1.97935,-0.7189 2.92521,-1.24768 4.29929,-2.40348 0.9689,-0.815 2.0593,-1.62307 2.4231,-1.79572 0.55545,-0.26359 0.58039,-0.26003 0.1556,0.0222 -0.27822,0.18487 -1.31155,1.01903 -2.29628,1.85367 -1.3786,1.16849 -2.40334,1.75523 -4.45508,2.55088 -1.46556,0.56833 -2.66456,0.957 -2.66446,0.86371 z m 10.05397,-5.69248 c 0,-0.0781 0.80745,-0.62175 1.79433,-1.20804 0.98688,-0.5863 2.2612,-1.54411 2.83182,-2.12848 0.57062,-0.58438 1.16857,-1.0625 1.32877,-1.0625 0.16021,0 0.69345,-0.41493 1.18499,-0.92208 0.49154,-0.50714 0.94114,-0.87465 0.9991,-0.81669 0.15286,0.15286 -1.86943,1.9877 -2.20012,1.99619 -0.15336,0.004 -0.68914,0.43687 -1.19063,0.96206 -0.50149,0.52519 -1.32852,1.21683 -1.83784,1.53698 -2.09539,1.31711 -2.91042,1.77709 -2.91042,1.64256 z m -14.91316,-2.62891 c -0.42423,-0.31888 -0.45278,-1.58581 -0.0444,-1.96897 0.11609,-0.10891 0.13241,0.23744 0.0363,0.76966 -0.12241,0.67771 -0.0735,1.00235 0.16333,1.08338 0.48376,0.16555 1.57976,-0.61045 1.42645,-1.00996 -0.13814,-0.35998 0.53206,-0.73688 0.90284,-0.50773 0.24408,0.15085 -0.67377,1.13134 -1.52926,1.63362 -0.4147,0.24349 -0.63136,0.24349 -0.95528,0 z m 3.66837,-1.24094 c -0.43138,-0.18537 -0.44648,-0.23083 -0.0818,-0.24599 0.24607,-0.0102 0.52099,0.10047 0.61093,0.24599 0.18803,0.30424 0.17883,0.30424 -0.52917,0 z m 2.11854,-0.26762 c 0.0889,-0.14385 0.29221,-0.26155 0.45179,-0.26155 0.15958,0 0.68039,-0.29766 1.15736,-0.66146 0.47697,-0.3638 0.95814,-0.66146 1.06928,-0.66146 0.2851,0 -1.78602,1.46791 -2.36331,1.675 -0.2842,0.10195 -0.41148,0.0654 -0.31512,-0.0905 z m -7.45928,-1.07889 c -0.26405,-0.0961 -0.56939,-0.12312 -0.67853,-0.06 -0.53535,0.30971 -0.0982,-0.43763 0.65733,-1.1237 0.47066,-0.42741 0.66737,-0.53898 0.43711,-0.24794 -0.75617,0.95582 -0.77994,1.12035 -0.1443,0.99884 0.33187,-0.0634 0.73839,0.0473 0.90338,0.24611 0.23549,0.28375 0.19305,0.36145 -0.19746,0.36145 -0.27359,0 -0.71348,-0.0786 -0.97753,-0.17478 z m 25.0522,-1.11239 c 0,-0.0599 0.7433,-0.69199 1.65179,-1.40468 0.90848,-0.71269 2.10811,-1.75129 2.66586,-2.30801 0.55774,-0.55672 0.88836,-0.77733 0.73472,-0.49024 -0.37249,0.696 -5.05237,4.58907 -5.05237,4.20293 z m -13.80477,-0.89448 c 0.11291,-0.55376 0.17944,-0.62029 0.25655,-0.25654 0.0572,0.27012 -0.0114,0.60657 -0.15244,0.74767 -0.16567,0.16566 -0.20254,-0.008 -0.10411,-0.49113 z m -9.65342,-0.13116 c 0.19377,-0.10844 0.69934,-0.096 1.12348,0.0275 0.70496,0.20542 0.67472,0.22235 -0.35232,0.19717 -0.64445,-0.0158 -0.97326,-0.11161 -0.77116,-0.22471 z m 2.29558,-0.66703 c -0.006,-0.4963 0.35251,-0.60676 2.30716,-0.71012 1.78297,-0.0943 2.98045,-0.47494 2.98045,-0.94743 0,-0.12884 0.35719,-0.31271 0.79375,-0.40859 0.56044,-0.12309 0.79375,-0.33045 0.79375,-0.70546 0,-0.34796 0.27557,-0.63515 0.79903,-0.83273 0.43947,-0.16588 0.74758,-0.43569 0.6847,-0.59957 -0.13713,-0.35735 0.75053,-1.16953 1.27822,-1.16953 0.20605,0 0.59164,-0.27422 0.85687,-0.60938 0.56672,-0.71616 1.32608,-1.06057 1.5477,-0.70198 0.086,0.13916 0.24989,0.25302 0.36419,0.25302 0.28254,0 1.75329,-1.27852 1.60166,-1.39233 -1.07877,-0.80964 -1.74059,-1.03025 -2.65299,-0.88435 -0.79454,0.12705 -1.08242,0.0591 -1.35506,-0.31988 -0.23014,-0.31988 -0.67881,-0.47976 -1.33838,-0.4769 -0.5457,0.002 -1.14102,-0.14607 -1.32292,-0.32985 -0.26618,-0.26893 -0.18515,-0.27918 0.41524,-0.0525 0.41028,0.15491 1.02557,0.21148 1.36732,0.12571 0.4591,-0.11523 0.69877,-0.0113 0.9178,0.39795 0.2476,0.46265 0.45975,0.52779 1.28766,0.3954 0.7484,-0.11967 1.23204,-0.0164 1.97426,0.4215 0.54067,0.319 0.98303,0.69433 0.98303,0.83407 0,0.13973 0.10315,0.19031 0.22923,0.11239 0.12607,-0.0779 0.45349,0.12342 0.7276,0.44741 0.49327,0.58303 0.49296,0.58463 -0.0308,0.15536 -0.61365,-0.50296 -1.7198,-0.23483 -1.7198,0.41688 0,0.25182 -0.15168,0.33889 -0.41459,0.23801 -0.27827,-0.10678 -0.83628,0.29719 -1.69702,1.22856 -0.73875,0.79937 -1.43229,1.32787 -1.63593,1.24662 -0.28898,-0.1153 -0.28969,-0.14485 -0.004,-0.16193 0.4137,-0.0247 0.77371,-0.37381 1.60617,-1.55747 0.80134,-1.13941 0.52892,-1.39155 -0.42119,-0.38983 -0.40747,0.4296 -1.10688,0.9255 -1.55424,1.102 -0.57731,0.22778 -0.80768,0.48996 -0.79375,0.90339 0.0141,0.41789 -0.15669,0.60744 -0.60432,0.67078 -0.53424,0.0756 -0.60206,0.19778 -0.47169,0.84964 0.0838,0.41873 0.0275,0.83847 -0.12509,0.93275 -0.15254,0.0943 -0.20456,0.48585 -0.11559,0.87016 0.12124,0.52367 0.0945,0.5993 -0.1068,0.30186 -0.34629,-0.51173 -0.3537,-1.32292 -0.0121,-1.32292 0.14552,0 0.26458,-0.12708 0.26458,-0.28241 0,-0.39799 -0.99672,-0.0603 -2.17639,0.73729 -0.77146,0.52162 -1.40084,0.68848 -2.89493,0.76749 -1.13714,0.0601 -1.99402,0.23461 -2.11903,0.43148 -0.15401,0.24254 -0.21096,0.24665 -0.21393,0.0154 z m 26.33738,-3.54625 c 0.0736,-0.11911 0.30862,-0.1495 0.52225,-0.0675 0.21362,0.082 0.3884,0.0173 0.3884,-0.14384 0,-0.1611 0.23812,-0.2929 0.52916,-0.2929 1.36332,0 -0.0847,-1.76478 -2.51354,-3.06332 -2.26423,-1.21055 -4.63039,-2.806 -4.62616,-3.11932 0.003,-0.20726 0.064,-0.21269 0.19844,-0.0176 0.29076,0.42187 2.39617,1.8051 3.91464,2.57187 0.73645,0.37187 1.84904,1.10226 2.47243,1.62309 0.62338,0.52082 1.30176,0.94695 1.50751,0.94695 0.31021,0 0.31723,0.10165 0.0411,0.59531 -0.18313,0.32743 -0.35183,0.63402 -0.37487,0.68132 -0.023,0.0473 -0.26117,0.12748 -0.52917,0.17819 -0.26799,0.0507 -0.48726,0.1165 -0.48726,0.1462 0,0.0297 -0.26478,0.0819 -0.5884,0.11608 -0.32362,0.0341 -0.52816,-0.0354 -0.45454,-0.1545 z m -9.4081,-0.79765 c 0,-0.21699 0.14883,-0.54482 0.33073,-0.72851 0.26476,-0.26737 0.25157,-0.37985 -0.0661,-0.56397 -0.21828,-0.12649 -0.635,-0.41942 -0.92604,-0.65094 -0.42314,-0.33661 -0.33167,-0.32698 0.45651,0.048 1.0576,0.50321 1.2104,0.96059 0.59341,1.77632 -0.29104,0.38479 -0.38846,0.41465 -0.38846,0.11907 z m 1.25816,-0.36807 c 0.0695,-0.36381 0.23162,-0.66146 0.36018,-0.66146 0.12856,0 0.23374,-0.15584 0.23374,-0.34631 0,-0.19047 0.18053,-0.57742 0.40117,-0.85989 0.36904,-0.47245 0.37562,-0.45001 0.082,0.28016 -0.17552,0.43656 -0.41558,0.90686 -0.53346,1.0451 -0.11788,0.13824 -0.21433,0.46567 -0.21433,0.7276 0,0.26194 -0.10256,0.47625 -0.2279,0.47625 -0.12534,0 -0.17099,-0.29765 -0.10144,-0.66145 z m 1.29948,-2.68994 c -0.097,-0.097 -0.17639,-0.39607 -0.17639,-0.66458 0,-0.42409 0.14765,-0.46632 1.12448,-0.3216 1.07734,0.1596 1.10229,0.14803 0.59531,-0.27606 -0.51915,-0.43426 -0.51775,-0.4371 0.0736,-0.15019 0.81164,0.39383 0.46962,0.84874 -0.56282,0.74857 -0.65742,-0.0638 -0.82589,0.0165 -0.79691,0.37968 0.0404,0.50658 0.005,0.54608 -0.25723,0.28418 z m 0.0897,-2.20212 c -0.15496,-0.28953 -0.6354,-0.70931 -1.06765,-0.93283 -0.46887,-0.24247 -0.7859,-0.61713 -0.7859,-0.92878 0,-0.28731 0.0634,-0.52238 0.14079,-0.52238 0.45383,0 1.90284,0.78791 2.2359,1.21579 0.37569,0.48265 0.37006,0.48517 -0.13278,0.0594 -0.2888,-0.24453 -0.85229,-0.56901 -1.25221,-0.72106 -0.5797,-0.2204 -0.72712,-0.20092 -0.72712,0.0961 0,0.20488 0.22065,0.44253 0.49034,0.52813 0.55967,0.17763 2.0294,1.73211 1.63768,1.73211 -0.14153,0 -0.3841,-0.23689 -0.53905,-0.52643 z m -19.05147,-0.7457 c 0,-0.55415 0.17548,-3.62001 0.38995,-6.81302 0.21448,-3.19301 0.7028,-10.448911 1.08517,-16.124224 0.48635,-7.218609 0.66382,-11.729712 0.59071,-15.015104 -0.0575,-2.582995 -0.01,-4.696354 0.10546,-4.696354 0.39146,0 0.21252,10.241806 -0.31515,18.038254 -1.07785,15.925388 -1.61369,24.890308 -1.49481,25.009188 0.0674,0.0674 0.36361,-0.007 0.65829,-0.16422 0.39208,-0.20984 0.58652,-0.20462 0.725,0.0195 0.10752,0.17397 0.0742,0.23506 -0.0773,0.14148 -0.14657,-0.0906 -0.49238,0.006 -0.76848,0.21529 -0.76294,0.57749 -0.89888,0.48513 -0.89888,-0.61074 z m 2.3433,0.4105 c 0.11009,-0.11009 0.92499,-0.25653 1.81087,-0.32541 1.21578,-0.0945 1.69038,-0.0292 1.93566,0.26632 0.22648,0.27289 0.23496,0.39155 0.028,0.39155 -0.16333,0 -0.29698,-0.0893 -0.29698,-0.19843 0,-0.10914 -0.53578,-0.19844 -1.19062,-0.19844 -0.65484,0 -1.19063,0.0595 -1.19063,0.13229 0,0.0728 -0.2917,0.13229 -0.64822,0.13229 -0.35653,0 -0.55816,-0.0901 -0.44806,-0.20017 z M 91.65297,101.57537 c 0,-0.11641 0.122478,-0.33414 0.272171,-0.48383 0.186508,-0.18651 0.103421,-0.48671 -0.263982,-0.95378 l -0.536155,-0.681616 0.630283,0.297447 c 0.346654,0.163595 0.572156,0.448919 0.501113,0.634049 -0.07104,0.18514 0.06178,0.40988 0.295161,0.49944 0.637752,0.24473 0.510662,0.69844 -0.137975,0.49257 -0.378391,-0.1201 -0.503087,-0.0827 -0.381259,0.11446 0.09957,0.16111 0.05495,0.29293 -0.09916,0.29293 -0.154109,0 -0.280199,-0.0953 -0.280199,-0.21167 z m -1.719792,-1.842901 c -0.145521,-0.106912 -0.41167,-0.457872 -0.591441,-0.779909 -0.270251,-0.484122 -0.263311,-0.561139 0.04007,-0.44472 0.201814,0.07744 0.431094,0.38616 0.509511,0.686036 0.09665,0.369604 0.279929,0.492521 0.568981,0.381603 0.247907,-0.09513 0.358733,-0.05414 0.264753,0.09793 -0.190738,0.308623 -0.428099,0.326329 -0.791877,0.05906 z m -1.971323,-1.236993 c -0.173979,-0.209632 -0.51598,-0.319704 -0.759999,-0.244604 -0.336495,0.103555 -0.322943,0.05965 0.0561,-0.181737 0.40944,-0.260747 0.543901,-0.23944 0.743865,0.117877 0.134247,0.239887 0.374227,0.355727 0.533289,0.257421 0.173379,-0.107154 0.213593,-0.0564 0.100415,0.126727 -0.241226,0.390311 -0.291629,0.384649 -0.673672,-0.07568 z M 85.47936,98.171068 c -0.09701,-0.09701 -0.17639,-0.29545 -0.17639,-0.440971 0,-0.14552 0.07834,-0.186242 0.174093,-0.09049 0.09575,0.09575 0.35337,0.0263 0.572485,-0.154342 0.347265,-0.286284 0.357684,-0.252037 0.08118,0.26688 -0.346845,0.650925 -0.390983,0.679313 -0.65137,0.418923 z m -0.561964,-1.128244 c -0.08373,-0.135467 -0.05106,-0.308822 0.07258,-0.385236 0.123643,-0.07641 0.224804,0.03442 0.224804,0.2463 0,0.446133 -0.08343,0.485111 -0.297381,0.138936 z m -0.06056,-1.120865 c 0.08148,-0.242618 -0.0082,-0.501126 -0.199323,-0.574458 -0.21439,-0.08227 -0.297588,-0.394256 -0.217231,-0.814599 0.248271,-1.298753 -1.350711,-3.612095 -3.134135,-4.53434 -0.421119,-0.217768 -0.765673,-0.511947 -0.765673,-0.653732 0,-0.141785 -0.34445,-0.257789 -0.765442,-0.257789 -0.485452,0 -0.829921,-0.169368 -0.941718,-0.463021 -0.141335,-0.37125 -0.110239,-0.39747 0.156901,-0.132291 0.183247,0.181901 0.601104,0.330729 0.928571,0.330729 0.327466,0 0.690607,0.151685 0.806979,0.337081 0.116371,0.185394 0.55159,0.553572 0.967152,0.818172 1.891268,1.204221 3.259336,3.261058 3.015933,4.534336 -0.06943,0.363225 -0.02371,0.660411 0.101647,0.660411 0.125341,0 0.227894,-0.142875 0.227894,-0.3175 0,-0.233622 0.07799,-0.239512 0.295203,-0.02231 0.217215,0.217215 0.173665,0.458364 -0.164846,0.912813 -0.257786,0.34607 -0.394919,0.423664 -0.311912,0.176485 z M 77.1232,88.20977 c -0.157793,-0.157792 -0.286896,-0.441677 -0.286896,-0.630854 0,-0.189177 -0.256402,-0.343958 -0.569783,-0.343958 -0.744815,0 -3.454106,-1.284232 -3.285347,-1.55729 0.07171,-0.11602 -0.277079,-0.605864 -0.775078,-1.088544 -0.497999,-0.482679 -0.843526,-0.977794 -0.767839,-1.100256 0.07569,-0.122463 -0.154739,-0.22266 -0.512054,-0.22266 -0.698426,0 -2.291982,-1.570046 -2.291982,-2.258166 0,-0.213217 -0.223546,-0.387668 -0.496771,-0.387668 -0.273222,0 -0.62729,-0.157268 -0.786815,-0.349485 -0.331788,-0.399778 -0.287232,-2.030444 0.0555,-2.031238 0.124915,-2.65e-4 0.154786,0.287668 0.06638,0.639908 -0.217278,0.865706 0.05456,1.476232 0.657296,1.476232 0.310029,0 0.634352,0.323824 0.861217,0.859896 0.4524,1.068993 1.162703,1.710359 2.024443,1.827958 0.363802,0.04965 0.601927,0.173832 0.529167,0.275958 -0.07276,0.102129 0.338357,0.667676 0.913593,1.256771 0.575235,0.589098 0.932423,1.079913 0.793749,1.090705 -0.138673,0.0108 0.224116,0.230071 0.806199,0.487289 0.932556,0.412083 1.092869,0.420671 1.348925,0.07225 0.345789,-0.470527 0.999914,-0.162738 0.794084,0.373647 -0.08261,0.215273 0.02328,0.370112 0.253095,0.370112 0.217315,0 0.504698,0.288219 0.63863,0.640485 0.180459,0.474641 0.384294,0.603671 0.787201,0.498308 0.29903,-0.0782 0.54369,-0.08264 0.54369,-0.0099 0,0.291203 -1.032203,0.378889 -1.300604,0.110487 z M 76.042554,86.4129 c 0,-0.38037 -0.459084,-0.271375 -0.619675,0.147124 -0.09833,0.256254 -0.01998,0.334611 0.236275,0.236276 0.21087,-0.08092 0.3834,-0.253447 0.3834,-0.3834 z m -11.304642,-8.374277 -0.324438,-0.72554 0.486082,0.579188 c 0.334357,0.398399 0.571378,0.49389 0.759352,0.305917 0.150299,-0.150299 0.494278,-0.216387 0.764397,-0.14686 0.413953,0.106548 0.400036,0.131234 -0.08857,0.157105 -0.318834,0.01688 -0.653283,0.149754 -0.74322,0.295275 -0.268327,0.434162 -0.51049,0.302223 -0.853601,-0.465085 z m -1.726086,-0.614442 c -0.254662,-0.148325 -0.461198,-0.412596 -0.458971,-0.587266 0.0028,-0.219647 0.064,-0.229016 0.198438,-0.03039 0.106913,0.157959 0.432512,0.422228 0.723553,0.587267 0.291042,0.165039 0.410104,0.300072 0.264584,0.300072 -0.145521,0 -0.472943,-0.121357 -0.727604,-0.269685 z m -0.684758,-1.16818 c 0.07727,-0.07727 2.986511,-0.168701 6.464972,-0.203168 l 6.324472,-0.06267 0.07003,-8.003646 0.07003,-8.003646 h 26.057578 26.05758 l 0.004,3.373438 c 0.002,1.85539 0.0779,4.355703 0.16865,5.55625 0.11729,1.551337 0.078,2.182812 -0.13591,2.182812 -0.21508,0 -0.30095,-1.547569 -0.30095,-5.423958 V 60.247458 H 101.31414 75.521148 l -0.07003,8.003645 -0.07002,8.003646 -6.597264,0.07087 c -3.628495,0.03898 -6.534038,0.0076 -6.456764,-0.06962 z"
         id="path77" />
      <path
         style="fill:#ff7200;fill-opacity:1;stroke:#ff7200;stroke-width:1;stroke-miterlimit:4;stroke-dasharray:none;stroke-opacity:1"
         d="m 99.921199,175.68799 c 0.503601,-0.1316 0.623741,-0.74539 0.197471,-1.00884 -0.350734,-0.21676 -0.0431,-1.48214 0.48234,-1.98378 0.3695,-0.35277 0.3846,-0.35277 0.13593,0 -0.43659,0.61937 -0.64748,1.80221 -0.35369,1.98378 0.14605,0.0903 0.26555,0.39522 0.26555,0.67767 0,0.36528 -0.17188,0.50469 -0.59531,0.48286 -0.447984,-0.0231 -0.480724,-0.0606 -0.132291,-0.15169 z m -1.910567,-0.60103 c -0.214067,-0.13538 -0.309034,-0.32632 -0.211037,-0.42432 0.098,-0.098 0.370943,0.0146 0.606549,0.25019 0.465537,0.46554 0.229555,0.56943 -0.395512,0.17413 z m -1.330579,-0.5395 c -0.218281,-0.14107 -0.277813,-0.25648 -0.132292,-0.25648 0.145521,0 0.443177,0.11541 0.661459,0.25648 0.218281,0.14106 0.277812,0.25648 0.132291,0.25648 -0.145521,0 -0.443177,-0.11542 -0.661458,-0.25648 z m -3.571875,-1.5875 c -0.50492,-0.21697 -0.501888,-0.22825 0.06615,-0.24599 0.327422,-0.0102 0.595312,0.10047 0.595312,0.24599 0,0.14552 -0.02977,0.25621 -0.06615,0.24598 -0.03638,-0.0102 -0.304271,-0.12092 -0.595312,-0.24598 z m 8.186502,-1.17782 c 0.28248,-0.22533 0.6099,-0.40968 0.72761,-0.40968 0.11771,0 0.21401,-0.17157 0.21401,-0.38126 0,-0.20969 0.10796,-0.44798 0.23991,-0.52953 0.13195,-0.0815 0.17635,0.0948 0.0987,0.39185 -0.0777,0.29707 -0.51306,0.71972 -0.96751,0.93922 -0.74887,0.3617 -0.77816,0.36071 -0.31268,-0.0106 z m -24.789105,-0.86099 c 0.327422,-0.0631 0.863203,-0.0631 1.190625,0 0.327422,0.0631 0.05953,0.11466 -0.595313,0.11466 -0.654843,0 -0.922734,-0.0516 -0.595312,-0.11466 z m 10.583333,0.0115 c 0.181901,-0.0734 0.479557,-0.0734 0.661458,0 0.181901,0.0734 0.03307,0.13345 -0.330729,0.13345 -0.363802,0 -0.51263,-0.0601 -0.330729,-0.13345 z m -15.871915,-0.27648 c 0.329118,-0.0633 0.805368,-0.0609 1.058334,0.005 0.252965,0.0662 -0.01633,0.118 -0.598398,0.11507 -0.582083,-0.003 -0.789053,-0.0571 -0.459936,-0.12041 z m 7.500228,0.0701 c 0.20043,-0.20044 2.596931,-0.25582 2.788309,-0.0644 0.09981,0.0998 -0.513064,0.18146 -1.361935,0.18146 -0.84887,0 -1.490739,-0.0527 -1.426374,-0.11703 z m 6.921513,-0.0663 c 0.257432,-0.0671 0.614619,-0.0627 0.79375,0.01 0.179131,0.0725 -0.03149,0.12736 -0.468056,0.12197 -0.436562,-0.005 -0.583125,-0.0647 -0.325694,-0.13178 z M 69.097242,170.4035 c 0.181901,-0.0734 0.479557,-0.0734 0.661458,0 0.181901,0.0734 0.03307,0.13345 -0.330729,0.13345 -0.363802,0 -0.51263,-0.0601 -0.330729,-0.13345 z m 13.890624,-0.0143 c 0.400182,-0.0606 1.055026,-0.0606 1.455208,0 0.400183,0.0606 0.07276,0.11022 -0.727604,0.11022 -0.800364,0 -1.127786,-0.0496 -0.727604,-0.11022 z m -15.197004,-0.25581 c 0.190994,-0.0764 0.419198,-0.067 0.507119,0.0209 0.08792,0.0879 -0.06835,0.15046 -0.347266,0.13897 -0.308226,-0.0127 -0.370919,-0.0754 -0.159853,-0.15985 z m -1.058334,-0.26459 c 0.190995,-0.0764 0.419198,-0.067 0.507119,0.0209 0.08792,0.0879 -0.06835,0.15045 -0.347265,0.13896 -0.308227,-0.0127 -0.37092,-0.0754 -0.159854,-0.15985 z m 36.491552,-0.11667 c 0.17948,-0.18082 0.39297,-0.26212 0.47443,-0.18065 0.0815,0.0815 -0.0654,0.2294 -0.32632,0.32876 -0.37708,0.14359 -0.40747,0.1132 -0.14811,-0.14811 z M 64.665471,169.2558 c -0.218281,-0.14106 -0.277812,-0.25648 -0.132291,-0.25648 0.14552,0 0.443177,0.11542 0.661458,0.25648 0.218281,0.14107 0.277812,0.25648 0.132292,0.25648 -0.145521,0 -0.443178,-0.11541 -0.661459,-0.25648 z m 40.883229,-1.05833 c 0.62553,-0.79719 2.25452,-1.71775 1.83313,-1.03593 -0.0823,0.1332 -0.32292,0.24218 -0.53466,0.24218 -0.21175,0 -0.75402,0.38695 -1.20505,0.85989 l -0.82006,0.8599 z m -42.735312,0.26458 c -0.218281,-0.14106 -0.277812,-0.25648 -0.132292,-0.25648 0.145521,0 0.443177,0.11542 0.661459,0.25648 0.218281,0.14107 0.277812,0.25648 0.132291,0.25648 -0.145521,0 -0.443177,-0.11541 -0.661458,-0.25648 z m 46.532912,-1.25677 c -0.32911,-0.41964 -0.31975,-0.429 0.0999,-0.0999 0.25466,0.19972 0.46302,0.40808 0.46302,0.46302 0,0.21777 -0.21727,0.0776 -0.56292,-0.36312 z m 1.25706,0.0559 c -0.25531,-0.66535 -0.17999,-0.83703 0.13191,-0.30066 0.15443,0.26558 0.22505,0.5386 0.15693,0.60672 -0.0681,0.0681 -0.1981,-0.0696 -0.28884,-0.30606 z m -52.171173,-0.79812 c -0.49319,-0.39513 -0.489944,-0.40001 0.08172,-0.12298 0.327422,0.15867 0.595313,0.34383 0.595313,0.41147 0,0.20246 -0.137216,0.14399 -0.677035,-0.28849 z m 49.558803,0.23624 c 0.1819,-0.0734 0.47956,-0.0734 0.66146,0 0.1819,0.0734 0.0331,0.13346 -0.33073,0.13346 -0.3638,0 -0.51263,-0.0601 -0.33073,-0.13346 z m 3.63802,-2.4706 c 0.26339,-0.29104 0.53842,-0.52917 0.61118,-0.52917 0.0728,0 -0.0832,0.23813 -0.3466,0.52917 -0.26339,0.29104 -0.53842,0.52916 -0.61118,0.52916 -0.0728,0 0.0832,-0.23812 0.3466,-0.52916 z m 0.92604,-0.92353 c 0,-0.18104 1.62002,-0.98423 1.74106,-0.86319 0.0574,0.0574 -0.31084,0.30238 -0.81834,0.54439 -0.50749,0.24201 -0.92272,0.38547 -0.92272,0.3188 z m 2.91042,-0.76796 c 0,-0.0572 0.18478,-0.17489 0.41062,-0.26155 0.23545,-0.0904 0.34166,-0.046 0.24896,0.10398 -0.15538,0.25141 -0.65958,0.37186 -0.65958,0.15757 z m 1.23369,-0.64174 c 0.0693,-0.26502 -0.0609,-0.63695 -0.28926,-0.82651 -0.22839,-0.18955 -0.41526,-0.46518 -0.41526,-0.61251 0,-0.14732 0.23812,0.0349 0.52916,0.40486 0.57622,0.73254 0.66186,1.13748 0.28926,1.36776 -0.13195,0.0815 -0.1832,-0.0686 -0.1139,-0.3336 z M 49.28589,160.3261 c -0.329108,-0.41964 -0.319749,-0.429 0.09989,-0.0999 0.254661,0.19972 0.46302,0.40808 0.46302,0.46302 0,0.21776 -0.217272,0.0776 -0.562915,-0.36313 z m -1.058333,-0.79375 c -0.329108,-0.41964 -0.31975,-0.429 0.09989,-0.0999 0.254662,0.19972 0.463021,0.40808 0.463021,0.46302 0,0.21776 -0.217272,0.0776 -0.562915,-0.36313 z m -1.446598,-1.19062 -0.504028,-0.59531 0.595312,0.50402 c 0.559447,0.47367 0.715762,0.6866 0.504028,0.6866 -0.05021,0 -0.318097,-0.26789 -0.595312,-0.59531 z m 68.155341,0.49541 c 0,-0.0549 0.20836,-0.2633 0.46302,-0.46302 0.41965,-0.3291 0.42901,-0.31974 0.0999,0.0999 -0.34564,0.44073 -0.56292,0.58089 -0.56292,0.36312 z m 0.30062,-1.55374 c -0.0314,-0.63401 0.0576,-0.72297 0.69157,-0.69158 0.59898,0.0297 0.62524,0.0559 0.14856,0.14856 -0.33418,0.065 -0.62663,0.35739 -0.69157,0.69158 -0.0926,0.47668 -0.1189,0.45042 -0.14856,-0.14856 z m -69.91978,-0.1323 c -0.329107,-0.41964 -0.319749,-0.429 0.09989,-0.0999 0.254661,0.19972 0.463021,0.40808 0.463021,0.46302 0,0.21776 -0.217273,0.0776 -0.562916,-0.36313 z m 71.32445,0.15219 c -0.11145,-0.19284 -0.11133,-0.2685 2.5e-4,-0.16812 0.11158,0.10038 0.45078,-0.0484 0.75377,-0.33073 0.30299,-0.28228 0.66734,-0.51323 0.80968,-0.51323 0.14233,0 0.20918,0.0298 0.14855,0.0661 -0.0606,0.0364 -0.42511,0.34299 -0.80994,0.68136 -0.54367,0.47803 -0.74487,0.53703 -0.90231,0.26458 z m -72.382783,-0.94594 c -0.329108,-0.41964 -0.319749,-0.429 0.0999,-0.0999 0.254661,0.19972 0.46302,0.40808 0.46302,0.46302 0,0.21776 -0.217272,0.0776 -0.562915,-0.36313 z m 75.470463,-0.0333 c 0.34704,-0.27298 0.69052,-0.53871 0.76328,-0.5905 0.0728,-0.0518 0.42668,0.11204 0.78648,0.36405 0.3598,0.25202 0.51713,0.45821 0.34962,0.45821 -0.1675,0 -0.47792,-0.17337 -0.68982,-0.38527 -0.3373,-0.3373 -0.44358,-0.32083 -0.85366,0.13229 -0.25761,0.28466 -0.58505,0.51756 -0.72764,0.51756 -0.14259,0 0.0247,-0.22335 0.37174,-0.49634 z M 43.200473,155.5636 c -0.329107,-0.41964 -0.319749,-0.429 0.09989,-0.0999 0.440729,0.34564 0.580887,0.56291 0.363126,0.56291 -0.05494,0 -0.263301,-0.20836 -0.463021,-0.46302 z m 78.371297,-0.22048 c 0.0127,-0.30823 0.0754,-0.37092 0.15985,-0.15986 0.0764,0.191 0.067,0.41921 -0.0209,0.50712 -0.0879,0.0879 -0.15045,-0.0684 -0.13897,-0.34726 z m -81.405394,-2.00781 c -0.277216,-0.31606 -0.36537,-0.49391 -0.195897,-0.39522 0.169472,0.0987 0.358317,0.0894 0.419657,-0.0207 0.06134,-0.11005 0.08081,-0.0658 0.04327,0.0984 -0.03754,0.16417 0.06532,0.43206 0.228572,0.59531 0.163253,0.16326 0.231933,0.29683 0.152623,0.29683 -0.07931,0 -0.371014,-0.25859 -0.648229,-0.57465 z m 84.029524,-0.68212 c 0.34622,-0.47295 0.67083,-0.8599 0.72134,-0.8599 0.20093,0 -0.45508,0.99233 -0.88894,1.34468 -0.28582,0.23212 -0.22193,0.0473 0.1676,-0.48478 z m 2.7128,-0.61651 c 0.29317,-0.17075 0.47855,-0.62883 0.50536,-1.24872 l 0.0423,-0.97904 0.10801,0.87717 c 0.10912,0.88631 -0.27218,1.64311 -0.8204,1.62832 -0.16408,-0.004 -0.09,-0.1294 0.16469,-0.27773 z m -84.865103,-2.09547 c 0.263389,-0.29104 0.538421,-0.52917 0.611181,-0.52917 0.07276,0 -0.08321,0.23813 -0.346597,0.52917 -0.263389,0.29104 -0.538421,0.52916 -0.611181,0.52916 -0.07276,0 0.08321,-0.23812 0.346597,-0.52916 z m 85.418003,-1.97765 c -0.51091,-0.35786 -1.0658,-2.13492 -0.57118,-1.82922 0.11919,0.0737 0.21671,0.41004 0.21671,0.7475 0,0.33747 0.2679,0.80045 0.59532,1.02884 0.32742,0.2284 0.53251,0.42152 0.45574,0.42915 -0.0768,0.008 -0.39022,-0.16169 -0.69659,-0.37627 z m -85.540675,-0.52431 c -0.175867,-0.2119 -0.244471,-0.5071 -0.152453,-0.65598 0.09202,-0.14889 0.03617,-0.54106 -0.12411,-0.87149 -0.281756,-0.58087 -0.277584,-0.58349 0.125894,-0.0792 0.22952,0.28686 0.353097,0.6889 0.274615,0.89342 -0.07848,0.20453 -0.007,0.53536 0.15885,0.7352 0.16585,0.19984 0.242014,0.36334 0.169253,0.36334 -0.07276,0 -0.276182,-0.17338 -0.452049,-0.38529 z m 83.651625,-2.31346 c -0.5745,-0.5745 -0.36035,-1.64372 0.47625,-2.37783 0.43656,-0.38308 0.79375,-0.59093 0.79375,-0.46189 0,0.12903 -0.29765,0.42964 -0.66146,0.66801 -0.71894,0.47107 -0.90019,1.61547 -0.34396,2.17171 0.17463,0.17463 0.25797,0.3175 0.18521,0.3175 -0.0728,0 -0.27516,-0.14287 -0.44979,-0.3175 z m -84.190411,-0.72522 c 0,-0.13693 0.117699,-0.32171 0.261553,-0.41061 0.149982,-0.0927 0.194338,0.0135 0.103984,0.24896 -0.175893,0.45837 -0.365537,0.54224 -0.365537,0.16165 z m 85.745881,-3.52134 c -0.0115,-0.25466 -0.13995,-0.46302 -0.28547,-0.46302 -0.14552,0 -0.26385,-0.26789 -0.26295,-0.59531 0.002,-0.5406 0.0386,-0.52437 0.40416,0.17658 0.22139,0.42454 0.34912,0.90079 0.28384,1.05833 -0.0653,0.15754 -0.12809,0.0781 -0.13958,-0.17658 z M 44.305983,138.961 c -0.0029,-0.14552 0.102262,-0.43458 0.233756,-0.64236 0.173368,-0.27395 -0.196024,-0.91026 -1.343964,-2.31511 -0.870674,-1.06553 -1.523513,-1.93732 -1.450752,-1.93732 0.07276,0 0.841887,0.8684 1.70917,1.92978 1.488294,1.82136 1.556661,1.96628 1.216996,2.57968 -0.197935,0.35745 -0.362278,0.53085 -0.365206,0.38533 z m 83.447037,-1.04374 c 0.28247,-0.22631 0.62974,-0.41147 0.7717,-0.41147 0.33616,0 0.18606,0.12221 -0.62384,0.50792 -0.62369,0.29704 -0.63213,0.29153 -0.14786,-0.0965 z m 4.13866,-1.54467 c 0.0606,-0.0412 0.34837,-0.24954 0.63941,-0.46302 0.48948,-0.35904 0.50194,-0.35343 0.16604,0.0749 -0.19972,0.25466 -0.48745,0.46302 -0.63941,0.46302 -0.15195,0 -0.22667,-0.0337 -0.16604,-0.0749 z m 1.83004,-1.38034 c 0.34177,-0.3638 0.68094,-0.66146 0.7537,-0.66146 0.0728,0 -0.14734,0.29766 -0.48912,0.66146 -0.34177,0.3638 -0.68094,0.66146 -0.7537,0.66146 -0.0728,0 0.14734,-0.29766 0.48912,-0.66146 z m 1.45521,-1.19063 c 0.26339,-0.29104 0.53842,-0.52916 0.61118,-0.52916 0.0728,0 -0.0832,0.23812 -0.3466,0.52916 -0.26339,0.29105 -0.53842,0.52917 -0.61118,0.52917 -0.0728,0 0.0832,-0.23812 0.3466,-0.52917 z m -94.177811,-0.51385 c -0.255768,-0.28262 -0.42305,-0.61005 -0.371736,-0.72761 0.320986,-0.73538 2.413768,-4.31479 2.522743,-4.31479 0.123127,0 -1.278431,2.66287 -2.061664,3.91702 -0.294449,0.47149 -0.273024,0.63005 0.147991,1.09527 0.270756,0.29918 0.432752,0.54396 0.359992,0.54396 -0.07276,0 -0.341557,-0.23123 -0.597326,-0.51385 z m 97.749681,-1.71649 c 0,-0.0728 0.23813,-0.25973 0.52917,-0.41549 0.29104,-0.15576 0.52916,-0.22367 0.52916,-0.15091 0,0.0728 -0.23812,0.25973 -0.52916,0.41549 -0.29104,0.15576 -0.52917,0.22368 -0.52917,0.15091 z m 1.32292,-0.72845 c 0.0728,-0.066 0.78713,-0.70326 1.5875,-1.41606 1.43457,-1.27762 1.4402,-1.27988 0.39687,-0.15942 -0.58208,0.62512 -1.29646,1.26235 -1.5875,1.41606 -0.29104,0.15371 -0.46963,0.22545 -0.39687,0.15942 z m -17.30296,-0.96586 c -0.0749,-0.12127 0.0319,-0.22049 0.23733,-0.22049 0.20548,0 0.31228,0.0992 0.23733,0.22049 -0.0749,0.12127 -0.18174,0.22049 -0.23733,0.22049 -0.0556,0 -0.16238,-0.0992 -0.23733,-0.22049 z m 1.34508,-1.07867 c 0.16262,-0.62186 0.51196,-0.93646 0.69222,-0.62339 0.0642,0.11152 -0.0983,0.42366 -0.36112,0.69366 -0.46463,0.47732 -0.47379,0.47538 -0.3311,-0.0703 z m -1.86163,-0.41216 c -0.082,-0.21362 -0.0352,-0.45877 0.10398,-0.54478 0.13916,-0.086 0.25303,0.0888 0.25303,0.3884 0,0.63885 -0.14714,0.7033 -0.35701,0.15638 z m 21.01655,-0.20973 c 0.0606,-0.0379 0.4079,-0.30582 0.77171,-0.59531 l 0.66146,-0.52635 -0.50403,0.59531 c -0.27722,0.32742 -0.62448,0.59531 -0.7717,0.59531 -0.14722,0 -0.21807,-0.031 -0.15744,-0.069 z m -99.634589,-0.83423 c 0.25451,-0.424 0.697118,-1.16814 0.983574,-1.65365 0.286456,-0.48551 0.576219,-0.88274 0.643916,-0.88274 0.184801,0 -0.917176,1.88979 -1.542843,2.64583 l -0.547392,0.66146 z m 86.574469,-0.16847 c 0.32338,-0.3403 0.63914,-0.56581 0.70169,-0.50114 0.0626,0.0647 -0.20203,0.34311 -0.58796,0.61873 l -0.70169,0.50113 z m -8.52546,0.048 c -0.29105,-0.10803 -0.79706,-0.17627 -1.12448,-0.15164 -0.74642,0.0561 -0.75454,-0.18876 -0.0277,-0.83416 0.56512,-0.50177 0.56625,-0.50132 0.25071,0.0998 -0.29408,0.56026 -0.27158,0.59244 0.31187,0.44601 0.40516,-0.10169 0.75098,-0.0106 0.97231,0.25606 0.38063,0.45864 0.37048,0.46352 -0.38276,0.18392 z m 10.37992,-1.90791 c 0.0936,-0.35777 0.21349,-0.47771 0.27955,-0.27955 0.0636,0.19088 -0.0101,0.47286 -0.16386,0.62661 -0.19634,0.19633 -0.23078,0.093 -0.11569,-0.34706 z m 14.6232,0.20278 c 0,-0.0728 0.59531,-0.63072 1.32292,-1.23991 0.7276,-0.60918 1.32291,-1.04807 1.32291,-0.97531 0,0.0728 -0.59531,0.63071 -1.32291,1.2399 -0.72761,0.60918 -1.32292,1.04808 -1.32292,0.97532 z m -100.68232,-2.166 c 0.407097,-0.7276 0.863004,-1.44198 1.013127,-1.5875 0.150123,-0.14552 -0.06013,0.33073 -0.467226,1.05834 -0.407097,0.7276 -0.863004,1.44198 -1.013127,1.5875 -0.150123,0.14552 0.06013,-0.33073 0.467226,-1.05834 z m 80.00199,0.36707 c 0.34025,-0.12924 0.78917,-0.13953 0.99761,-0.0229 0.24625,0.13781 0.0296,0.22011 -0.61862,0.23498 -0.85793,0.0197 -0.911,-0.01 -0.37899,-0.2121 z m 1.63033,0.19041 c 0,-0.0572 0.18478,-0.17489 0.41062,-0.26156 0.23546,-0.0904 0.34166,-0.046 0.24897,0.10399 -0.15538,0.25141 -0.65959,0.37186 -0.65959,0.15757 z m 1.85208,-0.52508 c 0,-0.0549 0.20836,-0.2633 0.46303,-0.46302 0.41964,-0.32911 0.429,-0.31975 0.0999,0.0999 -0.34564,0.44073 -0.56292,0.58089 -0.56292,0.36313 z m 20.50521,-0.69386 c 0.26339,-0.29104 0.53842,-0.52916 0.61118,-0.52916 0.0728,0 -0.0832,0.23812 -0.3466,0.52916 -0.26339,0.29105 -0.53842,0.52917 -0.61118,0.52917 -0.0728,0 0.0832,-0.23812 0.3466,-0.52917 z m -18.05781,-0.41239 c -0.5356,-0.58142 -0.38212,-1.16387 0.39688,-1.50612 0.40018,-0.17582 0.81507,-0.44116 0.92199,-0.58964 0.11132,-0.15462 0.19611,-0.0686 0.19843,0.20135 0.002,0.25923 -0.17454,0.52712 -0.39282,0.59532 -0.21828,0.0682 -0.58061,0.18175 -0.80516,0.25235 -0.32841,0.10325 -0.35009,0.2371 -0.11085,0.68412 0.35776,0.66849 0.24845,0.85863 -0.20847,0.36262 z m -84.335933,-1.70427 c 0.225755,-0.43656 0.469995,-0.79375 0.542756,-0.79375 0.07276,0 -0.05242,0.35719 -0.278173,0.79375 -0.225755,0.43656 -0.469995,0.79375 -0.542755,0.79375 -0.07276,0 0.05242,-0.35719 0.278172,-0.79375 z m 103.482003,0.21617 c 0.0764,-0.12364 0.24977,-0.15631 0.38523,-0.0726 0.34618,0.21395 0.3072,0.29738 -0.13893,0.29738 -0.21188,0 -0.32272,-0.10116 -0.2463,-0.2248 z m 1.42528,-0.22447 c 0,-0.14096 0.11907,-0.25629 0.26459,-0.25629 0.14552,0 0.26458,-0.23812 0.26458,-0.52916 0,-0.33554 0.16943,-0.52153 0.46302,-0.50828 0.27661,0.0125 0.32987,0.0746 0.13229,0.15434 -0.1819,0.0734 -0.33073,0.34892 -0.33073,0.61226 0,0.26335 -0.17859,0.54734 -0.39687,0.63111 -0.21828,0.0838 -0.39688,0.037 -0.39688,-0.10398 z m -17.57778,-0.33384 c 0.0994,-0.26094 0.24731,-0.40778 0.32877,-0.32632 0.0815,0.0815 1.7e-4,0.29495 -0.18065,0.47443 -0.26131,0.25936 -0.2917,0.22897 -0.14812,-0.14811 z m 6.88356,-0.31932 c 0.10306,-0.29104 0.19568,-0.73583 0.20583,-0.98841 0.0106,-0.2626 0.11763,-0.36006 0.25008,-0.22762 0.13244,0.13245 0.0443,0.55568 -0.20583,0.98841 -0.2406,0.41623 -0.35313,0.51866 -0.25008,0.22762 z m 1.03693,0.13229 c 0.0899,-0.14552 0.21603,-0.26458 0.2802,-0.26458 0.0642,0 0.11668,0.11906 0.11668,0.26458 0,0.14552 -0.12609,0.26458 -0.2802,0.26458 -0.15411,0 -0.20662,-0.11906 -0.11668,-0.26458 z m -9.33699,-0.63477 c 0.18764,-0.20361 0.38285,-0.33059 0.4338,-0.28219 0.15694,0.14908 -0.24081,0.65238 -0.51556,0.65238 -0.14267,0 -0.10588,-0.16659 0.0818,-0.37019 z m 2.06799,0.27874 c -0.004,-0.12306 0.24407,-0.5764 0.55099,-1.00742 0.77095,-1.0827 0.46167,-1.22084 -0.54034,-0.24134 -0.45633,0.44607 -0.90756,0.81104 -1.00274,0.81104 -0.0952,0 0.0875,-0.24276 0.40599,-0.53947 0.31849,-0.29671 0.57906,-0.64002 0.57906,-0.76289 0,-0.32249 1.03013,-0.54483 1.20598,-0.2603 0.24869,0.40239 0.59296,0.27386 1.41263,-0.5274 0.58779,-0.57457 0.82044,-0.6742 0.92687,-0.39687 0.0844,0.21992 -0.0258,0.37026 -0.27126,0.37026 -0.22734,0 -0.47526,0.23679 -0.55095,0.52619 -0.0757,0.28941 -0.2342,0.46649 -0.35227,0.39352 -0.37691,-0.23294 -1.46427,0.41954 -1.918,1.15092 -0.24141,0.38913 -0.44209,0.60682 -0.44596,0.48376 z m -86.770784,-1.09918 c 0.326847,-0.58208 0.707879,-1.17739 0.846737,-1.32291 0.396202,-0.41522 -0.509903,1.26094 -1.001208,1.85208 -0.241889,0.29104 -0.172377,0.0529 0.154471,-0.52917 z m 103.018974,-0.19843 -0.77711,-0.8599 0.8599,0.7771 c 0.47294,0.42741 0.8599,0.81437 0.8599,0.8599 0,0.20441 -0.21832,0.0245 -0.94269,-0.7771 z m -12.05565,-1.19063 c -0.3291,-0.41964 -0.31975,-0.429 0.0999,-0.0999 0.25466,0.19972 0.46302,0.40808 0.46302,0.46302 0,0.21777 -0.21727,0.0776 -0.56292,-0.36312 z m -89.846607,-0.52917 c 0.789265,-1.43428 3.987623,-6.68073 4.072735,-6.68073 0.140195,0 0.279978,-0.25058 -2.029372,3.63803 -1.058662,1.78263 -1.976076,3.24114 -2.0387,3.24114 -0.06262,0 -0.06472,-0.0893 -0.0047,-0.19844 z m 94.113697,-0.55121 c 0,-0.12127 0.17335,-0.22049 0.38523,-0.22049 0.21188,0 0.32392,0.0992 0.24897,0.22049 -0.075,0.12127 -0.2483,0.22048 -0.38524,0.22048 -0.13693,0 -0.24896,-0.0992 -0.24896,-0.22048 z m -9.47554,-0.97014 c -0.31632,-0.3638 -0.47055,-0.66146 -0.34273,-0.66146 0.12783,0 0.42744,0.29766 0.66581,0.66146 0.23838,0.3638 0.3926,0.66146 0.34273,0.66146 -0.0499,0 -0.34949,-0.29766 -0.66581,-0.66146 z m 1.48843,0.21613 c 0.19099,-0.0764 0.4192,-0.067 0.50712,0.0209 0.0879,0.0879 -0.0684,0.15045 -0.34727,0.13896 -0.30822,-0.0127 -0.37092,-0.0754 -0.15985,-0.15985 z m 10.07002,-0.54686 c -0.3291,-0.41964 -0.31975,-0.429 0.0999,-0.0999 0.44073,0.34565 0.58089,0.56292 0.36312,0.56292 -0.0549,0 -0.2633,-0.20836 -0.46302,-0.46302 z m -13.65843,-0.0744 c -0.91614,-0.36824 -0.70507,-0.53042 0.26458,-0.2033 0.47294,0.15956 0.90951,0.33196 0.97014,0.38312 0.21521,0.18157 -0.6486,0.0558 -1.23472,-0.17982 z m -7.17921,-1.38082 c 0.0319,-1.44328 0.13589,-1.30469 0.29781,0.39688 0.0519,0.5457 -8e-4,0.99218 -0.11704,0.99218 -0.1163,0 -0.19765,-0.62507 -0.18077,-1.38906 z m 2.92351,1.15714 c -0.27018,-0.17126 -0.22823,-0.25648 0.17864,-0.36288 0.37833,-0.0989 0.49111,-0.0332 0.39093,0.22787 -0.16449,0.42867 -0.12214,0.41863 -0.56957,0.13501 z m 2.86663,-0.0483 c 0,-0.15411 0.11907,-0.20662 0.26459,-0.11668 0.14552,0.0899 0.26458,0.21603 0.26458,0.2802 0,0.0642 -0.11906,0.11667 -0.26458,0.11667 -0.14552,0 -0.26459,-0.12609 -0.26459,-0.28019 z m 12.36927,-0.45194 c -0.5457,-0.37369 -0.97837,-0.86785 -0.96149,-1.09813 0.0255,-0.34749 0.0509,-0.34206 0.1493,0.0319 0.0652,0.24783 0.33337,0.51876 0.59587,0.60207 0.26249,0.0833 0.69001,0.38657 0.95004,0.67389 0.59774,0.6605 0.49358,0.63073 -0.73372,-0.20972 z m -17.39635,0.34712 c 0,-0.20415 0.78747,-0.36837 0.89924,-0.18752 0.0673,0.10896 -0.10744,0.21542 -0.3884,0.23658 -0.28096,0.0212 -0.51084,-7.9e-4 -0.51084,-0.0491 z m 3.18574,0.0215 c 0.0734,-0.0734 0.47282,-0.19501 0.88758,-0.27022 0.41476,-0.0752 0.67547,-0.0581 0.57935,0.038 -0.0961,0.0961 -0.49553,0.21772 -0.88758,0.27022 -0.39205,0.0525 -0.65276,0.0354 -0.57935,-0.038 z m 14.54134,-1.35627 c -0.3638,-0.20797 -0.53538,-0.38234 -0.3813,-0.3875 0.15409,-0.005 0.51128,0.16544 0.79375,0.37909 0.65326,0.49409 0.44461,0.49835 -0.41245,0.008 z m -18.1638,-3.57187 c 0,-1.23693 0.0456,-1.74295 0.10129,-1.12448 0.0557,0.61846 0.0557,1.63049 0,2.24896 -0.0557,0.61846 -0.10129,0.11244 -0.10129,-1.12448 z m -65.04765,0.0714 c 17.201567,-0.183 30.294935,-0.18528 30.294867,-0.005 -4.3e-5,0.10914 -8.304686,0.17081 -18.454764,0.13704 -10.150077,-0.0338 -15.478124,-0.0931 -11.840103,-0.13176 z m 29.765623,-0.624 c 0,-0.13265 0.257969,-0.24117 0.573265,-0.24117 0.315293,0 0.490442,0.0828 0.389215,0.18404 -0.285964,0.28597 -0.96248,0.32612 -0.96248,0.0571 z m 0.440973,-1.21131 c -0.292515,-0.29251 -0.200721,-0.55141 0.257908,-0.7274 0.343234,-0.13171 0.371457,-0.0909 0.134588,0.19447 -0.16484,0.19862 -0.221369,0.43947 -0.125618,0.53522 0.09575,0.0958 0.114561,0.1741 0.0418,0.1741 -0.07276,0 -0.211667,-0.0794 -0.308679,-0.17639 z m 35.102144,-2.46945 c 0,-1.0914 0.0467,-1.53789 0.10379,-0.99218 0.0571,0.5457 0.0571,1.43867 0,1.98437 -0.0571,0.5457 -0.10379,0.0992 -0.10379,-0.99219 z M 90.446748,105.372 c 0.03815,-0.57488 0.193455,-1.08661 0.345122,-1.13716 0.151667,-0.0506 0.217646,-0.31414 0.146619,-0.58575 -0.08729,-0.33381 0.07184,-0.59163 0.491109,-0.79566 0.572794,-0.27874 0.582988,-0.27184 0.133228,0.0902 -0.328329,0.2643 -0.430284,0.57079 -0.312899,0.94064 0.132371,0.41706 0.05882,0.54957 -0.306731,0.55265 -0.408138,0.003 -0.420838,0.0434 -0.08398,0.26458 0.281292,0.18466 0.30947,0.31832 0.09675,0.45897 -0.165066,0.10914 -0.362778,0.43656 -0.439357,0.7276 -0.07658,0.29104 -0.108021,0.0588 -0.06987,-0.51608 z m 35.691012,-4.11413 c 0,-1.0914 0.0467,-1.537886 0.10378,-0.99218 0.0571,0.5457 0.0571,1.43867 0,1.98437 -0.0571,0.5457 -0.10378,0.0992 -0.10378,-0.99219 z m -34.176125,0.62233 c -0.251605,-0.2729 -0.272737,-0.4791 -0.07368,-0.71895 0.200787,-0.24194 0.154837,-0.51687 -0.163748,-0.97974 -0.358188,-0.520407 -0.364739,-0.580631 -0.03427,-0.314995 0.224727,0.180635 0.493228,0.243805 0.59667,0.140355 0.103444,-0.10344 0.1099,0.0156 0.01434,0.26465 -0.111067,0.28943 -0.02122,0.51125 0.249079,0.61497 0.232545,0.0892 0.360148,0.26364 0.283562,0.38755 -0.07658,0.12392 -0.343792,0.14868 -0.593794,0.055 -0.399494,-0.14965 -0.409924,-0.11543 -0.08611,0.28254 0.457068,0.56174 0.291592,0.79315 -0.192058,0.26859 z M 126.4002,97.421416 c 0.001,-1.018646 0.049,-1.402943 0.10628,-0.853996 0.0573,0.54895 0.0563,1.382387 -0.002,1.852084 -0.0585,0.469699 -0.10531,0.02056 -0.10414,-0.998088 z m -38.39848,1.137708 c -0.174625,-0.174625 -0.31388,-0.442515 -0.309454,-0.595312 0.0044,-0.152797 0.130805,-0.06695 0.280845,0.190772 0.15004,0.257723 0.402939,0.388155 0.562001,0.289849 0.173379,-0.107154 0.213593,-0.0564 0.100415,0.126727 -0.233484,0.377786 -0.24419,0.377582 -0.633807,-0.01204 z M 85.30297,97.97889 c 0,-0.05719 0.178594,-0.172516 0.396875,-0.25628 0.218281,-0.08376 0.396875,-0.03697 0.396875,0.103984 0,0.140954 -0.178594,0.25628 -0.396875,0.25628 -0.218281,0 -0.396875,-0.04679 -0.396875,-0.103984 z m -0.467238,-2.012682 c 0.06424,-0.218282 -0.06051,-0.527529 -0.277225,-0.687218 -0.317259,-0.23377 -0.326708,-0.331952 -0.04849,-0.503902 0.228394,-0.141155 0.281541,-0.109995 0.156758,0.09191 -0.103833,0.168005 -0.0627,0.305464 0.09141,0.305464 0.154109,0 0.280199,-0.142875 0.280199,-0.3175 0,-0.233622 0.07799,-0.239512 0.295203,-0.02231 0.217215,0.217215 0.175017,0.458364 -0.159731,0.912813 -0.250217,0.339685 -0.402373,0.439015 -0.338127,0.220734 z m 41.824218,-2.778125 c 0.002,-0.873125 0.0509,-1.198415 0.10977,-0.722866 0.0589,0.475549 0.0577,1.189924 -0.003,1.5875 -0.0604,0.397576 -0.10855,0.0085 -0.10707,-0.864634 z M 83.307716,91.715272 c -0.09592,-0.155202 -0.117655,-0.338932 -0.0483,-0.408287 0.06935,-0.06936 0.196601,0.05763 0.282773,0.282186 0.178906,0.466225 0.02643,0.548233 -0.234473,0.126101 z m 43.623794,-2.363648 c 0,-1.091406 0.0467,-1.53789 0.10378,-0.992187 0.0571,0.545703 0.0571,1.438672 0,1.984375 -0.0571,0.545703 -0.10378,0.09922 -0.10378,-0.992188 z m -44.960969,0.992188 -0.504029,-0.595313 0.661458,0.526347 c 0.363802,0.289491 0.711068,0.557381 0.771703,0.595312 0.06063,0.03793 -0.01021,0.06897 -0.157433,0.06897 -0.147219,0 -0.494485,-0.26789 -0.771699,-0.595312 z m -1.334389,-0.859896 c -0.08376,-0.218281 -0.347917,-0.406276 -0.58701,-0.417764 -0.304025,-0.01461 -0.329338,-0.06299 -0.08419,-0.160938 0.192788,-0.07703 0.58438,0.110966 0.870204,0.417764 0.285824,0.306797 0.392244,0.557813 0.236487,0.557813 -0.155758,0 -0.351727,-0.178594 -0.435488,-0.396875 z m -1.798463,-0.848484 c -0.143584,-0.377085 -0.113194,-0.407475 0.148114,-0.148114 0.180821,0.179477 0.262114,0.39297 0.180652,0.474432 -0.08146,0.08146 -0.229407,-0.06538 -0.328766,-0.326318 z m -0.992661,-0.522881 c 0.190995,-0.07643 0.419198,-0.06703 0.507119,0.02088 0.08792,0.08792 -0.06835,0.150453 -0.347266,0.138965 -0.308226,-0.0127 -0.370919,-0.07539 -0.159853,-0.159851 z m -1.405599,-0.859575 c -0.291042,-0.115155 -0.658918,-0.160899 -0.817507,-0.101656 -0.158586,0.05925 -0.452316,-0.106058 -0.652735,-0.367342 -0.200416,-0.261284 -0.26103,-0.387615 -0.134697,-0.280736 0.126336,0.106878 0.372237,-5.29e-4 0.546452,-0.238861 0.365763,-0.50021 1.035796,-0.225837 0.820246,0.335881 -0.08029,0.209222 0.02011,0.370112 0.230931,0.370112 0.205126,0 0.446539,0.119063 0.536477,0.264584 0.186028,0.301 0.186041,0.301 -0.529167,0.01802 z m -0.45751,-0.762159 c 0.15874,-0.476213 -0.388143,-0.376145 -0.572695,0.104791 -0.09888,0.25768 -0.03975,0.37864 0.153593,0.314193 0.172905,-0.05764 0.3615,-0.246179 0.419102,-0.418984 z m 51.209901,-1.107943 c 0,-0.945885 0.048,-1.332838 0.10671,-0.859895 0.0587,0.472942 0.0587,1.246848 0,1.719791 -0.0587,0.472943 -0.10671,0.08599 -0.10671,-0.859896 z m -53.315542,0.877594 c 0.190995,-0.07643 0.419198,-0.06703 0.507119,0.02088 0.08792,0.08792 -0.06835,0.150452 -0.347266,0.138964 -0.308226,-0.0127 -0.370919,-0.07539 -0.159853,-0.15985 z m -1.430737,-1.472906 -0.504028,-0.595313 0.595312,0.504029 c 0.559446,0.473662 0.715761,0.686596 0.504029,0.686596 -0.05021,0 -0.318098,-0.26789 -0.595313,-0.595312 z m -1.760799,-1.696583 c 0.181901,-0.0734 0.479557,-0.0734 0.661458,0 0.181901,0.0734 0.03307,0.133454 -0.330729,0.133454 -0.363802,0 -0.51263,-0.06006 -0.330729,-0.133454 z m -1.276797,-0.816959 -0.641432,-0.727604 0.727604,0.641432 c 0.680056,0.599517 0.848939,0.813776 0.641432,0.813776 -0.04739,0 -0.374814,-0.327422 -0.727604,-0.727604 z m 58.073095,-4.431771 c 2.6e-4,-2.619375 0.0399,-3.65515 0.088,-2.301721 0.0481,1.353428 0.0479,3.496553 -5.3e-4,4.7625 -0.0484,1.265946 -0.0878,0.158596 -0.0875,-2.460779 z m -58.917936,3.063918 c -0.115086,-0.440095 -0.08065,-0.543396 0.115686,-0.347057 0.153749,0.153749 0.227486,0.435721 0.163859,0.626602 -0.06605,0.19816 -0.185986,0.07822 -0.279545,-0.279545 z m -3.704167,-2.645834 c -0.115086,-0.440094 -0.08065,-0.543396 0.115687,-0.347056 0.153749,0.153749 0.227486,0.435721 0.163859,0.626602 -0.06605,0.19816 -0.185986,0.07822 -0.279546,-0.279546 z m 0.816703,-0.07888 c 0.141097,-0.141097 0.477546,-0.209696 0.747665,-0.15244 0.363754,0.07711 0.297222,0.143637 -0.25654,0.256543 -0.482817,0.09844 -0.656791,0.06156 -0.491125,-0.104103 z m -1.605481,-1.990871 c 1.055026,-0.05022 2.781432,-0.05022 3.836458,0 1.055026,0.05022 0.191823,0.09131 -1.918229,0.09131 -2.110052,0 -2.973255,-0.04109 -1.918229,-0.09131 z m 8.466666,0.0041 2.711979,-0.09074 v -8.060533 -8.060537 h 26.061456 26.06146 l -0.0566,3.108854 -0.0566,3.108854 -0.0844,-2.976562 -0.0844,-2.976563 H 101.30547 75.521148 l -0.07003,8.003646 -0.07002,8.003646 -2.778125,0.01535 -2.778125,0.01535 2.711979,-0.09074 z m 54.637035,-8.93577 c 0.003,-0.582083 0.0571,-0.789054 0.1204,-0.459936 0.0633,0.329118 0.0609,0.805368 -0.005,1.058334 -0.0662,0.252965 -0.118,-0.01633 -0.11507,-0.598398 z"
         id="path75" />
      <path
         style="fill:#ff7200;fill-opacity:1;stroke:#ff7200;stroke-width:1;stroke-miterlimit:4;stroke-dasharray:none;stroke-opacity:1"
         d="m 99.805443,175.68963 c 0.190995,-0.0764 0.419197,-0.067 0.507117,0.0209 0.0879,0.0879 -0.0684,0.15045 -0.347263,0.13896 -0.308227,-0.0127 -0.37092,-0.0754 -0.159854,-0.15985 z m 0.463497,-0.80003 c -0.14359,-0.37709 -0.1132,-0.40748 0.14811,-0.14812 0.18082,0.17948 0.26212,0.39297 0.18065,0.47444 -0.0815,0.0815 -0.2294,-0.0654 -0.32876,-0.32632 z m -2.530554,-0.0776 c 0,-0.14552 0.119063,-0.26458 0.264583,-0.26458 0.145521,0 0.264584,0.11906 0.264584,0.26458 0,0.14552 -0.119063,0.26458 -0.264584,0.26458 -0.14552,0 -0.264583,-0.11906 -0.264583,-0.26458 z m -20.439061,-3.87939 c 0.181901,-0.0734 0.479557,-0.0734 0.661458,0 0.181901,0.0734 0.03307,0.13345 -0.330729,0.13345 -0.363802,0 -0.51263,-0.0601 -0.330729,-0.13345 z m -5.94809,-0.27271 c 0.257432,-0.0671 0.614619,-0.0627 0.79375,0.01 0.179131,0.0725 -0.03149,0.12737 -0.468056,0.12197 -0.436562,-0.005 -0.583126,-0.0647 -0.325694,-0.13177 z m 8.395485,0.0819 c 0,-0.22452 1.345412,-0.34079 1.477137,-0.12765 0.07788,0.12601 -0.22262,0.2291 -0.667771,0.2291 -0.445151,0 -0.809366,-0.0456 -0.809366,-0.10145 z m 6.035807,-0.0793 c 0.190995,-0.0764 0.419198,-0.067 0.507119,0.0209 0.08792,0.0879 -0.06835,0.15045 -0.347265,0.13896 -0.308227,-0.0127 -0.37092,-0.0754 -0.159854,-0.15985 z m -17.991665,-0.52917 c 0.190994,-0.0764 0.419198,-0.067 0.507119,0.0209 0.08792,0.0879 -0.06835,0.15045 -0.347266,0.13896 -0.308226,-0.0127 -0.370919,-0.0754 -0.159853,-0.15985 z m 38.149608,-2.44947 c 0,-0.13694 0.1177,-0.32172 0.26155,-0.41062 0.14998,-0.0927 0.19434,0.0135 0.10399,0.24897 -0.1759,0.45837 -0.36554,0.54223 -0.36554,0.16165 z m 5.29167,-3.02593 c 0,-0.0549 0.20835,-0.2633 0.46302,-0.46302 0.41964,-0.32911 0.429,-0.31975 0.0999,0.0999 -0.34564,0.44073 -0.56291,0.58089 -0.56291,0.36313 z m 1.51694,-1.52044 c 0.17948,-0.18082 0.39297,-0.26211 0.47443,-0.18065 0.0815,0.0815 -0.0654,0.22941 -0.32632,0.32877 -0.37708,0.14358 -0.40747,0.11319 -0.14811,-0.14812 z m 3.92402,-1.10306 c 0.0994,-0.26093 0.24731,-0.40778 0.32877,-0.32631 0.0815,0.0815 1.7e-4,0.29495 -0.18065,0.47443 -0.26131,0.25936 -0.2917,0.22897 -0.14812,-0.14812 z m -1.3627,-4.94952 c 0.016,-0.22595 0.31191,-0.41554 0.68694,-0.44022 0.55211,-0.0363 0.56501,-0.023 0.0797,0.0824 -0.31848,0.0692 -0.6276,0.26726 -0.68694,0.44021 -0.0593,0.17296 -0.0952,0.13587 -0.0797,-0.0824 z m -75.406067,-4.00532 c -0.114113,-0.18463 -0.07719,-0.23915 0.09141,-0.13496 0.155576,0.0962 0.343166,0.0252 0.416867,-0.15755 0.09591,-0.2379 0.139939,-0.24281 0.15489,-0.0172 0.03018,0.45531 -0.438046,0.67403 -0.663168,0.30978 z m 84.160097,-0.22802 c 0.26339,-0.29104 0.53842,-0.52916 0.61118,-0.52916 0.0728,0 -0.0832,0.23812 -0.3466,0.52916 -0.26339,0.29105 -0.53842,0.52917 -0.61118,0.52917 -0.0728,0 0.0832,-0.23812 0.3466,-0.52917 z m 3.32818,-1.74184 c 0.0127,-0.30822 0.0754,-0.37091 0.15985,-0.15985 0.0764,0.191 0.067,0.4192 -0.0209,0.50712 -0.0879,0.0879 -0.15045,-0.0684 -0.13896,-0.34727 z m -85.515053,-3.74826 c -0.329108,-0.41964 -0.319749,-0.429 0.09989,-0.0999 0.254661,0.19972 0.46302,0.40808 0.46302,0.46302 0,0.21777 -0.217272,0.0776 -0.562915,-0.36312 z m 85.006773,-0.33073 c 0,-0.3638 0.06,-0.51263 0.13345,-0.33073 0.0734,0.1819 0.0734,0.47956 0,0.66146 -0.0734,0.1819 -0.13345,0.0331 -0.13345,-0.33073 z m -1.53025,-2.24023 c -0.0819,-0.21348 -0.0979,-0.5409 -0.0355,-0.7276 0.0624,-0.1867 0.17619,-0.012 0.25285,0.38814 0.14969,0.78138 0.0262,0.97421 -0.21737,0.33946 z M 44.258807,137.3073 c -0.329108,-0.41964 -0.319749,-0.429 0.0999,-0.0999 0.440729,0.34564 0.580887,0.56291 0.363126,0.56291 -0.05494,0 -0.263302,-0.20836 -0.463021,-0.46302 z m -0.917432,-1.19062 -0.504028,-0.59531 0.595313,0.50402 c 0.559447,0.47367 0.715762,0.6866 0.504028,0.6866 -0.05021,0 -0.318097,-0.26789 -0.595313,-0.59531 z m 89.851175,-0.56292 c 0,-0.0549 0.20836,-0.2633 0.46302,-0.46302 0.41965,-0.32911 0.42901,-0.31975 0.0999,0.0999 -0.34565,0.44073 -0.56292,0.58088 -0.56292,0.36312 z m -91.036686,-0.89229 -0.641433,-0.7276 0.727604,0.64143 c 0.680056,0.59951 0.848939,0.81377 0.641433,0.81377 -0.04739,0 -0.374816,-0.32742 -0.727604,-0.7276 z m 0.02002,-4.82865 c 0.155761,-0.29104 0.342733,-0.52916 0.415493,-0.52916 0.07276,0 0.0048,0.23812 -0.15091,0.52916 -0.15576,0.29105 -0.342732,0.52917 -0.415493,0.52917 -0.07276,0 -0.0049,-0.23812 0.15091,-0.52917 z m 99.615626,-0.52916 c 0.56839,-0.58209 1.09297,-1.05834 1.16573,-1.05834 0.0728,0 -0.33276,0.47625 -0.90115,1.05834 -0.56839,0.58208 -1.09297,1.05833 -1.16573,1.05833 -0.0728,0 0.33276,-0.47625 0.90115,-1.05833 z m -19.57917,-1.05834 c -0.0899,-0.14552 -0.0374,-0.26458 0.11668,-0.26458 0.15411,0 0.2802,0.11906 0.2802,0.26458 0,0.14553 -0.0525,0.26459 -0.11668,0.26459 -0.0642,0 -0.19026,-0.11906 -0.2802,-0.26459 z m 2.11934,-0.004 c 0.0914,-0.14789 0.27702,-0.2004 0.41249,-0.11667 0.36699,0.2268 0.29856,0.38557 -0.16619,0.38557 -0.22687,0 -0.33771,-0.121 -0.2463,-0.2689 z m 19.4442,-0.36017 c 0,-0.0549 0.20835,-0.2633 0.46302,-0.46302 0.41964,-0.3291 0.42901,-0.31974 0.0999,0.0999 -0.34564,0.44073 -0.56291,0.58089 -0.56291,0.36312 z m -23.73553,-1.05705 c 0.0486,-0.14585 0.24636,-0.31784 0.43942,-0.38219 0.21521,-0.0717 0.27701,0.003 0.15973,0.1925 -0.13511,0.21862 0.001,0.26125 0.46348,0.14518 0.36012,-0.0904 0.71859,-0.0611 0.7966,0.0652 0.078,0.12622 -0.32829,0.23288 -0.90289,0.23701 -0.58355,0.004 -1.00571,-0.10954 -0.95634,-0.25767 z m -75.218633,-1.48888 c 0.155761,-0.29104 0.342733,-0.52917 0.415493,-0.52917 0.07276,0 0.0048,0.23813 -0.150909,0.52917 -0.155761,0.29104 -0.342733,0.52916 -0.415494,0.52916 -0.07276,0 -0.0048,-0.23812 0.15091,-0.52916 z m 87.197223,0.18702 c 0.0994,-0.26093 0.2473,-0.40778 0.32876,-0.32631 0.0815,0.0815 1.7e-4,0.29495 -0.18066,0.47443 -0.26131,0.25936 -0.2917,0.22897 -0.1481,-0.14812 z m 14.66736,-0.0223 c 0,-0.0549 0.20836,-0.2633 0.46302,-0.46302 0.41965,-0.3291 0.429,-0.31974 0.0999,0.0999 -0.34565,0.44073 -0.56292,0.58089 -0.56292,0.36312 z m -101.070833,-1.4876 c 0.155761,-0.29104 0.342733,-0.52917 0.415493,-0.52917 0.07276,0 0.0048,0.23813 -0.150909,0.52917 -0.155761,0.29104 -0.342733,0.52917 -0.415494,0.52917 -0.07276,0 -0.0048,-0.23813 0.15091,-0.52917 z m 103.055213,-0.26458 c 0.26338,-0.29104 0.53842,-0.52917 0.61117,-0.52917 0.0728,0 -0.0832,0.23813 -0.3466,0.52917 -0.26338,0.29104 -0.53842,0.52916 -0.61117,0.52916 -0.0728,0 0.0832,-0.23812 0.3466,-0.52916 z m -19.1823,-0.36448 c 0,-0.0549 0.20836,-0.2633 0.46303,-0.46302 0.41963,-0.32911 0.429,-0.31975 0.0999,0.0999 -0.34565,0.44073 -0.56292,0.58089 -0.56292,0.36313 z m 20.50521,-0.69386 c 0.26338,-0.29104 0.53842,-0.52916 0.61118,-0.52916 0.0728,0 -0.0832,0.23812 -0.3466,0.52916 -0.26339,0.29105 -0.53842,0.52917 -0.61118,0.52917 -0.0728,0 0.0832,-0.23812 0.3466,-0.52917 z m -18.38854,-1.06685 c 0,-0.55689 0.97592,-1.11562 1.45254,-0.83161 0.14404,0.0858 -0.0345,0.22894 -0.39688,0.31799 -0.40074,0.0985 -0.64439,0.33611 -0.62205,0.60661 0.0202,0.24459 -0.0691,0.4447 -0.19843,0.4447 -0.12935,0 -0.23518,-0.24196 -0.23518,-0.53769 z m -84.137499,-0.78523 c 0.15576,-0.29104 0.342732,-0.52917 0.415493,-0.52917 0.07276,0 0.0048,0.23813 -0.15091,0.52917 -0.155761,0.29104 -0.342733,0.52917 -0.415493,0.52917 -0.07276,0 -0.0048,-0.23813 0.15091,-0.52917 z m 105.039579,-0.11879 c 0,-0.10097 0.1786,-0.36218 0.39688,-0.58047 0.21828,-0.21828 0.39687,-0.28388 0.39687,-0.14578 0,0.13809 -0.17859,0.3993 -0.39687,0.58046 -0.21828,0.18116 -0.39688,0.24676 -0.39688,0.14579 z m -19.31458,-1.04353 c 0,-0.0572 0.18478,-0.17489 0.41062,-0.26155 0.23545,-0.0904 0.34165,-0.046 0.24897,0.10398 -0.15538,0.25141 -0.65959,0.37186 -0.65959,0.15757 z m 20.05872,-0.34134 c 0.191,-0.0764 0.41919,-0.067 0.50711,0.0209 0.0879,0.0879 -0.0683,0.15045 -0.34726,0.13896 -0.30823,-0.0127 -0.37092,-0.0754 -0.15986,-0.15985 z m -16.99558,-0.78683 c 0.25379,-0.4594 0.5981,-0.78284 0.76512,-0.71875 0.16702,0.0641 0.58283,-0.12558 0.92402,-0.42149 0.78056,-0.67696 0.81764,-0.67247 0.4732,0.0573 -0.17084,0.36195 -0.54213,0.6114 -0.94721,0.63634 -0.36643,0.0226 -0.89356,0.32022 -1.1714,0.66146 -0.50373,0.61866 -0.50386,0.61804 -0.0437,-0.21485 z m 5.8174,0.25138 c -0.14358,-0.37708 -0.11319,-0.40747 0.14812,-0.14811 0.18082,0.17948 0.26211,0.39297 0.18066,0.47443 -0.0815,0.0815 -0.22941,-0.0654 -0.32878,-0.32632 z m -7.29305,0.083 c 0,-0.0572 0.18478,-0.17489 0.41062,-0.26155 0.23546,-0.0904 0.34166,-0.046 0.24897,0.10398 -0.15538,0.25141 -0.65959,0.37186 -0.65959,0.15757 z m 17.04049,-0.49132 -0.50403,-0.59532 0.59532,0.50403 c 0.32741,0.27722 0.59531,0.54511 0.59531,0.59531 0,0.21174 -0.21293,0.0554 -0.6866,-0.50402 z M 49.319639,117.66204 c 0.15576,-0.29104 0.342733,-0.52917 0.415493,-0.52917 0.07276,0 0.0048,0.23813 -0.15091,0.52917 -0.155761,0.29104 -0.342733,0.52917 -0.415493,0.52917 -0.07276,0 -0.0048,-0.23813 0.15091,-0.52917 z m 1.5875,-2.64583 c 0.15576,-0.29104 0.342732,-0.52917 0.415493,-0.52917 0.07276,0 0.0049,0.23813 -0.15091,0.52917 -0.155761,0.29104 -0.342733,0.52916 -0.415493,0.52916 -0.07276,0 -0.0048,-0.23812 0.15091,-0.52916 z m 74.414631,-1.19063 c 0.003,-0.58208 0.0571,-0.78905 0.12041,-0.45993 0.0633,0.32911 0.0609,0.80536 -0.005,1.05833 -0.0662,0.25297 -0.11801,-0.0163 -0.11507,-0.5984 z m 18.68495,0.46302 c -0.32911,-0.41964 -0.31975,-0.429 0.0999,-0.0999 0.44073,0.34564 0.58089,0.56291 0.36313,0.56291 -0.0549,0 -0.2633,-0.20836 -0.46302,-0.46302 z m -15.89086,0.0177 c 0.19099,-0.0764 0.4192,-0.067 0.50712,0.0209 0.0879,0.0879 -0.0684,0.15045 -0.34727,0.13896 -0.30822,-0.0127 -0.37092,-0.0754 -0.15985,-0.15985 z m 1.11868,0.0818 c 0.0734,-0.0734 0.47282,-0.19501 0.88758,-0.27022 0.41476,-0.0752 0.67547,-0.0581 0.57935,0.038 -0.0961,0.0961 -0.49553,0.21772 -0.88758,0.27022 -0.39205,0.0525 -0.65276,0.0354 -0.57935,-0.038 z m 13.59973,-0.84171 c -0.49319,-0.39512 -0.48995,-0.40001 0.0817,-0.12298 0.32742,0.15867 0.59531,0.34383 0.59531,0.41147 0,0.20247 -0.13722,0.144 -0.67703,-0.28849 z M 52.759222,111.8412 c 0.155761,-0.29104 0.342733,-0.52917 0.415493,-0.52917 0.07276,0 0.0048,0.23813 -0.15091,0.52917 -0.155761,0.29104 -0.342733,0.52916 -0.415493,0.52916 -0.07276,0 -0.0048,-0.23812 0.15091,-0.52916 z m 0.79375,-1.32292 c 0.155761,-0.29104 0.342733,-0.52917 0.415493,-0.52917 0.07276,0 0.0048,0.23813 -0.15091,0.52917 -0.155761,0.29104 -0.342733,0.52917 -0.415493,0.52917 -0.07276,0 -0.0048,-0.23813 0.15091,-0.52917 z m 72.045948,-0.79375 c 0,-0.80036 0.0496,-1.12779 0.11022,-0.7276 0.0606,0.40018 0.0606,1.05502 0,1.45521 -0.0606,0.40018 -0.11022,0.0728 -0.11022,-0.72761 z m -62.303115,-0.19835 c 5.140278,-0.0402 13.474652,-0.0401 18.520833,5e-5 5.04618,0.0402 0.840499,0.0731 -9.345959,0.073 -10.186458,-3e-5 -14.315151,-0.0329 -9.174874,-0.0731 z m 62.560475,-4.03498 c 0,-0.65485 0.0516,-0.92274 0.11466,-0.59531 0.0631,0.32742 0.0631,0.8632 0,1.19062 -0.0631,0.32742 -0.11466,0.0595 -0.11466,-0.59531 z m -34.803033,-2.41408 c 0.179477,-0.18083 0.392969,-0.26212 0.474432,-0.18066 0.08146,0.0815 -0.06538,0.22941 -0.326319,0.32877 -0.377084,0.14358 -0.407474,0.11319 -0.148113,-0.14811 z m 35.071223,-1.95155 c 0.002,-0.7276 0.0534,-0.99385 0.11419,-0.59167 0.0608,0.40218 0.0592,0.99749 -0.004,1.32291 -0.0628,0.32543 -0.11256,-0.004 -0.11057,-0.73124 z m -34.4715,0.38126 c 0,-0.15411 0.119062,-0.20661 0.264583,-0.11667 0.145521,0.0899 0.264583,0.21602 0.264583,0.2802 0,0.0642 -0.119062,0.11667 -0.264583,0.11667 -0.145521,0 -0.264583,-0.12609 -0.264583,-0.2802 z m 0.513963,-0.54195 c -0.226422,-0.42308 -0.219305,-0.6305 0.02951,-0.8599 0.248089,-0.22873 0.283281,-0.223147 0.144568,0.0229 -0.100838,0.17889 -0.05459,0.56585 0.102785,0.85989 0.157369,0.29405 0.226598,0.53464 0.153837,0.53464 -0.07276,0 -0.266573,-0.25091 -0.430697,-0.55757 z m 34.225737,-3.940349 c 0,-0.800365 0.0496,-1.127786 0.11022,-0.727604 0.0606,0.400182 0.0606,1.055026 0,1.455208 -0.0606,0.400182 -0.11022,0.07276 -0.11022,-0.727604 z M 85.038387,94.892259 c 0,-0.15411 0.119062,-0.206613 0.264583,-0.116676 0.145521,0.08994 0.264583,0.216027 0.264583,0.280199 0,0.06417 -0.119062,0.116676 -0.264583,0.116676 -0.145521,0 -0.264583,-0.12609 -0.264583,-0.280199 z m 41.591163,-1.704176 c 0.005,-0.436563 0.0647,-0.583126 0.13177,-0.325694 0.0671,0.257431 0.0627,0.614619 -0.01,0.79375 -0.0725,0.17913 -0.12737,-0.03149 -0.12197,-0.468056 z m 0.28506,-3.571875 c 0,-0.654844 0.0516,-0.922735 0.11467,-0.595313 0.0631,0.327422 0.0631,0.863203 0,1.190625 -0.0631,0.327422 -0.11467,0.05953 -0.11467,-0.595312 z M 76.373283,87.226713 c -0.327422,-0.131609 -0.595312,-0.291507 -0.595312,-0.355335 0,-0.196937 1.057846,0.148741 1.210363,0.395518 0.168275,0.272274 0.161144,0.271809 -0.615051,-0.04018 z m 50.815837,-1.711547 c 0.002,-0.873125 0.0509,-1.198414 0.10977,-0.722865 0.0589,0.475548 0.0577,1.189923 -0.003,1.5875 -0.0604,0.397576 -0.10855,0.0085 -0.10707,-0.864635 z M 70.684742,83.090979 c 0.181901,-0.0734 0.479557,-0.0734 0.661458,0 0.181901,0.0734 0.03307,0.133454 -0.330729,0.133454 -0.363802,0 -0.51263,-0.06006 -0.330729,-0.133454 z m -1.276797,-0.816959 -0.641432,-0.727604 0.727604,0.641432 c 0.680056,0.599517 0.848939,0.813776 0.641432,0.813776 -0.04739,0 -0.374814,-0.327422 -0.727604,-0.727604 z m 58.039445,-1.785937 c 0.002,-0.727604 0.0534,-0.993857 0.11419,-0.591675 0.0608,0.402183 0.0592,0.997495 -0.004,1.322917 -0.0628,0.325421 -0.11256,-0.0036 -0.11058,-0.731242 z m -0.0339,-1.984375 c 0,-0.363802 0.0601,-0.512631 0.13346,-0.33073 0.0734,0.181902 0.0734,0.479558 0,0.661459 -0.0734,0.181901 -0.13346,0.03307 -0.13346,-0.330729 z M 62.482659,76.211813 c 0.181901,-0.0734 0.479557,-0.0734 0.661458,0 0.181901,0.0734 0.03307,0.133453 -0.330729,0.133453 -0.363802,0 -0.51263,-0.06005 -0.330729,-0.133453 z m 12.828264,-8.093001 -0.06212,-8.135938 15.279687,0.06394 15.27969,0.06393 -15.143522,0.07052 -15.143519,0.07052 -0.07405,8.001479 -0.07405,8.001481 z m 52.081687,7.584723 c 0.0127,-0.308226 0.0754,-0.370919 0.15985,-0.159853 0.0764,0.190994 0.067,0.419198 -0.0209,0.507119 -0.0879,0.08792 -0.15045,-0.06835 -0.13896,-0.347266 z m -0.26459,-10.847917 c 0.0127,-0.308226 0.0754,-0.370919 0.15985,-0.159853 0.0764,0.190995 0.067,0.419198 -0.0209,0.507119 -0.0879,0.08792 -0.15045,-0.06835 -0.13897,-0.347266 z m 0.0405,-2.491494 c 0,-0.509323 0.0545,-0.717682 0.121,-0.46302 0.0666,0.254661 0.0666,0.67138 0,0.926041 -0.0665,0.254662 -0.121,0.0463 -0.121,-0.463021 z m -0.0614,-1.715733 c 0,-0.336534 -1.08992,-0.403481 -7.60677,-0.467243 l -7.60677,-0.07442 7.73907,-0.06193 c 7.58331,-0.06068 7.73906,-0.05128 7.73906,0.467241 0,0.291042 -0.0595,0.529167 -0.13229,0.529167 -0.0728,0 -0.1323,-0.176768 -0.1323,-0.392817 z m -19.7776,-0.596458 c 0.83675,-0.05251 2.20596,-0.05251 3.04271,0 0.83674,0.05251 0.15214,0.09547 -1.52135,0.09547 -1.67349,0 -2.3581,-0.04296 -1.52136,-0.09547 z"
         id="path73" />
      <path
         style="fill:#ff7200;fill-opacity:1;stroke:#ff7200;stroke-width:1;stroke-miterlimit:4;stroke-dasharray:none;stroke-opacity:1"
         d="m 80.755444,170.66255 c 0.190995,-0.0764 0.419198,-0.067 0.507119,0.0209 0.08792,0.0879 -0.06835,0.15045 -0.347265,0.13896 -0.308227,-0.0127 -0.37092,-0.0754 -0.159854,-0.15985 z m -36.496637,-33.3552 c -0.329108,-0.41964 -0.319749,-0.429 0.0999,-0.0999 0.440729,0.34564 0.580887,0.56291 0.363126,0.56291 -0.05494,0 -0.263302,-0.20836 -0.463021,-0.46302 z m -2.116667,-2.64583 c -0.329107,-0.41964 -0.319749,-0.429 0.0999,-0.0999 0.254661,0.19972 0.463021,0.40808 0.463021,0.46302 0,0.21777 -0.217272,0.0776 -0.562916,-0.36312 z m 77.82124,-7.75485 c 0,-0.1057 0.15875,-0.2531 0.35278,-0.32755 0.19403,-0.0745 0.35278,0.012 0.35278,0.19217 0,0.18016 -0.15875,0.32756 -0.35278,0.32756 -0.19403,0 -0.35278,-0.0865 -0.35278,-0.19218 z m 1.21788,0.0599 c -0.0749,-0.12127 0.0319,-0.22049 0.23733,-0.22049 0.20548,0 0.31228,0.0992 0.23733,0.22049 -0.0749,0.12126 -0.18174,0.22048 -0.23733,0.22048 -0.0556,0 -0.16238,-0.0992 -0.23733,-0.22048 z m 27.09254,-2.78983 c 0,-0.0549 0.20836,-0.2633 0.46302,-0.46302 0.41965,-0.32911 0.429,-0.31975 0.0999,0.0999 -0.34565,0.44073 -0.56292,0.58089 -0.56292,0.36313 z m -13.49375,-5.29576 c 0,-0.0572 0.18478,-0.17489 0.41062,-0.26155 0.23546,-0.0904 0.34166,-0.046 0.24897,0.10398 -0.15538,0.25141 -0.65959,0.37186 -0.65959,0.15757 z m 1.37824,-0.1606 c 0.0638,-0.21828 0.46348,-0.566 0.88813,-0.77272 0.42465,-0.20672 0.93038,-0.53414 1.12384,-0.72761 0.5025,-0.5025 0.56903,-0.43709 0.24778,0.24356 -0.17176,0.36391 -0.5421,0.61139 -0.95273,0.63668 -0.36946,0.0228 -0.84079,0.26088 -1.04741,0.52917 -0.24972,0.32427 -0.33675,0.35475 -0.25961,0.0909 z m -10.84186,-5.02708 c 0,-0.50932 0.0545,-0.71768 0.12101,-0.46302 0.0665,0.25466 0.0665,0.67138 0,0.92604 -0.0665,0.25466 -0.12101,0.0463 -0.12101,-0.46302 z m -69.316062,-4.16495 c 0.982265,-0.0509 2.589609,-0.0509 3.571874,0 0.982266,0.0509 0.178594,0.0926 -1.785937,0.0926 -1.964531,0 -2.768203,-0.0417 -1.785937,-0.0926 z m 6.489284,0.002 c 0.62231,-0.0559 1.57481,-0.0551 2.116666,0.002 0.541856,0.0569 0.0327,0.10258 -1.131472,0.10162 -1.164166,-0.001 -1.607505,-0.0475 -0.985194,-0.10337 z m 4.765876,-0.002 c 0.915207,-0.0518 2.343956,-0.0514 3.174999,10e-4 0.831041,0.0523 0.08224,0.0947 -1.664014,0.0942 -1.74625,-5.3e-4 -2.426195,-0.0434 -1.510985,-0.0952 z m 9.382338,-0.002 c 2.582995,-0.0433 6.809714,-0.0433 9.392708,0 2.582995,0.0433 0.469636,0.0788 -4.696354,0.0788 -5.165989,0 -7.279348,-0.0354 -4.696354,-0.0788 z m 48.923544,-0.33112 c 0,-0.3638 0.0601,-0.51263 0.13345,-0.33072 0.0734,0.1819 0.0734,0.47955 0,0.66145 -0.0734,0.1819 -0.13345,0.0331 -0.13345,-0.33073 z m 0.26458,-3.70416 c 0,-0.3638 0.0601,-0.51263 0.13346,-0.33073 0.0734,0.1819 0.0734,0.47956 0,0.66146 -0.0734,0.1819 -0.13346,0.0331 -0.13346,-0.33073 z m 0.27439,-4.63021 c 0.005,-0.43656 0.0647,-0.58313 0.13177,-0.32569 0.0671,0.25743 0.0627,0.61461 -0.01,0.79375 -0.0725,0.17913 -0.12736,-0.0315 -0.12197,-0.46806 z m 0.27439,-3.571876 c 0,-0.509323 0.0545,-0.717682 0.121,-0.46302 0.0666,0.254661 0.0666,0.67138 0,0.926041 -0.0665,0.254662 -0.121,0.0463 -0.121,-0.463021 z m 0.48867,-7.298089 c 0.0127,-0.308226 0.0754,-0.370919 0.15985,-0.159853 0.0764,0.190994 0.067,0.419198 -0.0209,0.507119 -0.0879,0.08792 -0.15046,-0.06835 -0.13897,-0.347266 z m 0.29528,-4.211286 c 0.005,-0.436562 0.0647,-0.583125 0.13177,-0.325694 0.0671,0.257432 0.0627,0.614619 -0.01,0.79375 -0.0725,0.179131 -0.12736,-0.03149 -0.12197,-0.468056 z m 0.25477,-4.630208 c 0,-0.363802 0.0601,-0.51263 0.13346,-0.330729 0.0734,0.181901 0.0734,0.479557 0,0.661458 -0.0734,0.181901 -0.13346,0.03307 -0.13346,-0.330729 z m 0,-1.322917 c 0,-0.363802 0.0601,-0.51263 0.13346,-0.330729 0.0734,0.181901 0.0734,0.479557 0,0.661458 -0.0734,0.181902 -0.13346,0.03307 -0.13346,-0.330729 z m 0,-1.322916 c 0,-0.363802 0.0601,-0.512631 0.13346,-0.33073 0.0734,0.181902 0.0734,0.479558 0,0.661459 -0.0734,0.181901 -0.13346,0.03307 -0.13346,-0.330729 z m -52.058194,-6.35 c 0,-2.255573 0.04058,-3.178308 0.09018,-2.050521 0.0496,1.127786 0.0496,2.973255 0,4.101041 -0.0496,1.127787 -0.09018,0.205053 -0.09018,-2.05052 z m -0.04799,-8.135938 -0.0585,-4.034896 11.57552,0.06326 11.57552,0.06326 -11.436172,0.07184 -11.436172,0.07184 -0.08084,3.899797 -0.08084,3.8998 z m 51.799824,-3.495799 c 0,-0.14006 -1.10132,-0.293944 -2.44739,-0.341964 l -2.4474,-0.08731 2.57969,-0.05491 c 2.14107,-0.04557 2.57969,0.01257 2.57969,0.341963 0,0.218282 -0.0595,0.396875 -0.13229,0.396875 -0.0728,0 -0.1323,-0.114593 -0.1323,-0.254653 z m -9.85572,-0.470411 c 0.9095,-0.05166 2.39778,-0.05166 3.30729,0 0.9095,0.05166 0.16536,0.09394 -1.65365,0.09394 -1.81901,0 -2.56315,-0.04227 -1.65364,-0.09394 z"
         id="path71" />
      <path
         style="fill:#ff7200;fill-opacity:1;stroke:#ff7200;stroke-width:1;stroke-miterlimit:4;stroke-dasharray:none;stroke-opacity:1"
         d="m 125.27594,113.53895 c 0.0127,-0.30822 0.0754,-0.37092 0.15985,-0.15985 0.0764,0.19099 0.067,0.4192 -0.0209,0.50712 -0.0879,0.0879 -0.15046,-0.0684 -0.13897,-0.34727 z m -69.275572,-4.01061 c 0.982265,-0.0509 2.589609,-0.0509 3.571874,0 0.982266,0.0509 0.178594,0.0926 -1.785937,0.0926 -1.964531,0 -2.768203,-0.0417 -1.785937,-0.0926 z m 6.489284,0.002 c 0.62231,-0.0559 1.57481,-0.0551 2.116666,0.002 0.541856,0.0569 0.0327,0.10258 -1.131472,0.10162 -1.164166,-0.001 -1.607505,-0.0475 -0.985194,-0.10337 z m 18.793596,-0.004 c 1.790975,-0.0458 4.648475,-0.0457 6.35,2.7e-4 1.701525,0.046 0.23618,0.0835 -3.256319,0.0834 -3.4925,-1.8e-4 -4.884656,-0.0378 -3.093681,-0.0837 z m 44.278162,-0.33138 c 0,-0.3638 0.0601,-0.51263 0.13345,-0.33072 0.0734,0.1819 0.0734,0.47955 0,0.66145 -0.0734,0.1819 -0.13345,0.0331 -0.13345,-0.33073 z m 0.50828,-8.09184 c 0.0127,-0.30822 0.0754,-0.37091 0.15985,-0.15985 0.0764,0.191 0.067,0.4192 -0.0209,0.50712 -0.0879,0.0879 -0.15046,-0.0683 -0.13897,-0.34727 z M 75.353198,71.756833 c 5.29e-4,-2.037292 0.04194,-2.835754 0.09229,-1.774362 0.05035,1.061392 0.05001,2.728267 -7.94e-4,3.704166 -0.05072,0.9759 -0.09191,0.107487 -0.0915,-1.929804 z m 0.01654,-7.672917 0.01135,-3.96875 4.7625,-0.0097 4.7625,-0.0097 -4.689316,0.08192 -4.689316,0.08192 -0.08455,3.896529 -0.08455,3.896527 0.01138,-3.96875 z m 48.893122,-4.029199 c 0.54571,-0.05708 1.43868,-0.05708 1.98438,0 0.5457,0.05708 0.0992,0.103785 -0.99219,0.103785 -1.0914,0 -1.53789,-0.0467 -0.99219,-0.103785 z"
         id="path69" />
    </g>
  </g>
</svg>
