<?xml version="1.0" encoding="UTF-8" standalone="no"?>
<!-- Created with Inkscape (http://www.inkscape.org/) -->

<svg
   width="807.08362mm"
   height="184.43382mm"
   viewBox="0 0 807.08362 184.43382"
   version="1.1"
   id="svg5"
   sodipodi:docname="memo.svg"
   inkscape:version="1.1.2 (0a00cf5339, 2022-02-04)"
   xmlns:inkscape="http://www.inkscape.org/namespaces/inkscape"
   xmlns:sodipodi="http://sodipodi.sourceforge.net/DTD/sodipodi-0.dtd"
   xmlns="http://www.w3.org/2000/svg"
   xmlns:svg="http://www.w3.org/2000/svg">
  <sodipodi:namedview
     id="namedview7"
     pagecolor="#ffffff"
     bordercolor="#666666"
     borderopacity="1.0"
     inkscape:pageshadow="2"
     inkscape:pageopacity="0.0"
     inkscape:pagecheckerboard="0"
     inkscape:document-units="mm"
     showgrid="false"
     units="mm"
     inkscape:zoom="0.35003174"
     inkscape:cx="-178.55524"
     inkscape:cy="225.69382"
     inkscape:window-width="1920"
     inkscape:window-height="1048"
     inkscape:window-x="0"
     inkscape:window-y="0"
     inkscape:window-maximized="1"
     inkscape:current-layer="layer1"
     fit-margin-top="0"
     fit-margin-left="0"
     fit-margin-right="0"
     fit-margin-bottom="0" />
  <defs
     id="defs2">
    <clipPath
       clipPathUnits="userSpaceOnUse"
       id="clipPath634">
      <rect
         style="fill:none;fill-opacity:1;stroke:none;stroke-width:0.272785;stroke-miterlimit:10;stroke-dasharray:none"
         id="rect636"
         width="831.9538"
         height="227.52774"
         x="5.7281818"
         y="476.69717" />
    </clipPath>
  </defs>
  <g
     inkscape:label="Layer 1"
     inkscape:groupmode="layer"
     id="layer1"
     transform="translate(-20.912058,-495.45647)">
    <path
       style="fill:#000000;stroke-width:0.244705"
       d="m 718.68836,679.7897 c -0.94212,-0.0401 -3.41976,-0.24192 -5.50586,-0.44836 -25.29288,-2.50362 -45.94054,-14.08509 -59.70288,-33.48804 -12.84879,-18.11494 -18.68506,-43.21712 -16.25042,-69.89444 1.85373,-20.31232 8.94326,-38.25123 20.59883,-52.12217 2.40776,-2.8654 7.78518,-8.13826 10.57346,-10.36786 2.70024,-2.15919 8.27009,-5.86428 11.40743,-7.58824 7.23706,-3.97676 16.51588,-7.20993 25.29831,-8.81512 10.08596,-1.84342 22.24566,-2.11923 32.74617,-0.74273 14.25628,1.86884 28.10402,7.30952 38.80107,15.24467 1.29452,0.96028 2.34676,1.82879 2.33836,1.93001 -0.008,0.10115 -1.45243,1.39531 -3.20889,2.87576 -4.28274,3.60977 -10.25384,8.96655 -16.40372,14.71603 -2.78738,2.60591 -5.16402,4.73802 -5.28135,4.73802 -0.11734,0 -1.29519,-0.72334 -2.6175,-1.60743 -5.68679,-3.80227 -12.32935,-6.26137 -19.86836,-7.35536 -5.35594,-0.77721 -13.09201,-0.55201 -18.79756,0.54726 -19.61301,3.7787 -33.26298,18.54057 -38.16962,41.27884 -1.3434,6.22551 -1.69841,10.12634 -1.70826,18.76946 -0.008,8.3983 0.15982,10.6552 1.24897,16.63992 2.40475,13.21375 7.49182,23.76784 15.14497,31.42097 8.87271,8.87271 20.43577,13.36006 34.42633,13.36006 17.56349,0 31.70163,-7.28078 40.62777,-20.92229 7.15936,-10.94137 10.85782,-26.21326 10.39134,-42.90812 -0.0765,-2.73839 -0.18209,-5.02196 -0.23498,-5.07462 -0.0526,-0.0526 -4.09274,1.39476 -8.97804,3.21641 -4.88529,1.82167 -8.93786,3.25658 -9.00574,3.18872 -0.10209,-0.10209 21.61144,-47.88029 22.17231,-48.78775 0.12377,-0.2003 7.72601,3.141 24.80567,10.90201 13.54502,6.15486 24.55152,11.26537 24.45892,11.3567 -0.0927,0.0914 -4.34599,1.71786 -9.45194,3.61453 -5.10594,1.89665 -9.30747,3.4737 -9.33675,3.50454 -0.0292,0.0309 0.0902,0.88191 0.26532,1.89133 1.01123,5.8256 1.21965,9.04391 1.22037,18.8423 0,10.37371 -0.16648,12.65574 -1.49612,20.43285 -2.3714,13.86896 -7.55815,26.8954 -14.92861,37.49308 -10.23998,14.72365 -25.49853,25.50391 -43.34686,30.62487 -9.66307,2.77248 -20.97902,4.01324 -32.23228,3.53419 z M 22.18838,675.97433 20.912058,674.68194 V 587.5663 500.45066 l 1.292391,-1.27635 1.292391,-1.27635 h 19.209307 19.209294 l 1.392043,1.40704 1.392055,1.40708 25.519083,62.52212 25.519108,62.52212 h 1.21843 1.21843 l 25.51856,-62.5193 25.51859,-62.51931 1.39516,-1.40987 1.39517,-1.40988 h 19.22537 19.22534 l 1.27635,1.29239 1.27635,1.29239 v 87.11567 87.11564 l -1.29242,1.27635 -1.29239,1.27631 h -15.54025 -15.54027 l -1.15316,-1.17073 -1.15314,-1.17077 v -49.97258 -49.97259 h -1.19164 -1.19161 l -2.83701,6.91291 c -1.56033,3.8021 -10.76018,26.22562 -20.44409,49.83001 l -17.60711,42.9171 -1.29702,1.31334 -1.297,1.31331 h -14.20892 -14.20891 l -1.35927,-1.40704 -1.35927,-1.40705 -20.385191,-49.73628 -20.385189,-49.7363 h -1.188979 -1.18894 v 49.9902 49.99019 l -1.17077,1.15314 -1.170744,1.15314 H 39.003458 23.464729 Z m 232.71447,0 -1.27635,-1.29239 v -86.9926 -86.99258 l 1.41414,-1.39941 1.41416,-1.39939 h 60.19871 60.19867 l 1.27635,1.29239 1.27635,1.29239 v 12.97004 12.97003 l -1.29239,1.27635 -1.29242,1.27635 h -42.21225 -42.21228 l -1.27638,1.29238 -1.27632,1.29239 v 17.74178 17.74179 l 1.29239,1.27632 1.29242,1.27635 h 39.64285 39.64288 l 1.27635,1.29242 1.27634,1.29239 v 12.83222 12.8322 l -1.39938,1.41416 -1.39942,1.41416 h -39.65905 -39.65907 l -1.15317,1.17073 -1.15314,1.17077 v 20.43282 20.43282 l 1.29239,1.27635 1.29242,1.27632 h 42.21226 42.21227 l 1.27635,1.29242 1.27635,1.29239 v 12.84767 12.84769 l -1.29239,1.27635 -1.29242,1.27631 H 316.49963 256.1792 Z m 161.26058,0 -1.27631,-1.29239 V 587.5663 500.45066 l 1.29235,-1.27635 1.29242,-1.27635 h 19.33237 19.33235 l 1.26093,1.2847 1.26093,1.28471 25.56355,62.64449 25.56363,62.64446 1.19013,0.072 1.19017,0.072 25.53341,-62.59412 25.53344,-62.59411 1.37216,-1.40707 1.37216,-1.40704 h 19.22537 19.22535 l 1.27635,1.29239 1.27635,1.29238 v 87.23885 87.23885 l -1.17074,1.15314 -1.17077,1.15313 H 589.1003 573.56157 l -1.27635,-1.29239 -1.27632,-1.29239 V 624.831 574.98005 l -1.16236,0.003 -1.16235,0.003 -20.43286,49.85639 c -19.99634,48.79139 -20.45848,49.88396 -21.63072,51.1412 l -1.19783,1.2847 H 511.0735 496.72421 l -1.25759,-1.2847 -1.25759,-1.2847 -20.42213,-49.79746 -20.42207,-49.79747 -1.13071,-0.0745 -1.13068,-0.0745 v 49.88044 49.8804 l -1.29239,1.27633 -1.2924,1.27633 H 432.9792 417.43978 Z"
       id="path197"
       clip-path="url(#clipPath634)" />
  </g>
</svg>
